<?xml version="1.0" encoding="UTF-8" standalone="no"?>
<svg
   xmlns:dc="http://purl.org/dc/elements/1.1/"
   xmlns:cc="http://creativecommons.org/ns#"
   xmlns:rdf="http://www.w3.org/1999/02/22-rdf-syntax-ns#"
   xmlns:svg="http://www.w3.org/2000/svg"
   xmlns="http://www.w3.org/2000/svg"
   xmlns:sodipodi="http://sodipodi.sourceforge.net/DTD/sodipodi-0.dtd"
   xmlns:inkscape="http://www.inkscape.org/namespaces/inkscape"
   inkscape:version="1.0 (4035a4fb49, 2020-05-01)"
   sodipodi:docname="008-storm.svg"
   id="svg10"
   version="1.1"
   width="638pt"
   viewBox="-20 -69 638.6697 638"
   height="638pt">
  <metadata
     id="metadata16">
    <rdf:RDF>
      <cc:Work
         rdf:about="">
        <dc:format>image/svg+xml</dc:format>
        <dc:type
           rdf:resource="http://purl.org/dc/dcmitype/StillImage" />
      </cc:Work>
    </rdf:RDF>
  </metadata>
  <defs
     id="defs14" />
  <sodipodi:namedview
     inkscape:current-layer="svg10"
     inkscape:window-maximized="1"
     inkscape:window-y="-8"
     inkscape:window-x="-8"
     inkscape:cy="425.33333"
     inkscape:cx="425.33333"
     inkscape:zoom="0.9992163"
     showgrid="false"
     id="namedview12"
     inkscape:window-height="1017"
     inkscape:window-width="1920"
     inkscape:pageshadow="2"
     inkscape:pageopacity="0"
     guidetolerance="10"
     gridtolerance="10"
     objecttolerance="10"
     borderopacity="1"
     bordercolor="#666666"
     pagecolor="#ffffff" />
  <path
     style="fill:#727272;fill-opacity:1"
     id="path2"
     d="m109.371094 376.476562c5.515625 0 9.988281-4.472656 9.988281-9.988281s-4.472656-9.988281-9.988281-9.988281c-49.238282.214844-89.472656-39.25-90.207032-88.484375-.730468-49.234375 38.304688-89.878906 87.527344-91.132813 3.195313-.09375 6.15625-1.703124 7.960938-4.339843 1.808594-2.636719 2.242187-5.984375 1.167968-8.992188-19.820312-56.734375 9.667969-118.855469 66.152344-139.363281 56.484375-20.511719 118.964844 8.222656 140.152344 64.457031.972656 2.605469 2.980469 4.691407 5.550781 5.757813 2.574219 1.054687 5.464844 1 7.992188-.164063 10.453125-4.859375 21.839843-7.382812 33.371093-7.390625 37.996094.066406 70.71875 26.835938 78.316407 64.066406 1.085937 5.410157 6.359375 8.910157 11.765625 7.824219 37.308594-7.539062 75.65625 6.789063 98.890625 36.9375 23.230469 30.148438 27.300781 70.882813 10.503906 105.039063-16.800781 34.15625-51.558594 55.785156-89.617187 55.785156h-9.988282c-5.515625 0-9.988281 4.472656-9.988281 9.988281s4.472656 9.988281 9.988281 9.988281h9.988282c44.53125.003907 85.390624-24.6875 106.101562-64.109374 20.710938-39.421876 17.859375-87.078126-7.410156-123.746094-25.269532-36.667969-68.789063-56.300782-113.003906-50.980469-12.886719-41.988281-51.628907-70.679687-95.546876-70.769531-10.933593-.003906-21.792968 1.8125-32.132812 5.367187-25.582031-55.296875-86.195312-85.339843-145.6875-72.2265622-59.5 13.1171872-101.855469 65.8593752-101.824219 126.7851562.007813 10.527344 1.316407 21.011719 3.894531 31.21875-56.695312 8.652344-97.203124 59.464844-92.988281 116.667969 4.207031 57.199218 51.714844 101.535156 109.070313 101.792968zm0 0" />
  <path
     style="fill:#727272;fill-opacity:1"
     id="path4"
     d="m207.242188 495.578125c1.207031.492187 2.492187.75 3.792968.746094 3.367188 0 6.507813-1.695313 8.355469-4.507813l118.078125-179.769531c2.015625-3.070313 2.183594-7.003906.433594-10.234375-1.753906-3.234375-5.136719-5.242188-8.8125-5.234375h-67.105469l16.867187-67.492187c.746094-2.984376.070313-6.144532-1.820312-8.5625-1.890625-2.421876-4.792969-3.84375-7.867188-3.84375h-79.894531c-4.296875.007812-8.109375 2.757812-9.472656 6.832031l-39.949219 119.847656c-1.011718 3.042969-.5 6.386719 1.375 8.992187 1.875 2.605469 4.886719 4.148438 8.097656 4.148438h77.679688l-25.75 127.839844c-.957031 4.695312 1.558594 9.414062 5.992188 11.238281zm-44.0625-159.050781 33.285156-99.871094h59.925781l-16.890625 67.496094c-.738281 2.980468-.070312 6.140625 1.820312 8.5625 1.890626 2.421875 4.792969 3.839844 7.871094 3.839844h61.382813l-79.574219 121.152343 17.980469-89.222656c.589843-2.933594-.164063-5.976563-2.0625-8.289063-1.890625-2.316406-4.722657-3.664062-7.714844-3.667968zm0 0" />
  <path
     style="fill:#727272;fill-opacity:1"
     id="path6"
     d="m438.949219 426.414062c0-31.699218-37.042969-97.4375-41.269531-104.867187-1.921876-2.910156-5.179688-4.667969-8.667969-4.667969-3.492188 0-6.75 1.757813-8.667969 4.667969-4.226562 7.429687-41.265625 73.167969-41.265625 104.867187 0 27.578126 22.351563 49.933594 49.933594 49.933594 27.578125 0 49.9375-22.355468 49.9375-49.933594zm-79.898438 0c0-17.660156 17.355469-54.820312 29.960938-78.957031 12.601562 24.136719 29.960937 61.296875 29.960937 78.957031 0 16.542969-13.414062 29.960938-29.960937 29.960938s-29.960938-13.417969-29.960938-29.960938zm0 0" />
  <path
     style="fill:#727272;fill-opacity:1"
     id="path8"
     d="m389.011719 196.707031c-27.582031 0-49.933594 22.359375-49.933594 49.933594 0 27.582031 22.351563 49.9375 49.933594 49.9375 27.578125 0 49.9375-22.355469 49.9375-49.9375-.035157-27.5625-22.375-49.898437-49.9375-49.933594zm0 79.898438c-16.546875 0-29.960938-13.417969-29.960938-29.964844 0-16.542969 13.414063-29.960937 29.960938-29.960937s29.960937 13.417968 29.960937 29.960937c0 16.546875-13.414062 29.964844-29.960937 29.964844zm0 0" />
</svg>
