<svg height="638pt" viewBox="-20 -79 638.67144 638" width="638pt" xmlns="http://www.w3.org/2000/svg"><path d="m478.90625 136.140625c-4.785156.007813-9.5625.292969-14.3125.863281-12.894531-41.988281-51.628906-70.679687-95.550781-70.773437-10.933594-.011719-21.789063 1.804687-32.121094 5.363281-25.578125-55.304688-86.195313-85.367188-145.699219-72.246094-59.511718 13.117188-101.867187 65.871094-101.824218 126.804688.003906 10.53125 1.316406 21.019531 3.890624 31.222656-56.695312 8.65625-97.203124 59.46875-92.988281 116.667969 4.207031 57.203125 51.71875 101.542969 109.070313 101.796875 5.515625 0 9.988281-4.46875 9.988281-9.988282 0-5.515624-4.472656-9.988281-9.988281-9.988281-49.238282.214844-89.472656-39.25-90.207032-88.484375-.730468-49.234375 38.304688-89.882812 87.53125-91.136718 3.195313-.085938 6.152344-1.703126 7.957032-4.339844 1.8125-2.636719 2.246094-5.980469 1.171875-8.992188-19.824219-56.730468 9.664062-118.855468 66.152343-139.367187 56.484376-20.507813 118.964844 8.226562 140.15625 64.460937.96875 2.609375 2.976563 4.691406 5.546876 5.753906 2.574218 1.0625 5.46875 1.003907 7.992187-.160156 10.457031-4.863281 21.84375-7.382812 33.371094-7.394531 38 .070313 70.722656 26.835937 78.3125 64.070313 1.085937 5.414062 6.359375 8.914062 11.765625 7.824218 6.511718-1.308594 13.136718-1.972656 19.785156-1.980468 55.160156 0 99.875 44.71875 99.875 99.875s-44.714844 99.871093-99.875 99.871093h-9.988281c-5.515625 0-9.988281 4.472657-9.988281 9.988281 0 5.519532 4.472656 9.988282 9.988281 9.988282h9.988281c66.191406 0 119.847656-53.660156 119.847656-119.847656 0-66.191407-53.65625-119.851563-119.847656-119.851563zm0 0"/><path d="m159.308594 455.738281c13.585937-.378906 27.042968 2.746094 39.074218 9.070313 14.664063 7.515625 30.96875 11.265625 47.449219 10.90625 16.480469.359375 32.792969-3.390625 47.46875-10.90625 12.039063-6.324219 25.507813-9.449219 39.109375-9.070313 13.597656-.378906 27.0625 2.746094 39.101563 9.070313 14.675781 7.519531 30.988281 11.265625 47.46875 10.90625 5.515625 0 9.988281-4.46875 9.988281-9.988282 0-5.515624-4.472656-9.988281-9.988281-9.988281-13.601563.378907-27.070313-2.742187-39.109375-9.066406-14.667969-7.519531-30.980469-11.265625-47.460938-10.910156-16.488281-.355469-32.804687 3.390625-47.476562 10.910156-12.042969 6.324219-25.511719 9.445313-39.101563 9.066406-13.585937.386719-27.042969-2.742187-39.074219-9.066406-14.667968-7.519531-30.976562-11.265625-47.449218-10.910156-5.515625 0-9.988282 4.472656-9.988282 9.988281 0 5.519531 4.472657 9.988281 9.988282 9.988281zm0 0"/><path d="m159.308594 335.890625c13.585937-.382813 27.042968 2.746094 39.074218 9.070313 14.664063 7.515624 30.96875 11.265624 47.449219 10.902343 16.480469.363281 32.792969-3.386719 47.46875-10.902343 12.039063-6.324219 25.507813-9.453126 39.109375-9.070313 13.597656-.382813 27.0625 2.746094 39.101563 9.070313 14.675781 7.519531 30.988281 11.265624 47.46875 10.902343 5.515625 0 9.988281-4.464843 9.988281-9.984375 0-5.515625-4.472656-9.988281-9.988281-9.988281-13.601563.378906-27.070313-2.742187-39.109375-9.066406-14.667969-7.519531-30.980469-11.265625-47.460938-10.910157-16.488281-.355468-32.804687 3.390626-47.476562 10.910157-12.042969 6.324219-25.511719 9.445312-39.101563 9.066406-13.585937.382813-27.042969-2.742187-39.074219-9.066406-14.667968-7.519531-30.976562-11.265625-47.449218-10.910157-5.515625 0-9.988282 4.472657-9.988282 9.988282 0 5.519531 4.472657 9.988281 9.988282 9.988281zm0 0"/><path d="m159.308594 275.964844c13.585937-.378906 27.042968 2.746094 39.074218 9.070312 14.664063 7.515625 30.96875 11.265625 47.449219 10.90625 16.480469.359375 32.792969-3.390625 47.46875-10.90625 12.039063-6.324218 25.507813-9.449218 39.109375-9.070312 13.597656-.378906 27.0625 2.746094 39.101563 9.070312 14.675781 7.519532 30.988281 11.265625 47.46875 10.90625 5.515625 0 9.988281-4.46875 9.988281-9.988281 0-5.515625-4.472656-9.988281-9.988281-9.988281-13.601563.378906-27.070313-2.742188-39.109375-9.066406-14.667969-7.519532-30.980469-11.265626-47.460938-10.90625-16.488281-.359376-32.804687 3.386718-47.476562 10.90625-12.042969 6.324218-25.511719 9.445312-39.101563 9.066406-13.585937.386718-27.042969-2.742188-39.074219-9.066406-14.667968-7.519532-30.976562-11.265626-47.449218-10.90625-5.515625 0-9.988282 4.46875-9.988282 9.984374 0 5.523438 4.472657 9.988282 9.988282 9.988282zm0 0"/><path d="m159.308594 395.8125c13.585937-.378906 27.042968 2.746094 39.074218 9.070312 14.664063 7.515626 30.96875 11.265626 47.449219 10.90625 16.480469.359376 32.792969-3.390624 47.46875-10.90625 12.039063-6.324218 25.507813-9.449218 39.109375-9.070312 13.597656-.378906 27.0625 2.746094 39.101563 9.070312 14.675781 7.523438 30.988281 11.265626 47.46875 10.90625 5.515625 0 9.988281-4.46875 9.988281-9.988281 0-5.515625-4.472656-9.988281-9.988281-9.988281-13.601563.382812-27.070313-2.738281-39.109375-9.0625-14.667969-7.523438-30.980469-11.265625-47.460938-10.910156-16.488281-.355469-32.804687 3.386718-47.476562 10.910156-12.042969 6.324219-25.511719 9.445312-39.101563 9.0625-13.585937.386719-27.042969-2.738281-39.074219-9.0625-14.667968-7.523438-30.976562-11.265625-47.449218-10.910156-5.515625 0-9.988282 4.472656-9.988282 9.988281 0 5.519531 4.472657 9.984375 9.988282 9.984375zm0 0"/></svg>