<svg height="640pt" viewBox="-20 -20 640 640" width="640pt" xmlns="http://www.w3.org/2000/svg"><path d="m300 600c165.683594 0 300-134.316406 300-300s-134.316406-300-300-300-300 134.316406-300 300c.1875 165.605469 134.394531 299.8125 300 300zm0-580c154.640625 0 280 125.359375 280 280s-125.359375 280-280 280-280-125.359375-280-280c.175781-154.566406 125.433594-279.824219 280-280zm0 0"/><path d="m160 450c1.699219 0 3.367188-.429688 4.847656-1.257812l180-100c.152344-.078126.222656-.230469.351563-.324219 1.175781-.960938 2.257812-2.042969 3.21875-3.21875.09375-.128907.246093-.199219.324219-.351563l100-180c2.15625-3.902344 1.46875-8.753906-1.679688-11.910156-3.15625-3.148438-8.007812-3.835938-11.910156-1.679688l-180 100c-.152344.078126-.222656.230469-.351563.324219-1.175781.960938-2.257812 2.042969-3.21875 3.21875-.09375.128907-.246093.199219-.324219.351563l-100 180c-1.71875 3.09375-1.667968 6.871094.128907 9.921875s5.074219 4.925781 8.613281 4.925781zm254.257812-264.257812-76.558593 137.808593-10.699219-10.699219c1.953125-4.003906 2.980469-8.398437 3-12.851562 0-16.566406-13.433594-30-30-30-4.453125.019531-8.847656 1.046875-12.851562 3l-10.699219-10.710938zm-151.996093 90.707031 10.707031 10.699219c-1.945312 4.003906-2.960938 8.398437-2.96875 12.851562 0 16.566406 13.433594 30 30 30 4.453125-.019531 8.847656-1.046875 12.851562-3l10.699219 10.710938-137.808593 76.546874zm0 0"/><path d="m300 100c5.523438 0 10-4.476562 10-10v-40c0-5.523438-4.476562-10-10-10s-10 4.476562-10 10v40c0 5.523438 4.476562 10 10 10zm0 0"/><path d="m300 500c-5.523438 0-10 4.476562-10 10v40c0 5.523438 4.476562 10 10 10s10-4.476562 10-10v-40c0-5.523438-4.476562-10-10-10zm0 0"/><path d="m510 310h40c5.523438 0 10-4.476562 10-10s-4.476562-10-10-10h-40c-5.523438 0-10 4.476562-10 10s4.476562 10 10 10zm0 0"/><path d="m90 290h-40c-5.523438 0-10 4.476562-10 10s4.476562 10 10 10h40c5.523438 0 10-4.476562 10-10s-4.476562-10-10-10zm0 0"/></svg>