<svg height="640pt" viewBox="-20 -80 640 640" width="640pt" xmlns="http://www.w3.org/2000/svg"><path d="m145.515625 136c19.113281 0 28.464844-13.472656 36.003906-24.300781 7-10 11.3125-15.699219 19.558594-15.699219 8.253906 0 12.59375 5.667969 19.5625 15.699219 7.507813 10.820312 16.859375 24.300781 36 24.300781s28.480469-13.480469 36-24.300781c7-10 11.300781-15.699219 19.550781-15.699219 8.246094 0 12.597656 5.667969 19.558594 15.699219 7.515625 10.820312 16.867188 24.300781 36 24.300781 19.128906 0 28.460938-13.480469 36-24.300781 7-10 11.296875-15.699219 19.539062-15.699219 8.238282 0 12.609376 5.667969 19.582032 15.699219 7.519531 10.828125 16.878906 24.300781 36 24.300781 19.117187 0 28.488281-13.472656 35.996094-24.292969 7.003906-10 11.324218-15.707031 19.601562-15.707031 8.28125 0 12.621094 5.667969 19.589844 15.699219 7.441406 10.828125 16.808594 24.300781 35.941406 24.300781 5.523438 0 10-4.476562 10-10s-4.476562-10-10-10c-8.273438 0-12.621094-5.667969-19.589844-15.699219-7.519531-10.828125-16.878906-24.300781-36-24.300781s-28.492187 13.472656-36.003906 24.300781c-6.996094 10-11.316406 15.699219-19.585938 15.699219-8.269531 0-12.609374-5.667969-19.570312-15.699219-7.523438-10.820312-16.882812-24.300781-36-24.300781s-28.449219 13.472656-36 24.300781c-7 10-11.296875 15.699219-19.550781 15.699219-8.25 0-12.613281-5.667969-19.570313-15.699219-7.519531-10.828125-16.878906-24.300781-36-24.300781s-28.464844 13.472656-36 24.300781c-6.996094 10-11.308594 15.699219-19.558594 15.699219s-12.601562-5.667969-19.558593-15.699219c-7.511719-10.828125-16.859375-24.300781-36-24.300781s-28.472657 13.480469-36.003907 24.300781c-7 10-11.296874 15.699219-19.546874 15.699219s-12.617188-5.660156-19.601563-15.679688c-4.398437-7.035156-10.054687-13.207031-16.679687-18.203124-25.058594-50.820313-55.992188-86.117188-99.179688-86.117188-5.523438 0-10 4.476562-10 10s4.476562 10 10 10c34.492188 0 60.742188 31.765625 82.929688 77.929688 2.183593 4.539062 4.320312 9.238281 6.429687 14.0625.296875.679687.601563 1.347656.898437 1.996093 2.164063 4.996094 4.289063 10.109375 6.382813 15.34375l.5625 1.367188c2.195313 5.558593 4.375 11.230469 6.527344 17l.078125.210937c5.847656 15.769532 11.460937 32.320313 17.003906 49.101563 4.6875 14.371093 9.328125 28.941406 13.929688 43.570312l.757812 2.386719c34.429688 109.222656 70 221.945312 140.0625 235.601562 2.335938.449219 4.707031.800782 7.128906 1 2.421875.199219 4.816406.429688 7.308594.429688h290c5.523438 0 10-4.476562 10-10s-4.476562-10-10-10h-290c-3.992188.003906-7.976562-.429688-11.878906-1.296875-6.996094-1.636719-13.644532-4.503906-19.628906-8.472656-1.640626-1.058594-3.261719-2.1875-4.863282-3.410157-2.582031-1.945312-5.066406-4.039062-7.425781-6.25-39.164063-37-65.742187-121.351562-91.664063-203.578124-3.890624-12.335938-7.789062-24.703126-11.761718-37l-.207032-.671876c12.449219-3.625 22.890626-12.15625 28.917969-23.640624 7.003907-10 11.308594-15.699219 19.5625-15.699219 8.25 0 12.585938 5.667969 19.558594 15.699219 7.511719 10.820312 16.859375 24.300781 36 24.300781s28.476563-13.480469 36.003906-24.300781c6.996094-10 11.296875-15.699219 19.542969-15.699219 8.253906 0 12.605469 5.667969 19.5625 15.699219 7.519531 10.820312 16.871094 24.300781 36 24.300781 19.132812 0 28.460938-13.480469 36-24.300781 7-10 11.300781-15.699219 19.542969-15.699219 8.238281 0 12.605469 5.667969 19.582031 15.699219 7.515625 10.828124 16.878906 24.300781 35.992188 24.300781 19.125 0 28.492187-13.472657 36.003906-24.292969 7-10 11.324218-15.707031 19.597656-15.707031 8.28125 0 12.625 5.667969 19.589844 15.699219 7.472656 10.847656 16.839844 24.320312 35.972656 24.320312 5.523438 0 10-4.476562 10-10s-4.476562-10-10-10c-8.273438 0-12.621094-5.667969-19.589844-15.699219-7.519531-10.828125-16.878906-24.300781-36-24.300781s-28.492187 13.472656-36.003906 24.300781c-6.996094 10-11.316406 15.699219-19.585938 15.699219-8.269531 0-12.609374-5.667969-19.570312-15.699219-7.523438-10.820312-16.882812-24.300781-36-24.300781s-28.449219 13.472656-36 24.300781c-7 10-11.296875 15.699219-19.550781 15.699219-8.25 0-12.613281-5.667969-19.570313-15.699219-7.519531-10.828125-16.878906-24.300781-36-24.300781s-28.464844 13.472656-36 24.300781c-6.996094 10-11.308594 15.699219-19.558594 15.699219s-12.601562-5.667969-19.558593-15.699219c-7.511719-10.828125-16.859375-24.300781-36-24.300781s-28.472657 13.480469-36.003907 24.300781c-6.757812 9.726563-11.105468 15.25-18.890624 15.578125-4.609376-13.789062-9.324219-27.332031-14.226563-40.421875-.308594-.820312-.601563-1.6875-.910156-2.507812 4.5625 2.074219 9.527343 3.113281 14.535156 3.050781zm0 0"/><path d="m420 326c5.523438 0 10-4.476562 10-10v-55.859375l22.929688 22.929687c3.925781 3.789063 10.160156 3.734376 14.019531-.121093 3.855469-3.859375 3.910156-10.09375.121093-14.019531l-40-40c-.933593-.933594-2.039062-1.671876-3.261718-2.167969-2.445313-1.011719-5.191406-1.011719-7.636719 0-1.21875.496093-2.328125 1.234375-3.261719 2.167969l-40 40c-3.789062 3.925781-3.734375 10.160156.121094 14.019531 3.859375 3.855469 10.09375 3.910156 14.019531.121093l22.949219-22.929687v55.859375c0 5.523438 4.476562 10 10 10zm0 0"/></svg>