<svg height="640pt" viewBox="-20 -80 640 640" width="640pt" xmlns="http://www.w3.org/2000/svg"><path d="m430 46c-5.523438 0-10 4.476562-10 10v55.859375l-22.929688-22.929687c-3.925781-3.789063-10.160156-3.734376-14.019531.121093-3.855469 3.859375-3.910156 10.09375-.121093 14.019531l40 40c1.875 1.878907 4.421874 2.9375 7.078124 2.9375s5.207032-1.058593 7.082032-2.9375l40-40c3.789062-3.925781 3.734375-10.160156-.121094-14.019531-3.859375-3.855469-10.09375-3.910156-14.019531-.121093l-22.949219 22.929687v-55.859375c0-5.523438-4.476562-10-10-10zm0 0"/><path d="m181.449219 231.679688c7.003906-10 11.328125-15.679688 19.601562-15.679688 8.269531 0 12.585938 5.667969 19.558594 15.699219 7.511719 10.820312 16.859375 24.300781 36 24.300781s28.476563-13.480469 36.003906-24.300781c6.996094-10 11.296875-15.699219 19.542969-15.699219 8.253906 0 12.605469 5.667969 19.5625 15.699219 7.519531 10.820312 16.871094 24.300781 36 24.300781 19.132812 0 28.460938-13.480469 36-24.300781 7-10 11.300781-15.699219 19.542969-15.699219 8.238281 0 12.605469 5.667969 19.582031 15.699219 7.515625 10.828125 16.878906 24.300781 35.992188 24.300781 19.125 0 28.492187-13.472656 36.003906-24.292969 7-10 11.324218-15.707031 19.597656-15.707031 8.28125 0 12.625 5.667969 19.589844 15.699219 7.472656 10.828125 16.839844 24.300781 35.972656 24.300781 5.523438 0 10-4.476562 10-10s-4.476562-10-10-10c-8.273438 0-12.621094-5.667969-19.589844-15.699219-7.519531-10.828125-16.878906-24.300781-36-24.300781s-28.492187 13.472656-36.003906 24.300781c-6.996094 10-11.316406 15.699219-19.585938 15.699219-8.269531 0-12.609374-5.667969-19.570312-15.699219-7.523438-10.820312-16.882812-24.300781-36-24.300781s-28.449219 13.472656-36 24.300781c-7 10-11.296875 15.699219-19.550781 15.699219-8.25 0-12.613281-5.667969-19.570313-15.699219-7.519531-10.828125-16.878906-24.300781-36-24.300781s-28.464844 13.472656-36 24.300781c-6.996094 10-11.308594 15.699219-19.558594 15.699219s-12.601562-5.667969-19.558593-15.699219c-7.511719-10.828125-16.859375-24.300781-36-24.300781s-28.480469 13.453125-36.003907 24.25c-1.046874 1.511719-2.085937 3-3.128906 4.414062-35.878906-113.863281-73.949218-228.664062-151.878906-228.664062-5.523438 0-10 4.476562-10 10s4.476562 10 10 10c65.171875 0 100.898438 113.367188 135.460938 223 .730468 2.320312 1.46875 4.652344 2.199218 7 33.648438 106.660156 68.398438 216.699219 139.191406 228.828125l.734376.101563c4.101562.6875 8.253906 1.046874 12.414062 1.070312h290c5.523438 0 10-4.476562 10-10s-4.476562-10-10-10h-290c-2.65625-.03125-5.308594-.242188-7.929688-.648438-.898437-.132812-1.800781-.257812-2.699218-.441406-1.730469-.339844-3.441406-.808594-5.144532-1.3125-2.210937-.660156-4.386718-1.449218-6.507812-2.367187l-.5625-.25c-15.378906-7.90625-28.421875-19.710938-37.816406-34.230469l-.730469-1c-.996094-1.4375-2-2.9375-3-4.441406-.53125-.808594-1.070313-1.605469-1.601563-2.425782-.6875-1.070312-1.355468-2.183593-1.996093-3.28125-.859375-1.394531-1.722657-2.78125-2.5625-4.210937-.339844-.570313-.667969-1.164063-.996094-1.726563-3.414063-5.90625-6.714844-12.175781-9.933594-18.742187-.847656-1.742187-1.707031-3.472656-2.546875-5.265625-.839844-1.785156-1.601562-3.398438-2.394531-5.132812-1.71875-3.773438-3.417969-7.613282-5.105469-11.59375-.351562-.8125-.695312-1.640626-1.003906-2.46875-4.039062-9.621094-8.039062-19.792969-12-30.519532l-.160156-.410156c-1.890625-5.152344-3.78125-10.4375-5.660156-15.820312l-1.078126-3.082032c-1.660156-4.777344-3.328124-9.648437-5-14.609375-.242187-.730469-.480468-1.457031-.726562-2.191406 6.15625-8.828125 10.484375-13.828125 18.207031-13.828125 8.261719 0 12.585938 5.667969 19.558594 15.699219 7.511719 10.820312 16.859375 24.300781 36 24.300781s28.476563-13.480469 36.003906-24.300781c6.996094-10 11.296875-15.699219 19.542969-15.699219 8.253906 0 12.605469 5.667969 19.5625 15.699219 7.519531 10.820312 16.871094 24.300781 36 24.300781 19.132812 0 28.460938-13.480469 36-24.300781 7-10 11.300781-15.699219 19.542969-15.699219 8.238281 0 12.605469 5.667969 19.582031 15.699219 7.515625 10.828125 16.878906 24.300781 35.992188 24.300781 19.125 0 28.492187-13.472656 36.003906-24.292969 7-10 11.324218-15.707031 19.597656-15.707031 8.28125 0 12.625 5.667969 19.589844 15.699219 7.472656 10.828125 16.839844 24.300781 35.972656 24.300781 5.523438 0 10-4.476562 10-10s-4.476562-10-10-10c-8.273438 0-12.621094-5.667969-19.589844-15.699219-7.519531-10.828125-16.878906-24.300781-36-24.300781s-28.492187 13.472656-36.003906 24.300781c-6.996094 10-11.316406 15.699219-19.585938 15.699219-8.269531 0-12.609374-5.667969-19.570312-15.699219-7.523438-10.820312-16.882812-24.300781-36-24.300781s-28.449219 13.472656-36 24.300781c-7 10-11.296875 15.699219-19.550781 15.699219-8.25 0-12.613281-5.667969-19.570313-15.699219-7.519531-10.828125-16.878906-24.300781-36-24.300781s-28.464844 13.472656-36 24.300781c-6.996094 10-11.308594 15.699219-19.558594 15.699219s-12.601562-5.667969-19.558593-15.699219c-7.511719-10.828125-16.859375-24.300781-36-24.300781-9.753907-.0625-19.074219 4.003906-25.652344 11.203125-2.164063-6.765625-4.324219-13.542969-6.476563-20.34375 4.773438-4.539063 8.992188-9.640625 12.566407-15.179687zm0 0"/></svg>