<svg height="638pt" viewBox="-20 -45 638.66662 638" width="638pt" xmlns="http://www.w3.org/2000/svg"><path d="m583.183594 174.914062c-12.261719 8.117188-26.753906 12.21875-41.449219 11.714844-45.195313-1.21875-80.890625-38.757812-79.835937-83.949218.058593-35.066407 21.152343-66.664063 53.507812-80.167969 3.921875-1.523438 6.460938-5.347657 6.355469-9.554688-.109375-4.203125-2.84375-7.894531-6.832031-9.214843-13.539063-3.7929692-27.574219-5.480469-41.625-4.988282-73.898438 0-134.011719 62.667969-134.011719 139.707032 0 2.488281.097656 4.992187.257812 7.6875-4.597656.8125-9.128906 1.953124-13.570312 3.410156-21.183594-43.460938-65.320313-71.015625-113.671875-70.972656-68.632813-.609376-124.816406 54.445312-125.597656 123.074218.011718 9.757813 1.226562 19.476563 3.609374 28.941406-51.605468 6.964844-90.160156 50.9375-90.320312 103.011719 0 56.492188 50.265625 104.226563 109.769531 104.226563 5.511719 0 9.980469-4.46875 9.980469-9.980469s-4.46875-9.976563-9.980469-9.976563c-48.6875 0-89.8125-38.59375-89.8125-84.269531.371094-46.1875 37.636719-83.589843 83.824219-84.132812 3.207031-.089844 6.175781-1.71875 7.972656-4.371094 1.804688-2.652344 2.21875-6.011719 1.121094-9.023437-4.058594-11.027344-6.148438-22.675782-6.179688-34.425782.777344-57.601562 48.007813-103.71875 105.613282-103.113281 43.730468-.121094 83.046875 26.632813 98.980468 67.359375.980469 2.570312 2.972657 4.628906 5.515626 5.679688 2.546874 1.054687 5.410156 1.011718 7.917968-.125 8.304688-3.734376 17.195313-5.980469 26.273438-6.636719h.105468l.996094-.070313c1.585938-.09375 3.164063-.257812 4.773438-.257812 36.113281-.257813 67.488281 24.792968 75.226562 60.078125 1.105469 5.367187 6.332032 8.84375 11.710938 7.78125 3.574218-.6875 7.191406-1.175781 10.824218-1.457031 1-.089844 1.996094-.097657 2.992188-.148438 2.707031-.140625 5.410156-.1875 8.105469-.109375.996093 0 2.054687.085937 3.082031.148437 2.925781.191407 5.828125.480469 8.722656.925782.640625.09375 1.277344.171875 1.914063.285156 10.925781 1.890625 21.449219 5.617188 31.128906 11.023438.6875.386718 1.355469.796874 1.992187 1.207031 2.367188 1.398437 4.664063 2.914062 6.910157 4.519531.867187.621094 1.734375 1.230469 2.582031 1.875 2.238281 1.726562 4.390625 3.5625 6.476562 5.484375 19.21875 17.421875 30.214844 42.132813 30.296876 68.074219-.707032 52.359375-43.648438 94.265625-96.011719 93.699218h-13.757813c-5.511718 0-9.980468 4.464844-9.980468 9.976563s4.46875 9.980469 9.980468 9.980469h13.757813c63.378906.558594 115.253906-50.28125 115.96875-113.65625-.007813-26.585938-9.5-52.296875-26.765625-72.519532 21.527344-16.707031 37.609375-39.4375 46.195312-65.304687 1.375-4.050781.003906-8.535156-3.402344-11.132813-3.40625-2.589843-8.089843-2.726562-11.636718-.332031zm-45.441406 62.5625c-.273438-.21875-.558594-.410156-.828126-.628906-.683593-.550781-1.398437-1.046875-2.101562-1.597656-2.140625-1.675781-4.316406-3.304688-6.5625-4.820312-.796875-.53125-1.625-1-2.4375-1.535157-2.234375-1.417969-4.484375-2.785156-6.804688-4.054687-.898437-.488282-1.824218-.945313-2.742187-1.417969-2.285156-1.164063-4.59375-2.265625-6.984375-3.277344-1-.445312-2.074219-.875-3.125-1.28125-2.304688-.917969-4.632812-1.753906-6.984375-2.515625-1.152344-.378906-2.296875-.734375-3.464844-1.078125-2.335937-.675781-4.699219-1.265625-7.09375-1.796875-1.21875-.269531-2.421875-.566406-3.660156-.804687-2.503906-.472657-4.992187-.816407-7.585937-1.140625-1.136719-.140625-2.257813-.324219-3.402344-.4375-3.695313-.339844-7.40625-.550782-11.160156-.550782-4.546876 0-9.085938.261719-13.597657.789063-.769531-2.425781-1.636719-4.808594-2.589843-7.144531-.304688-.75-.675782-1.464844-.996094-2.207032-.6875-1.5625-1.355469-3.132812-2.125-4.636718-.4375-.878906-.945313-1.707032-1.417969-2.5625-.726563-1.339844-1.4375-2.675782-2.222656-3.996094-.558594-.917969-1.1875-1.785156-1.777344-2.683594-.78125-1.175781-1.527344-2.363281-2.355469-3.5-.667968-.921875-1.386718-1.789062-2.085937-2.675781-.828125-1.066406-1.636719-2.148437-2.511719-3.175781-.882812-1.027344-1.558594-1.707032-2.351562-2.5625-.78125-.859375-1.753907-2-2.667969-2.886719-.921875-.886719-1.71875-1.617187-2.589844-2.421875-.867187-.808594-1.875-1.789062-2.851563-2.636719-.976562-.847656-1.859374-1.496093-2.785156-2.246093-.925781-.75-1.996094-1.625-2.992187-2.382813-.996094-.757813-1.996094-1.367187-2.996094-1.996094-1-.628906-2.09375-1.457031-3.179687-2.132812-1.089844-.683594-2.085938-1.230469-3.132813-1.828125-1.050781-.601563-2.21875-1.296875-3.355469-1.894532-1.140625-.601562-2.167968-1.058593-3.253906-1.582031-1.085938-.515625-2.332031-1.125-3.53125-1.636719-1.199219-.503906-2.226562-.886718-3.355469-1.324218-1.128906-.4375-2.453125-1-3.703125-1.390625-1.246094-.386719-2.273437-.703125-3.417968-1.046875-1.152344-.335938-2.570313-.773438-3.875-1.113282-1.144532-.289062-2.3125-.53125-3.484376-.78125-1.335937-.289062-2.664062-.589843-3.988281-.820312-1.171875-.199219-2.355469-.34375-3.535156-.503906-1.378906-.191406-2.761719-.382813-4.160156-.511719-1.167969-.109375-2.34375-.167969-3.523438-.230469-1-.058594-1.992187-.171875-2.921875-.199218-.164062-2.164063-.222656-4.160157-.222656-6.15625 0-66.03125 51.164062-119.75 114.054688-119.75 2.945312 0 5.984374 0 9.097656.136718-25.351563 20.476563-40.203125 51.238282-40.460938 83.832032-.910156 31.820312 13.234375 62.21875 38.164063 82.019531 24.925781 19.808593 57.734375 26.707031 88.53125 18.628906-7.875 13.359375-18.386719 24.976563-30.894531 34.148437zm0 0"/><path d="m139.710938 487.734375c0 5.511719 4.464843 9.980469 9.976562 9.980469h25.804688l-22.878907 22.882812c-2.59375 2.503906-3.636719 6.210938-2.71875 9.699219.910157 3.488281 3.632813 6.21875 7.121094 7.128906 3.488281.914063 7.203125-.125 9.707031-2.71875l22.882813-22.882812v25.808593c0 5.511719 4.46875 9.976563 9.980469 9.976563 5.507812 0 9.976562-4.464844 9.976562-9.976563v-25.808593l22.882812 22.882812c3.917969 3.78125 10.140626 3.730469 13.988282-.121093 3.851562-3.847657 3.90625-10.078126.125-13.988282l-22.882813-22.882812h25.804688c5.511719 0 9.980469-4.46875 9.980469-9.980469s-4.46875-9.976563-9.980469-9.976563h-25.804688l22.882813-22.882812c3.78125-3.917969 3.726562-10.140625-.125-13.988281-3.847656-3.851563-10.070313-3.90625-13.988282-.125l-22.882812 22.882812v-25.804687c0-5.511719-4.46875-9.980469-9.976562-9.980469-5.511719 0-9.980469 4.46875-9.980469 9.980469v25.804687l-22.882813-22.882812c-3.917968-3.78125-10.140625-3.726563-13.988281.125-3.851563 3.847656-3.902344 10.070312-.121094 13.988281l22.878907 22.882812h-25.804688c-5.511719 0-9.976562 4.464844-9.976562 9.976563zm0 0"/><path d="m359.25 407.902344c-5.507812 0-9.976562 4.46875-9.976562 9.980468v25.804688l-22.882813-22.882812c-3.917969-3.78125-10.140625-3.726563-13.988281.121093-3.851563 3.851563-3.902344 10.074219-.121094 13.988281l22.878906 22.882813h-25.804687c-5.511719 0-9.980469 4.46875-9.980469 9.980469 0 5.511718 4.46875 9.980468 9.980469 9.980468h25.804687l-22.878906 22.878907c-2.59375 2.507812-3.636719 6.214843-2.722656 9.703125.914062 3.488281 3.636718 6.21875 7.125 7.128906 3.488281.910156 7.203125-.125 9.707031-2.71875l22.882813-22.882812v25.804687c0 5.511719 4.46875 9.980469 9.976562 9.980469 5.511719 0 9.980469-4.46875 9.980469-9.980469v-25.804687l22.882812 22.882812c3.917969 3.78125 10.140625 3.726562 13.988281-.121094 3.851563-3.851562 3.902344-10.078125.121094-13.992187l-22.878906-22.878907h25.804688c5.511718 0 9.980468-4.46875 9.980468-9.980468 0-5.511719-4.46875-9.980469-9.980468-9.980469h-25.804688l22.878906-22.882813c3.78125-3.914062 3.730469-10.136718-.121094-13.988281-3.847656-3.847656-10.070312-3.902343-13.988281-.121093l-22.882812 22.882812v-25.804688c0-5.511718-4.46875-9.980468-9.980469-9.980468zm0 0"/><path d="m199.585938 348.027344c0 5.511718 4.464843 9.976562 9.976562 9.976562h25.808594l-22.882813 22.882813c-2.59375 2.503906-3.636719 6.214843-2.71875 9.703125.910157 3.488281 3.632813 6.21875 7.121094 7.128906 3.492187.910156 7.203125-.128906 9.707031-2.71875l22.882813-22.882812v25.804687c0 5.511719 4.46875 9.980469 9.980469 9.980469 5.507812 0 9.976562-4.46875 9.976562-9.980469v-25.804687l22.882812 22.882812c3.917969 3.78125 10.140626 3.726562 13.988282-.121094 3.851562-3.851562 3.90625-10.078125.125-13.992187l-22.882813-22.882813h25.804688c5.511719 0 9.980469-4.464844 9.980469-9.976562 0-5.511719-4.46875-9.980469-9.980469-9.980469h-25.804688l22.882813-22.882813c3.78125-3.917968 3.726562-10.140624-.125-13.988281-3.847656-3.847656-10.070313-3.902343-13.988282-.121093l-22.882812 22.882812v-25.808594c0-5.507812-4.46875-9.976562-9.976562-9.976562-5.511719 0-9.980469 4.46875-9.980469 9.976562v25.808594l-22.882813-22.882812c-3.917968-3.78125-10.140625-3.726563-13.988281.121093-3.851563 3.847657-3.902344 10.070313-.121094 13.988281l22.882813 22.882813h-25.808594c-5.511719 0-9.976562 4.46875-9.976562 9.980469zm0 0"/></svg>