<svg height="638pt" viewBox="-20 -40 638.66662 638" width="638pt" xmlns="http://www.w3.org/2000/svg"><path d="m583.183594 175.164062c-12.261719 8.117188-26.753906 12.214844-41.449219 11.714844-45.195313-1.21875-80.890625-38.757812-79.835937-83.953125.058593-35.0625 21.152343-66.660156 53.507812-80.164062 3.921875-1.523438 6.460938-5.347657 6.355469-9.554688-.109375-4.207031-2.84375-7.894531-6.832031-9.214843-13.539063-3.796876-27.574219-5.480469-41.625-4.988282-73.898438 0-134.011719 62.667969-134.011719 139.707032 0 2.488281.097656 4.992187.257812 7.6875-4.597656.8125-9.128906 1.953124-13.570312 3.410156-21.183594-43.460938-65.320313-71.015625-113.671875-70.972656-68.632813-.609376-124.816406 54.441406-125.597656 123.074218.011718 9.753906 1.226562 19.476563 3.609374 28.9375-51.605468 6.96875-90.160156 50.941406-90.320312 103.015625.65625 58.109375 48.214844 104.726563 106.328125 104.226563 5.515625 0 9.976563-4.46875 9.976563-9.980469s-4.460938-9.980469-9.976563-9.980469c-30.300781.800782-58.699219-14.746094-74.34375-40.710937-15.652344-25.960938-16.136719-58.328125-1.28125-84.75s42.765625-42.824219 73.078125-42.9375c3.207031-.09375 6.175781-1.71875 7.972656-4.371094 1.804688-2.65625 2.21875-6.011719 1.121094-9.023437-4.058594-11.027344-6.148438-22.675782-6.179688-34.425782.777344-57.605468 48.007813-103.71875 105.613282-103.113281 43.730468-.125 83.046875 26.632813 98.980468 67.359375.980469 2.570312 2.972657 4.628906 5.515626 5.679688 2.546874 1.054687 5.410156 1.007812 7.917968-.125 8.304688-3.734376 17.195313-5.980469 26.273438-6.636719h.105468l.996094-.070313c1.585938-.097656 3.164063-.257812 4.773438-.257812 36.113281-.257813 67.488281 24.792968 75.226562 60.074218 1.105469 5.371094 6.332032 8.84375 11.710938 7.785157 3.597656-.695313 7.238281-1.179688 10.894531-1.457031.921875-.078126 1.847656-.089844 2.761719-.136719 2.816406-.152344 5.628906-.199219 8.433594-.113281.925781 0 1.859374.078124 2.773437.140624 3.066406.179688 6.121094.488282 9.152344 1l1.507812.21875c11 1.886719 21.601563 5.636719 31.34375 11.085938.628907.359375 1.238281.734375 1.855469 1.105469 2.425781 1.425781 4.769531 2.996093 7.066406 4.609375.835938.609375 1.683594 1.207031 2.503906 1.835937 2.253907 1.730469 4.425782 3.574219 6.527344 5.503907 19.171875 17.433593 30.128906 42.121093 30.207032 68.035156-.707032 52.355468-43.648438 94.265625-96.011719 93.695312-5.511719 0-9.976563 4.46875-9.976563 9.980469s4.464844 9.980469 9.976563 9.980469c63.378906.558594 115.253906-50.28125 115.96875-113.65625-.007813-26.585938-9.5-52.296875-26.765625-72.519532 21.527344-16.707031 37.609375-39.4375 46.195312-65.304687 1.375-4.054687.003906-8.535156-3.402344-11.132813-3.40625-2.59375-8.089843-2.730468-11.636718-.332031zm-45.441406 62.5625c-.273438-.222656-.558594-.410156-.828126-.628906-.683593-.550781-1.398437-1.050781-2.101562-1.597656-2.140625-1.679688-4.316406-3.304688-6.5625-4.820312-.796875-.53125-1.625-1-2.4375-1.535157-2.234375-1.417969-4.484375-2.789062-6.804688-4.054687-.898437-.488282-1.824218-.945313-2.742187-1.417969-2.285156-1.164063-4.59375-2.265625-6.984375-3.277344-1-.445312-2.074219-.875-3.125-1.285156-2.304688-.914063-4.632812-1.753906-6.984375-2.511719-1.152344-.378906-2.296875-.738281-3.464844-1.078125-2.335937-.675781-4.699219-1.265625-7.09375-1.796875-1.21875-.269531-2.421875-.566406-3.660156-.804687-2.503906-.472657-4.992187-.820313-7.585937-1.140625-1.136719-.140625-2.257813-.324219-3.402344-.4375-3.695313-.339844-7.40625-.550782-11.160156-.550782-4.546876 0-9.085938.261719-13.597657.789063-.769531-2.425781-1.636719-4.808594-2.589843-7.144531-.304688-.75-.675782-1.464844-.996094-2.207032-.6875-1.5625-1.355469-3.132812-2.125-4.636718-.4375-.878906-.945313-1.707032-1.417969-2.5625-.726563-1.339844-1.4375-2.675782-2.222656-3.996094-.558594-.917969-1.1875-1.785156-1.777344-2.6875-.78125-1.171875-1.527344-2.363281-2.355469-3.496094-.667968-.921875-1.386718-1.789062-2.085937-2.675781-.828125-1.066406-1.636719-2.148437-2.511719-3.175781-.882812-1.03125-1.558594-1.707032-2.351562-2.566406-.78125-.855469-1.753907-1.996094-2.667969-2.882813-.921875-.886719-1.71875-1.617187-2.589844-2.421875-.867187-.808594-1.875-1.789062-2.851563-2.636719-.976562-.847656-1.859374-1.496093-2.785156-2.246093-.925781-.75-1.996094-1.625-2.992187-2.382813-.996094-.757813-1.996094-1.367187-2.996094-1.996094-1-.628906-2.09375-1.457031-3.179687-2.136719-1.089844-.679687-2.085938-1.226562-3.132813-1.824218-1.050781-.601563-2.21875-1.296875-3.355469-1.898438-1.140625-.597656-2.167968-1.054687-3.253906-1.578125-1.085938-.515625-2.332031-1.125-3.53125-1.636719-1.199219-.507812-2.226562-.886718-3.355469-1.324218-1.128906-.4375-2.453125-1-3.703125-1.390625-1.246094-.386719-2.273437-.707031-3.417968-1.046875-1.152344-.335938-2.570313-.773438-3.875-1.117188-1.144532-.285156-2.3125-.53125-3.484376-.777344-1.335937-.289062-2.664062-.589843-3.988281-.820312-1.171875-.199219-2.355469-.34375-3.535156-.503906-1.378906-.191406-2.761719-.382813-4.160156-.511719-1.167969-.109375-2.34375-.167969-3.523438-.230469-1-.058594-1.992187-.171875-2.921875-.199218-.164062-2.164063-.222656-4.160157-.222656-6.15625 0-66.03125 51.164062-119.75 114.054688-119.75 2.945312 0 5.984374 0 9.097656.136718-25.351563 20.476563-40.203125 51.238282-40.460938 83.828125-.910156 31.824219 13.234375 62.222657 38.164063 82.023438 24.925781 19.808593 57.734375 26.707031 88.53125 18.628906-7.875 13.359375-18.386719 24.976563-30.894531 34.148437zm0 0"/><path d="m327.199219 282.261719c-1.890625-2.421875-4.789063-3.839844-7.863281-3.839844h-79.835938c-4.292969 0-8.101562 2.753906-9.460938 6.820313l-39.917968 119.75c-1.007813 3.046874-.5 6.390624 1.375 8.992187 1.871094 2.601563 4.882812 4.140625 8.089844 4.144531h77.613281l-25.722657 127.734375c-.945312 4.683594 1.570313 9.378907 5.984376 11.195313 1.203124.5 2.496093.75 3.796874.75 3.355469 0 6.496094-1.695313 8.34375-4.5l117.980469-179.625c2.003907-3.070313 2.15625-6.988282.414063-10.210938-1.75-3.21875-5.121094-5.222656-8.785156-5.21875h-67.054688l16.859375-67.441406c.742187-2.976562.070313-6.128906-1.816406-8.550781zm33.507812 95.953125-79.5 121.054687 17.960938-89.15625c.589843-2.925781-.167969-5.96875-2.0625-8.28125-1.890625-2.316406-4.722657-3.65625-7.707031-3.660156h-75.960938l33.261719-99.792969h59.875l-16.878907 67.4375c-.742187 2.984375-.074218 6.136719 1.816407 8.558594s4.796875 3.832031 7.863281 3.839844zm0 0"/></svg>