<svg height="638pt" viewBox="-20 -50 638.66662 638" width="638pt" xmlns="http://www.w3.org/2000/svg"><path d="m106.328125 437.507812c5.515625 0 9.976563-4.46875 9.976563-9.980468 0-5.511719-4.460938-9.980469-9.976563-9.980469-30.300781.800781-58.699219-14.75-74.34375-40.710937-15.652344-25.960938-16.136719-58.328126-1.28125-84.75 14.855469-26.421876 42.765625-42.824219 73.078125-42.9375 3.207031-.09375 6.175781-1.71875 7.972656-4.371094 1.804688-2.65625 2.21875-6.011719 1.121094-9.023438-4.058594-11.027344-6.148438-22.675781-6.179688-34.425781.777344-57.605469 48.007813-103.71875 105.613282-103.113281 43.730468-.125 83.046875 26.632812 98.980468 67.359375.980469 2.570312 2.972657 4.628906 5.515626 5.679687 2.546874 1.054688 5.410156 1.007813 7.917968-.125 8.300782-3.734375 17.191406-5.980468 26.265625-6.636718h.113281l.996094-.070313c1.585938-.097656 3.164063-.257813 4.773438-.257813 36.113281-.257812 67.488281 24.792969 75.226562 60.074219 1.105469 5.371094 6.332032 8.84375 11.710938 7.785157 3.59375-.695313 7.230468-1.179688 10.882812-1.457032.933594-.078125 1.847656-.089844 2.773438-.136718 2.816406-.152344 5.628906-.210938 8.433594-.113282.925781 0 1.847656.078125 2.765624.132813 3.074219.1875 6.136719.496093 9.179688.992187.480469.074219.996094.132813 1.457031.222656 11.015625 1.886719 21.632813 5.640626 31.382813 11.097657.621094.351562 1.21875.714843 1.828125 1.074219 2.4375 1.4375 4.789062 3 7.09375 4.640624.839843.597657 1.675781 1.1875 2.484375 1.816407 2.265625 1.726562 4.4375 3.582031 6.539062 5.523437 19.175782 17.429688 30.140625 42.121094 30.207032 68.035156-.707032 52.355469-43.648438 94.265626-96.011719 93.695313-5.511719 0-9.976563 4.46875-9.976563 9.980469 0 5.511718 4.464844 9.980468 9.976563 9.980468 63.378906.558594 115.253906-50.28125 115.96875-113.65625-.007813-26.585937-9.5-52.296874-26.765625-72.519531 21.527344-16.707031 37.609375-39.4375 46.195312-65.304687 1.375-4.054688.003906-8.535156-3.402344-11.132813-3.40625-2.59375-8.089843-2.730469-11.636718-.332031-12.261719 8.117188-26.753906 12.210938-41.449219 11.714844-45.195313-1.21875-80.890625-38.757813-79.835937-83.957032.058593-35.058593 21.152343-66.65625 53.507812-80.160156 3.90625-1.535156 6.4375-5.347656 6.328125-9.546875-.105469-4.195312-2.828125-7.871093-6.804687-9.203125-13.539063-3.796875-27.574219-5.480468-41.625-4.988281-73.898438 0-134.011719 62.667969-134.011719 139.707031 0 2.488282.097656 4.992188.257812 7.683594-4.597656.816406-9.128906 1.957031-13.570312 3.414062-21.183594-43.460937-65.320313-71.015624-113.671875-70.972656-68.632813-.609375-124.816406 54.441406-125.597656 123.074219.011718 9.753906 1.226562 19.476563 3.609374 28.9375-51.605468 6.96875-90.160156 50.941406-90.320312 103.015625.65625 58.109375 48.214844 104.726562 106.328125 104.226562zm366.976563-419.128906c2.945312 0 5.984374 0 9.097656.136719-25.351563 20.476563-40.203125 51.238281-40.460938 83.828125-.910156 31.824219 13.234375 62.21875 38.164063 82.023438 24.925781 19.808593 57.734375 26.707031 88.53125 18.628906-7.878907 13.378906-18.40625 25.011718-30.9375 34.1875-.269531-.222656-.554688-.410156-.828125-.628906-.679688-.550782-1.394532-1.050782-2.097656-1.601563-2.140626-1.675781-4.320313-3.296875-6.5625-4.816406-.796876-.527344-1.625-1-2.4375-1.535157-2.234376-1.417968-4.492188-2.789062-6.804688-4.054687-.898438-.488281-1.828125-.945313-2.742188-1.414063-2.285156-1.167968-4.589843-2.265624-6.988281-3.28125-.996093-.441406-2.078125-.871093-3.125-1.277343-2.300781-.921875-4.628906-1.761719-6.980469-2.519531-1.152343-.375-2.296874-.738282-3.464843-1.078126-2.335938-.675781-4.699219-1.265624-7.09375-1.792968-1.21875-.273438-2.429688-.570313-3.664063-.808594-2.507812-.46875-4.992187-.820312-7.582031-1.140625-1.140625-.136719-2.257813-.324219-3.402344-.4375-3.695312-.335937-7.40625-.546875-11.160156-.546875-4.546875-.003906-9.085937.257812-13.601563.785156-.765624-2.421875-1.632812-4.808594-2.585937-7.144531-.304687-.75-.675781-1.464844-.996094-2.207031-.6875-1.5625-1.355469-3.132813-2.125-4.636719-.4375-.878906-.949219-1.707031-1.417969-2.5625-.726562-1.339844-1.4375-2.675781-2.222656-3.992187-.558594-.921876-1.1875-1.789063-1.777344-2.683594-.78125-1.179688-1.527343-2.371094-2.355468-3.503906-.671875-.921876-1.386719-1.789063-2.085938-2.675782-.828125-1.066406-1.636718-2.144531-2.511718-3.171875-.882813-1.027343-1.558594-1.710937-2.351563-2.570312-.789063-.855469-1.753906-1.992188-2.671875-2.882813-.917969-.886718-1.714844-1.613281-2.582031-2.421875-.871094-.808593-1.878907-1.789062-2.855469-2.636719-.980469-.847656-1.859375-1.496093-2.785156-2.246093-.929688-.746094-1.996094-1.628907-2.996094-2.382813-.992188-.757812-1.992188-1.367187-2.992188-1.996094-1-.628906-2.09375-1.457031-3.179687-2.136718-1.09375-.675782-2.085937-1.226563-3.132813-1.824219-1.050781-.601563-2.21875-1.296875-3.359374-1.898437-1.136719-.597657-2.164063-1.054688-3.25-1.578126-1.085938-.515624-2.332032-1.125-3.53125-1.632812-1.199219-.511719-2.226563-.890625-3.351563-1.328125-1.132813-.441406-2.457031-1-3.707031-1.386719-1.246094-.386718-2.273438-.710937-3.421875-1.050781-1.148438-.335937-2.566407-.773437-3.871094-1.117187-1.148437-.285157-2.3125-.523438-3.484375-.777344-1.335938-.289063-2.664062-.585938-3.988281-.820313-1.171875-.199219-2.355469-.34375-3.535157-.503906-1.378906-.191406-2.761718-.382813-4.160156-.507813-1.167968-.113281-2.34375-.171874-3.523437-.234374-1-.058594-1.996094-.164063-2.921875-.199219-.125-2.203125-.183594-4.199219-.183594-6.195313 0-66.03125 51.164062-119.75 114.054688-119.75zm0 0"/><path d="m159.667969 517.339844c13.574219-.378906 27.019531 2.738281 39.039062 9.058594 14.652344 7.515624 30.945313 11.257812 47.410157 10.902343 16.472656.355469 32.769531-3.386719 47.433593-10.902343 12.027344-6.320313 25.480469-9.4375 39.066407-9.058594 13.585937-.382813 27.042968 2.738281 39.078124 9.058594 14.664063 7.515624 30.960938 11.257812 47.433594 10.902343 5.507813 0 9.976563-4.46875 9.976563-9.980469 0-5.511718-4.46875-9.980468-9.976563-9.980468-13.585937.378906-27.039062-2.742188-39.070312-9.0625-14.667969-7.507813-30.964844-11.253906-47.441406-10.894532-16.46875-.359374-32.769532 3.382813-47.429688 10.894532-12.03125 6.320312-25.484375 9.441406-39.070312 9.0625-13.578126.375-27.023438-2.742188-39.046876-9.0625-14.652343-7.507813-30.941406-11.253906-47.402343-10.894532-5.511719 0-9.980469 4.46875-9.980469 9.976563 0 5.511719 4.46875 9.980469 9.980469 9.980469zm0 0"/><path d="m159.667969 397.589844c13.574219-.378906 27.019531 2.738281 39.039062 9.058594 14.652344 7.511718 30.945313 11.253906 47.410157 10.898437 16.472656.355469 32.769531-3.386719 47.433593-10.898437 12.027344-6.320313 25.480469-9.4375 39.066407-9.058594 13.585937-.386719 27.042968 2.738281 39.078124 9.058594 14.664063 7.511718 30.960938 11.253906 47.433594 10.898437 5.507813 0 9.976563-4.464844 9.976563-9.976563 0-5.511718-4.46875-9.980468-9.976563-9.980468-13.585937.378906-27.039062-2.742188-39.070312-9.0625-14.667969-7.507813-30.964844-11.257813-47.441406-10.894532-16.46875-.363281-32.769532 3.378907-47.429688 10.894532-12.03125 6.320312-25.484375 9.441406-39.070312 9.0625-13.578126.375-27.023438-2.742188-39.046876-9.0625-14.652343-7.507813-30.941406-11.257813-47.402343-10.894532-5.511719 0-9.980469 4.46875-9.980469 9.976563 0 5.511719 4.46875 9.980469 9.980469 9.980469zm0 0"/><path d="m159.667969 337.714844c13.574219-.378906 27.019531 2.738281 39.039062 9.058594 14.652344 7.511718 30.945313 11.253906 47.410157 10.898437 16.472656.355469 32.769531-3.386719 47.433593-10.898437 12.027344-6.320313 25.480469-9.4375 39.066407-9.058594 13.585937-.386719 27.042968 2.738281 39.078124 9.058594 14.664063 7.511718 30.960938 11.253906 47.433594 10.898437 5.507813 0 9.976563-4.46875 9.976563-9.976563 0-5.511718-4.46875-9.980468-9.976563-9.980468-13.585937.378906-27.039062-2.742188-39.070312-9.0625-14.667969-7.507813-30.964844-11.257813-47.441406-10.894532-16.46875-.363281-32.769532 3.378907-47.429688 10.894532-12.03125 6.320312-25.484375 9.441406-39.070312 9.0625-13.578126.375-27.023438-2.742188-39.046876-9.0625-14.652343-7.507813-30.941406-11.257813-47.402343-10.894532-5.511719 0-9.980469 4.464844-9.980469 9.976563s4.46875 9.980469 9.980469 9.980469zm0 0"/><path d="m159.667969 457.464844c13.574219-.378906 27.019531 2.738281 39.039062 9.058594 14.652344 7.515624 30.945313 11.257812 47.410157 10.898437 16.472656.359375 32.769531-3.382813 47.433593-10.898437 12.027344-6.320313 25.480469-9.4375 39.066407-9.058594 13.585937-.382813 27.042968 2.738281 39.078124 9.058594 14.664063 7.515624 30.960938 11.257812 47.433594 10.898437 5.507813 0 9.976563-4.464844 9.976563-9.976563 0-5.511718-4.46875-9.980468-9.976563-9.980468-13.585937.378906-27.039062-2.742188-39.070312-9.0625-14.667969-7.507813-30.964844-11.257813-47.441406-10.894532-16.46875-.363281-32.769532 3.378907-47.429688 10.894532-12.03125 6.320312-25.484375 9.441406-39.070312 9.0625-13.578126.375-27.023438-2.742188-39.046876-9.0625-14.652343-7.507813-30.941406-11.257813-47.402343-10.894532-5.511719 0-9.980469 4.46875-9.980469 9.976563 0 5.511719 4.46875 9.980469 9.980469 9.980469zm0 0"/></svg>