<svg height="640pt" viewBox="-20 -80 640.01091 640" width="640pt" xmlns="http://www.w3.org/2000/svg"><path d="m59.296875 475.964844h165.859375c27.519531.203125 50.863281-20.175782 54.363281-47.476563s-13.9375-52.914062-40.625-59.65625c2.832031-18.332031-2.535156-36.984375-14.675781-51.011719-12.140625-14.027343-29.828125-22.011718-48.375-21.84375-2.003906 0-3.921875.222657-5.867188.402344v-30.398437c0-71.789063 58.199219-129.988281 129.992188-129.988281 71.789062 0 129.988281 58.199218 129.988281 129.988281v30.398437c-1.9375-.179687-3.875-.402344-5.859375-.402344-18.546875-.167968-36.238281 7.816407-48.375 21.84375-12.140625 14.027344-17.507812 32.679688-14.675781 51.011719-26.6875 6.742188-44.128906 32.355469-40.625 59.65625 3.5 27.300781 26.839844 47.679688 54.363281 47.476563h165.855469c26.847656.285156 50.476563-17.667969 57.382813-43.609375 6.914062-25.945313-4.640626-53.273438-28.078126-66.382813v-99.992187c0-149.105469-120.867187-269.976563-269.976562-269.976563-149.105469 0-269.980469 120.871094-269.980469 269.976563v99.992187h.132813c-23.445313 13.074219-35.035156 40.386719-28.152344 66.332032 6.886719 25.949218 30.488281 43.921874 57.328125 43.660156zm240.671875-359.972656c-82.796875.09375-149.890625 67.191406-149.988281 149.988281v35.570312c-7.492188 3.316407-14.277344 8.039063-20 13.90625v-49.476562c0-93.878907 76.109375-169.984375 169.988281-169.984375 93.882812 0 169.984375 76.105468 169.984375 169.984375v49.476562c-5.714844-5.867187-12.503906-10.589843-19.996094-13.90625v-35.570312c-.09375-82.796875-67.1875-149.894531-149.988281-149.988281zm209.980469 214.800781c-5.910157-2.410157-12.230469-3.671875-18.617188-3.710938-.46875 0-.917969.074219-1.378906.085938v-61.1875c0-104.921875-85.058594-189.984375-189.984375-189.984375s-189.984375 85.0625-189.984375 189.984375v61.1875c-.460937 0-.910156-.085938-1.378906-.085938-6.386719.039063-12.707031 1.300781-18.621094 3.710938v-64.8125c0-115.972657 94.015625-209.984375 209.984375-209.984375 115.972656 0 209.980469 94.011718 209.980469 209.984375zm30.691406 125.171875h-165.855469c-18.890625.109375-34.332031-15.027344-34.605468-33.917969-.277344-18.886719 14.71875-34.464844 33.605468-34.90625 3.199219-.097656 6.160156-1.714844 7.96875-4.359375 1.800782-2.644531 2.230469-5.996094 1.152344-9.011719-1.691406-4.632812-2.558594-9.53125-2.574219-14.464843.257813-21.066407 15.460938-38.964844 36.203125-42.628907 20.742188-3.667969 41.152344 7.933594 48.617188 27.628907.976562 2.597656 2.984375 4.671874 5.546875 5.734374 2.566406 1.0625 5.449219 1.007813 7.972656-.144531 8.390625-3.867187 18.082031-3.707031 26.332031.433594 8.257813 4.140625 14.179688 11.8125 16.097656 20.84375 1.097657 5.398437 6.363282 8.894531 11.765626 7.808594 2.574218-.507813 5.1875-.769531 7.804687-.769531 21.476563 0 38.886719 17.414062 38.886719 38.886718 0 21.476563-17.410156 38.886719-38.886719 38.886719zm-490.652344-189.984375c0-138.058594 111.917969-249.980469 249.980469-249.980469 138.058594 0 249.976562 111.921875 249.976562 249.980469v92.992187c-3.960937-.632812-7.980468-.871094-11.996093-.710937-1.964844-4.769531-4.664063-9.203125-8-13.136719v-79.144531c0-127.015625-102.964844-229.980469-229.980469-229.980469-127.011719 0-229.980469 102.964844-229.980469 229.980469v79.132812c-3.335937 3.9375-6.03125 8.371094-8 13.140625-4.011719-.160156-8.03125.078125-12 .71875zm9.308594 112.210937c2.617187 0 5.230469.261719 7.804687.769532 5.402344 1.085937 10.667969-2.410157 11.765626-7.808594 1.917968-9.03125 7.839843-16.703125 16.097656-20.84375 8.25-4.140625 17.941406-4.300782 26.332031-.433594 2.519531 1.152344 5.410156 1.207031 7.972656.140625 2.5625-1.058594 4.570313-3.132813 5.546875-5.730469 7.464844-19.695312 27.878906-31.296875 48.617188-27.628906 20.742187 3.664062 35.945312 21.5625 36.203125 42.628906-.015625 4.933594-.882813 9.828125-2.574219 14.464844-1.078125 3.015625-.648438 6.367188 1.152344 9.007812 1.808594 2.648438 4.773437 4.265626 7.96875 4.363282 18.886718.441406 33.886718 16.019531 33.605468 34.90625-.273437 18.886718-15.714843 34.027344-34.605468 33.917968h-165.886719c-21.476563 0-38.886719-17.410156-38.886719-38.886718 0-21.480469 17.410156-38.886719 38.886719-38.886719zm0 0"/></svg>