<svg height="640pt" viewBox="-20 -150 640 640" width="640pt" xmlns="http://www.w3.org/2000/svg"><path d="m300-8.667969c-165.605469.1875-299.8125 134.394531-300 300v30c0 5.523438 4.476562 10 10 10h120c5.523438 0 10-4.476562 10-10v-30c0-88.363281 71.636719-160 160-160s160 71.636719 160 160v30c0 5.523438 4.476562 10 10 10h120c5.523438 0 10-4.476562 10-10v-30c-.1875-165.605469-134.394531-299.8125-300-300zm180 320v-20c0-99.40625-80.589844-180-180-180s-180 80.59375-180 180v20h-20v-20c0-110.457031 89.539062-200 200-200s200 89.542969 200 200v20zm40 0v-20c0-121.503906-98.496094-220-220-220s-220 98.496094-220 220v20h-20v-20c0-132.546875 107.453125-240 240-240s240 107.453125 240 240v20zm60 0h-20v-20c0-143.59375-116.40625-260-260-260s-260 116.40625-260 260v20h-20v-20c0-154.636719 125.359375-280 280-280s280 125.363281 280 280zm0 0"/></svg>