<svg height="638pt" viewBox="-129 -20 638 638.66873" width="638pt" xmlns="http://www.w3.org/2000/svg"><path d="m182.710938 598.75c104.597656 0 189.683593-87.96875 189.683593-196.101562 0-144.886719-174.171875-388.449219-181.578125-398.738282-1.96875-2.472656-4.949218-3.910156-8.105468-3.910156s-6.140626 1.4375-8.105469 3.910156c-7.410157 10.289063-181.574219 253.851563-181.574219 398.738282 0 108.132812 85.085938 196.101562 189.679688 196.101562zm0-571.59375c34.800781 50.535156 169.714843 254.238281 169.714843 375.492188 0 97.117187-76.132812 176.136718-169.714843 176.136718-93.582032 0-169.714844-79.019531-169.714844-176.136718 0-121.207032 134.910156-324.945313 169.714844-375.492188zm0 0"/></svg>