<svg height="638pt" viewBox="-20 -40 638.66462 638" width="638pt" xmlns="http://www.w3.org/2000/svg"><path d="m541.90625 121.621094-59.886719 59.886718c-2.589843 2.503907-3.632812 6.21875-2.71875 9.707032.910157 3.492187 3.640625 6.214844 7.128907 7.132812 3.492187.910156 7.199218-.132812 9.703124-2.726562l59.890626-59.886719c3.78125-3.917969 3.726562-10.140625-.125-13.992187-3.847657-3.847657-10.070313-3.902344-13.992188-.121094zm0 0"/><path d="m326.453125 365.300781 139.738281-139.734375c3.78125-3.917968 3.726563-10.144531-.121094-13.992187-3.851562-3.851563-10.074218-3.90625-13.992187-.121094l-139.738281 139.734375c-2.59375 2.507812-3.636719 6.21875-2.71875 9.710938.910156 3.488281 3.640625 6.210937 7.128906 7.128906 3.492188.910156 7.199219-.132813 9.703125-2.726563zm0 0"/><path d="m442.097656 111.640625-59.890625 59.886719c-2.589843 2.503906-3.632812 6.21875-2.71875 9.707031.914063 3.492187 3.640625 6.214844 7.132813 7.132813 3.488281.910156 7.195312-.132813 9.703125-2.726563l59.886719-59.886719c3.78125-3.917968 3.726562-10.140625-.121094-13.992187-3.851563-3.851563-10.074219-3.902344-13.992188-.121094zm0 0"/><path d="m352.265625 201.46875-139.738281 139.738281c-2.589844 2.503907-3.632813 6.21875-2.71875 9.707031.910156 3.492188 3.640625 6.214844 7.128906 7.132813 3.492188.910156 7.199219-.132813 9.707031-2.726563l139.734375-139.734374c3.78125-3.917969 3.730469-10.144532-.121094-13.992188-3.851562-3.851562-10.074218-3.90625-13.992187-.125zm0 0"/><path d="m250.917969 402.292969-77.632813-10.867188-34.644531-67.675781c-1.882813-3.105469-5.253906-5-8.886719-5-3.628906 0-6.996094 1.894531-8.878906 5l-34.644531 67.675781-77.632813 10.867188c-3.808594.53125-6.964844 3.203125-8.128906 6.863281-1.160156 3.660156-.125 7.664062 2.675781 10.292969l55.957031 52.582031-13.1875 74.113281c-.65625 3.722657.839844 7.5 3.875 9.75 3.035157 2.257813 7.085938 2.601563 10.457032.898438l69.507812-35.222657 69.511719 35.222657c3.375 1.714843 7.429687 1.367187 10.46875-.886719 3.03125-2.261719 4.527344-6.039062 3.867187-9.761719l-13.1875-74.113281 55.953126-52.558594c2.796874-2.632812 3.839843-6.636718 2.679687-10.296875-1.164063-3.660156-4.328125-6.332031-8.128906-6.863281zm-68.113281 58.886719c-2.441407 2.300781-3.566407 5.679687-2.992188 8.984374l10.628906 59.757813-56.171875-28.457031c-2.824219-1.4375-6.160156-1.4375-8.984375 0l-56.214844 28.457031 10.621094-59.757813c.578125-3.304687-.550781-6.683593-2.996094-8.984374l-44.695312-42.046876 62.132812-8.707031c3.21875-.445312 6.015626-2.433593 7.496094-5.332031l28.125-54.894531 28.132813 54.894531c1.480469 2.898438 4.277343 4.886719 7.496093 5.332031l62.128907 8.707031zm0 0"/><path d="m581.832031 181.507812-259.511719 259.511719c-2.589843 2.503907-3.632812 6.21875-2.71875 9.707031.910157 3.488282 3.640626 6.214844 7.128907 7.128907 3.492187.914062 7.199219-.128907 9.707031-2.722657l259.507812-259.511718c3.78125-3.917969 3.730469-10.140625-.121093-13.992188-3.851563-3.847656-10.074219-3.902344-13.992188-.121094zm0 0"/><path d="m466.191406 1.847656c-3.894531-3.894531-10.214844-3.894531-14.113281 0l-259.511719 259.511719c-2.59375 2.503906-3.636718 6.21875-2.71875 9.707031.910156 3.488282 3.640625 6.214844 7.128906 7.128906 3.488282.910157 7.199219-.128906 9.703126-2.722656l259.511718-259.511718c3.898438-3.898438 3.898438-10.214844 0-14.113282zm0 0"/></svg>