<svg height="638pt" viewBox="-20 -30 638.6643 638" width="638pt" xmlns="http://www.w3.org/2000/svg"><path d="m598.261719 219.480469c-1.167969-3.582031-4.257813-6.199219-7.980469-6.769531l-194.808594-28.730469-87.125-179.230469c-1.863281-3.195312-5.28125-5.164062-8.980468-5.164062-3.703126 0-7.125 1.96875-8.980469 5.164062l-87.125 179.230469-194.769531 28.722656c-3.738282.5625-6.832032 3.1875-8 6.777344-1.171876 3.589843-.214844 7.535156 2.46875 10.1875l140.988281 139.558593-33.292969 197.09375c-.632812 3.753907.917969 7.539063 4.007812 9.765626 3.089844 2.222656 7.175782 2.496093 10.53125.703124l174.171876-92.964843 174.171874 92.964843c3.355469 1.792969 7.4375 1.519532 10.527344-.703124 3.089844-2.226563 4.644532-6.011719 4.007813-9.765626l-33.292969-197.09375 140.984375-139.558593c2.695313-2.648438 3.660156-6.589844 2.496094-10.1875zm-161.175781 139.207031c-2.304688 2.289062-3.351563 5.554688-2.808594 8.757812l30.757812 182.171876-160.972656-85.898438c-2.933594-1.566406-6.460938-1.566406-9.398438 0l-160.964843 85.898438 30.777343-182.171876c.542969-3.203124-.507812-6.46875-2.8125-8.757812l-130.496093-129.148438 180.226562-26.589843c3.261719-.480469 6.070313-2.542969 7.515625-5.503907l80.457032-165.507812 80.457031 165.507812c1.441406 2.960938 4.253906 5.023438 7.515625 5.503907l180.226562 26.589843zm0 0"/></svg>