<svg height="640pt" viewBox="-20 -20 640 640" width="640pt" xmlns="http://www.w3.org/2000/svg"><path d="m10 490c5.523438 0 10-4.476562 10-10 .160156-123.21875 80.722656-231.90625 198.570312-267.890625-24.566406 22.625-38.550781 54.492187-38.570312 87.890625.1875 165.605469 134.394531 299.8125 300 300 5.523438 0 10-4.476562 10-10s-4.476562-10-10-10c-123.21875-.160156-231.90625-80.722656-267.890625-198.570312 22.625 24.566406 54.492187 38.550781 87.890625 38.570312 165.605469-.1875 299.8125-134.394531 300-300 0-5.523438-4.476562-10-10-10s-10 4.476562-10 10c-.160156 123.21875-80.722656 231.90625-198.570312 267.890625 24.566406-22.625 38.550781-54.492187 38.570312-87.890625-.1875-165.605469-134.394531-299.8125-300-300-5.523438 0-10 4.476562-10 10s4.476562 10 10 10c123.21875.160156 231.90625 80.722656 267.890625 198.570312-22.625-24.566406-54.492187-38.550781-87.890625-38.570312-165.605469.1875-299.8125 134.394531-300 300 0 5.523438 4.476562 10 10 10zm390-190c0 55.230469-44.769531 100-100 100s-100-44.769531-100-100 44.769531-100 100-100c55.203125.058594 99.941406 44.796875 100 100zm0 0"/></svg>