<svg height="640pt" viewBox="-20 -30 640 640" width="640pt" xmlns="http://www.w3.org/2000/svg"><path d="m570 189.332031c-5.523438 0-10 4.480469-10 10 0 5.523438 4.476562 10 10 10h20c5.523438 0 10-4.476562 10-10 0-5.519531-4.476562-10-10-10zm0 0"/><path d="m370 9.332031v20c0 5.523438 4.476562 10 10 10s10-4.476562 10-10v-20c0-5.519531-4.476562-10-10-10s-10 4.480469-10 10zm0 0"/><path d="m532.929688 52.261719-20 20c-2.597657 2.511719-3.640626 6.230469-2.726563 9.726562.914063 3.496094 3.644531 6.226563 7.140625 7.140625 3.496094.917969 7.21875-.128906 9.726562-2.726562l20-20c2.597657-2.507813 3.640626-6.230469 2.726563-9.726563-.914063-3.496093-3.644531-6.222656-7.140625-7.136719-3.496094-.917968-7.21875.125-9.726562 2.722657zm0 0"/><path d="m106.546875 459.332031c5.527344 0 10-4.476562 10-10 0-5.519531-4.472656-10-10-10-30.359375.800781-58.816406-14.777343-74.496094-40.792969-15.683593-26.015624-16.171875-58.453124-1.285156-84.929687 14.890625-26.476563 42.859375-42.910156 73.234375-43.027344 3.210938-.089843 6.1875-1.71875 7.988281-4.378906 1.804688-2.65625 2.222657-6.019531 1.121094-9.039063-4.066406-11.046874-6.160156-22.726562-6.191406-34.5.777343-57.726562 48.105469-103.9375 105.832031-103.332031 25.554688.035157 50.257812 9.191407 69.664062 25.820313 2.265626 2.003906 4.457032 4 6.546876 6.101562.640624.648438 1.328124 1.269532 2 2 2.554687 2.769532 4.960937 5.675782 7.207031 8.703125.542969.714844 1.082031 1.433594 1.601562 2.167969 2.21875 3.128906 4.261719 6.375 6.121094 9.730469.359375.648437.691406 1.316406 1 1.996093 1.902344 3.578126 3.59375 7.269532 5.058594 11.050782.980469 2.578125 2.976562 4.636718 5.527343 5.691406 2.546876 1.054688 5.417969 1.011719 7.933594-.121094 10.105469-4.605468 21.082032-6.992187 32.1875-7 36.1875-.269531 67.628906 24.8125 75.402344 60.148438 1.105469 5.382812 6.339844 8.863281 11.730469 7.804687 3-.589843 6.003906-1 9-1.324219 1.5-.144531 2.996093-.191406 4.511719-.269531 1.507812-.078125 2.921874-.199219 4.371093-.207031 1.917969 0 3.835938.066406 5.746094.160156 1.050781 0 2.109375.078125 3.140625.160156 2.230469.175782 4.453125.449219 6.648438.777344.660156.09375 1.308593.179688 2.003906.292969 2.378906.398437 4.738281.886719 7.089844 1.46875l1.386718.347656c2.390625.621094 4.769532 1.332031 7.113282 2.144531l1.296874.457032c2.304688.835937 4.582032 1.75 6.832032 2.738281.488281.222656.996094.449219 1.4375.679687 2.171875 1 4.308594 2.089844 6.402344 3.261719 29.632812 16.371094 48.097656 47.476563 48.289062 81.328125-.707031 52.464844-43.742188 94.464844-96.210938 93.890625-5.523437 0-10 4.480469-10 10 0 5.523438 4.476563 10 10 10 63.511719.5625 115.492188-50.382812 116.210938-113.890625-.140625-37.730468-19.070312-72.910156-50.476562-93.816406 6.859374-16.582031 10.417968-34.347656 10.476562-52.292969.039062-61.582031-40.191406-115.949219-99.097656-133.914062-58.90625-17.964844-122.628906 4.703125-156.960938 55.824219-21.015625-14.238282-45.808594-21.871094-71.191406-21.910157-68.773438-.609375-125.074219 54.558594-125.859375 123.332031.015625 9.78125 1.230469 19.515626 3.617187 29-51.714843 6.980469-90.347656 51.046876-90.507812 103.230469.660156 58.226563 48.316406 104.945313 106.546875 104.4375zm293.453125-380c66.246094.074219 119.925781 53.757813 120 120 .007812 14.566407-2.675781 29.011719-7.921875 42.597657-.21875-.097657-.457031-.164063-.675781-.265626-3.203125-1.414062-6.476563-2.683593-9.820313-3.800781-.492187-.160156-1-.359375-1.441406-.523437-3.519531-1.136719-7.109375-2.097656-10.761719-2.910156-.359375-.078126-.707031-.183594-1.058594-.265626-3.628906-.773437-7.320312-1.347656-11.058593-1.769531-.382813-.054687-.761719-.140625-1.152344-.179687-4.09375-.429688-8.203125-.644532-12.320313-.648438-4.554687-.007812-9.105468.257813-13.628906.785156-13.058594-40.03125-50.464844-67.0625-92.574218-66.910156-2.664063 0-5.296876.109375-7.894532.324219-7.832031.625-15.550781 2.199219-23.003906 4.6875-.117188-.261719-.277344-.5-.40625-.757813-1.359375-2.804687-2.839844-5.53125-4.402344-8.203124-.648437-1.109376-1.363281-2.1875-2-3.277344-1.136718-1.8125-2.308594-3.59375-3.542968-5.332032-.859376-1.21875-1.71875-2.429687-2.617188-3.609374-1.140625-1.511719-2.335938-3-3.558594-4.421876-3.238281-3.957031-6.714844-7.710937-10.410156-11.234374 22.164062-33.800782 59.835938-54.195313 100.25-54.285157zm0 0"/><path d="m258 578.582031c1.203125.496094 2.5.757813 3.800781.75 3.363281 0 6.511719-1.691406 8.359375-4.511719l118.230469-180c2.019531-3.074218 2.1875-7.011718.433594-10.246093-1.753907-3.238281-5.144531-5.25-8.824219-5.242188h-67.191406l16.894531-67.578125c.742187-2.988281.070313-6.152344-1.820313-8.578125-1.898437-2.421875-4.804687-3.84375-7.882812-3.84375h-80c-4.300781.007813-8.121094 2.761719-9.484375 6.84375l-40 120c-1.007813 3.046875-.5 6.394531 1.378906 9.003907 1.875 2.605468 4.894531 4.152343 8.105469 4.152343h77.777344l-25.777344 128c-.960938 4.707031 1.558594 9.429688 6 11.25zm-44.117188-159.25 33.328126-100h60l-16.914063 67.578125c-.742187 2.988282-.070313 6.152344 1.820313 8.582032 1.898437 2.421874 4.804687 3.839843 7.882812 3.839843h61.460938l-79.667969 121.308594 17.996093-89.339844c.59375-2.933593-.164062-5.980469-2.0625-8.300781-1.898437-2.3125-4.734374-3.660156-7.726562-3.667969zm0 0"/></svg>