<?xml version="1.0" encoding="UTF-8" standalone="no"?>
<svg
   xmlns:dc="http://purl.org/dc/elements/1.1/"
   xmlns:cc="http://creativecommons.org/ns#"
   xmlns:rdf="http://www.w3.org/1999/02/22-rdf-syntax-ns#"
   xmlns:svg="http://www.w3.org/2000/svg"
   xmlns="http://www.w3.org/2000/svg"
   xmlns:sodipodi="http://sodipodi.sourceforge.net/DTD/sodipodi-0.dtd"
   xmlns:inkscape="http://www.inkscape.org/namespaces/inkscape"
   inkscape:version="1.0 (4035a4fb49, 2020-05-01)"
   sodipodi:docname="039-sun.svg"
   id="svg20"
   version="1.1"
   width="640pt"
   viewBox="-20 -20 640 640"
   height="640pt">
  <metadata
     id="metadata26">
    <rdf:RDF>
      <cc:Work
         rdf:about="">
        <dc:format>image/svg+xml</dc:format>
        <dc:type
           rdf:resource="http://purl.org/dc/dcmitype/StillImage" />
      </cc:Work>
    </rdf:RDF>
  </metadata>
  <defs
     id="defs24" />
  <sodipodi:namedview
     inkscape:current-layer="svg20"
     inkscape:window-maximized="1"
     inkscape:window-y="-8"
     inkscape:window-x="-8"
     inkscape:cy="408.49774"
     inkscape:cx="426.66667"
     inkscape:zoom="0.99609375"
     showgrid="false"
     id="namedview22"
     inkscape:window-height="1017"
     inkscape:window-width="1920"
     inkscape:pageshadow="2"
     inkscape:pageopacity="0"
     guidetolerance="10"
     gridtolerance="10"
     objecttolerance="10"
     borderopacity="1"
     bordercolor="#666666"
     pagecolor="#ffffff" />
  <path
     style="fill:#ffbd1a;fill-opacity:1"
     id="path2"
     d="m300 480c99.410156 0 180-80.589844 180-180s-80.589844-180-180-180-180 80.589844-180 180c.117188 99.367188 80.632812 179.882812 180 180zm0-340c88.363281 0 160 71.636719 160 160s-71.636719 160-160 160-160-71.636719-160-160c.101562-88.320312 71.679688-159.898438 160-160zm0 0" />
  <path
     style="fill:#ffbd1a;fill-opacity:1"
     id="path4"
     d="m300 600c5.523438 0 10-4.476562 10-10v-80c0-5.523438-4.476562-10-10-10s-10 4.476562-10 10v80c0 5.523438 4.476562 10 10 10zm0 0" />
  <path
     style="fill:#ffbd1a;fill-opacity:1"
     id="path6"
     d="m300 100c5.523438 0 10-4.476562 10-10v-80c0-5.523438-4.476562-10-10-10s-10 4.476562-10 10v80c0 5.523438 4.476562 10 10 10zm0 0" />
  <path
     style="fill:#ffbd1a;fill-opacity:1"
     id="path8"
     d="m142.929688 157.070312c3.925781 3.789063 10.160156 3.734376 14.019531-.121093 3.855469-3.859375 3.910156-10.09375.121093-14.019531l-60-60c-3.925781-3.789063-10.160156-3.734376-14.019531.121093-3.855469 3.859375-3.910156 10.09375-.121093 14.019531zm0 0" />
  <path
     style="fill:#ffbd1a;fill-opacity:1"
     id="path10"
     d="m457.070312 442.929688c-3.925781-3.789063-10.160156-3.734376-14.019531.121093-3.855469 3.859375-3.910156 10.09375-.121093 14.019531l60 60c3.925781 3.789063 10.160156 3.734376 14.019531-.121093 3.855469-3.859375 3.910156-10.09375.121093-14.019531zm0 0" />
  <path
     style="fill:#ffbd1a;fill-opacity:1"
     id="path12"
     d="m450 160c2.652344 0 5.195312-1.054688 7.070312-2.929688l60-60c3.789063-3.925781 3.734376-10.160156-.121093-14.019531-3.859375-3.855469-10.09375-3.910156-14.019531-.121093l-60 60c-2.855469 2.859374-3.714844 7.164062-2.167969 10.898437s5.195312 6.171875 9.238281 6.171875zm0 0" />
  <path
     style="fill:#ffbd1a;fill-opacity:1"
     id="path14"
     d="m590 290h-80c-5.523438 0-10 4.476562-10 10s4.476562 10 10 10h80c5.523438 0 10-4.476562 10-10s-4.476562-10-10-10zm0 0" />
  <path
     style="fill:#ffbd1a;fill-opacity:1"
     id="path16"
     d="m10 310h80c5.523438 0 10-4.476562 10-10s-4.476562-10-10-10h-80c-5.523438 0-10 4.476562-10 10s4.476562 10 10 10zm0 0" />
  <path
     style="fill:#ffbd1a;fill-opacity:1"
     id="path18"
     d="m97.070312 517.070312 60-60c3.789063-3.925781 3.734376-10.160156-.121093-14.019531-3.859375-3.855469-10.09375-3.910156-14.019531-.121093l-60 60c-2.597657 2.507812-3.640626 6.230468-2.726563 9.726562s3.644531 6.226562 7.140625 7.140625 7.21875-.128906 9.726562-2.726563zm0 0" />
</svg>
