<svg height="640pt" viewBox="-20 -80 640 640" width="640pt" xmlns="http://www.w3.org/2000/svg"><path d="m300 116c-99.367188.117188-179.882812 80.632812-180 180v10c0 5.523438 4.476562 10 10 10s10-4.476562 10-10v-10c0-88.363281 71.636719-160 160-160s160 71.636719 160 160v10c0 5.523438 4.476562 10 10 10s10-4.476562 10-10v-10c-.117188-99.367188-80.632812-179.882812-180-180zm0 0"/><path d="m450 376h-300c-5.523438 0-10 4.476562-10 10s4.476562 10 10 10h300c5.523438 0 10-4.476562 10-10s-4.476562-10-10-10zm0 0"/><path d="m470 336h-340c-5.523438 0-10 4.476562-10 10s4.476562 10 10 10h340c5.523438 0 10-4.476562 10-10s-4.476562-10-10-10zm0 0"/><path d="m380 456h-160c-5.523438 0-10 4.476562-10 10s4.476562 10 10 10h160c5.523438 0 10-4.476562 10-10s-4.476562-10-10-10zm0 0"/><path d="m430 416h-250c-5.523438 0-10 4.476562-10 10s4.476562 10 10 10h250c5.523438 0 10-4.476562 10-10s-4.476562-10-10-10zm0 0"/><path d="m300 306c5.523438 0 10-4.476562 10-10v-55.859375l22.929688 22.929687c3.925781 3.789063 10.160156 3.734376 14.019531-.121093 3.855469-3.859375 3.910156-10.09375.121093-14.019531l-40-40c-1.875-1.878907-4.421874-2.9375-7.078124-2.9375s-5.207032 1.058593-7.082032 2.9375l-40 40c-3.789062 3.925781-3.734375 10.160156.121094 14.019531 3.859375 3.855469 10.09375 3.910156 14.019531.121093l22.949219-22.929687v55.859375c0 5.523438 4.476562 10 10 10zm0 0"/><path d="m290 6v80c0 5.523438 4.476562 10 10 10s10-4.476562 10-10v-80c0-5.523438-4.476562-10-10-10s-10 4.476562-10 10zm0 0"/><path d="m82.929688 78.929688c-3.902344 3.90625-3.902344 10.234374 0 14.140624l60 60c3.925781 3.789063 10.160156 3.734376 14.019531-.121093 3.855469-3.859375 3.910156-10.09375.121093-14.019531l-60-60c-3.90625-3.902344-10.234374-3.902344-14.140624 0zm0 0"/><path d="m450 156c2.652344 0 5.195312-1.054688 7.070312-2.929688l60-60c3.789063-3.925781 3.734376-10.160156-.121093-14.019531-3.859375-3.855469-10.09375-3.910156-14.019531-.121093l-60 60c-2.855469 2.859374-3.714844 7.164062-2.167969 10.898437s5.195312 6.171875 9.238281 6.171875zm0 0"/><path d="m590 296h-80c-5.523438 0-10 4.476562-10 10s4.476562 10 10 10h80c5.523438 0 10-4.476562 10-10s-4.476562-10-10-10zm0 0"/><path d="m90 296h-80c-5.523438 0-10 4.476562-10 10s4.476562 10 10 10h80c5.523438 0 10-4.476562 10-10s-4.476562-10-10-10zm0 0"/></svg>