<svg height="640pt" viewBox="-20 -80 640 640" width="640pt" xmlns="http://www.w3.org/2000/svg"><path d="m450 376h-300c-5.523438 0-10 4.476562-10 10s4.476562 10 10 10h300c5.523438 0 10-4.476562 10-10s-4.476562-10-10-10zm0 0"/><path d="m470 336h-340c-5.523438 0-10 4.476562-10 10s4.476562 10 10 10h340c5.523438 0 10-4.476562 10-10s-4.476562-10-10-10zm0 0"/><path d="m380 456h-160c-5.523438 0-10 4.476562-10 10s4.476562 10 10 10h160c5.523438 0 10-4.476562 10-10s-4.476562-10-10-10zm0 0"/><path d="m430 416h-250c-5.523438 0-10 4.476562-10 10s4.476562 10 10 10h250c5.523438 0 10-4.476562 10-10s-4.476562-10-10-10zm0 0"/><path d="m310 86v-80c0-5.523438-4.476562-10-10-10s-10 4.476562-10 10v80c0 5.523438 4.476562 10 10 10s10-4.476562 10-10zm0 0"/><path d="m150 156c4.042969 0 7.691406-2.4375 9.238281-6.171875s.6875-8.039063-2.167969-10.898437l-60-60c-3.925781-3.789063-10.160156-3.734376-14.019531.121093-3.855469 3.859375-3.910156 10.09375-.121093 14.019531l60 60c1.875 1.875 4.417968 2.929688 7.070312 2.929688zm0 0"/><path d="m457.070312 153.070312 60-60c3.789063-3.925781 3.734376-10.160156-.121093-14.019531-3.859375-3.855469-10.09375-3.910156-14.019531-.121093l-60 60c-2.597657 2.507812-3.640626 6.230468-2.726563 9.726562s3.644531 6.226562 7.140625 7.140625 7.21875-.128906 9.726562-2.726563zm0 0"/><path d="m590 296h-80c-5.523438 0-10 4.476562-10 10s4.476562 10 10 10h80c5.523438 0 10-4.476562 10-10s-4.476562-10-10-10zm0 0"/><path d="m90 296h-80c-5.523438 0-10 4.476562-10 10s4.476562 10 10 10h80c5.523438 0 10-4.476562 10-10s-4.476562-10-10-10zm0 0"/><path d="m300 116c-99.367188.117188-179.882812 80.632812-180 180v10c0 5.523438 4.476562 10 10 10s10-4.476562 10-10v-10c0-88.363281 71.636719-160 160-160s160 71.636719 160 160v10c0 5.523438 4.476562 10 10 10s10-4.476562 10-10v-10c-.117188-99.367188-80.632812-179.882812-180-180zm0 0"/><path d="m300 206c-5.523438 0-10 4.476562-10 10v55.859375l-22.929688-22.929687c-3.925781-3.789063-10.160156-3.734376-14.019531.121093-3.855469 3.859375-3.910156 10.09375-.121093 14.019531l40 40c1.875 1.878907 4.421874 2.9375 7.078124 2.9375s5.207032-1.058593 7.082032-2.9375l40-40c3.789062-3.925781 3.734375-10.160156-.121094-14.019531-3.859375-3.855469-10.09375-3.910156-14.019531-.121093l-22.949219 22.929687v-55.859375c0-5.523438-4.476562-10-10-10zm0 0"/></svg>