<svg height="640pt" viewBox="-205 -20 640 640" width="640pt" xmlns="http://www.w3.org/2000/svg"><path d="m117.667969 455.121094v-405.121094c0-27.613281-22.390625-50-50-50-27.613281 0-50 22.386719-50 50v405.121094c-19.050781 16.164062-30.019531 39.894531-30 64.878906 0 44.183594 35.8125 80 80 80 44.183593 0 80-35.816406 80-80 .019531-24.984375-10.953125-48.714844-30-64.878906zm-50 124.878906c-33.125-.035156-59.96875-26.875-60-60-.078125-20.28125 9.382812-39.421875 25.550781-51.679688l4.449219-3v-415.320312c0-16.566406 13.429687-30 30-30 16.566406 0 30 13.433594 30 30v415.351562l4.445312 3c16.128907 12.273438 25.582031 31.382813 25.554688 51.648438-.035157 33.125-26.875 59.964844-60 60zm0 0"/><path d="m207.667969 410h-60c-5.523438 0-10 4.476562-10 10s4.476562 10 10 10h60c5.519531 0 10-4.476562 10-10s-4.480469-10-10-10zm0 0"/><path d="m147.667969 390h40c5.519531 0 10-4.476562 10-10s-4.480469-10-10-10h-40c-5.523438 0-10 4.476562-10 10s4.476562 10 10 10zm0 0"/><path d="m207.667969 330h-60c-5.523438 0-10 4.476562-10 10s4.476562 10 10 10h60c5.519531 0 10-4.476562 10-10s-4.480469-10-10-10zm0 0"/><path d="m147.667969 310h40c5.519531 0 10-4.476562 10-10s-4.480469-10-10-10h-40c-5.523438 0-10 4.476562-10 10s4.476562 10 10 10zm0 0"/><path d="m207.667969 250h-60c-5.523438 0-10 4.476562-10 10s4.476562 10 10 10h60c5.519531 0 10-4.476562 10-10s-4.480469-10-10-10zm0 0"/><path d="m147.667969 230h40c5.519531 0 10-4.476562 10-10s-4.480469-10-10-10h-40c-5.523438 0-10 4.476562-10 10s4.476562 10 10 10zm0 0"/><path d="m207.667969 170h-60c-5.523438 0-10 4.476562-10 10s4.476562 10 10 10h60c5.519531 0 10-4.476562 10-10s-4.480469-10-10-10zm0 0"/><path d="m147.667969 150h40c5.519531 0 10-4.476562 10-10s-4.480469-10-10-10h-40c-5.523438 0-10 4.476562-10 10s4.476562 10 10 10zm0 0"/><path d="m207.667969 90h-60c-5.523438 0-10 4.476562-10 10s4.476562 10 10 10h60c5.519531 0 10-4.476562 10-10s-4.480469-10-10-10zm0 0"/><path d="m77.667969 481.269531v-51.269531c0-5.523438-4.480469-10-10-10-5.523438 0-10 4.476562-10 10v51.269531c-17.722657 3.8125-30.28125 19.609375-30 37.730469 0 22.09375 17.910156 40 40 40 22.089843 0 40-17.90625 40-40 .277343-18.121094-12.28125-33.917969-30-37.730469zm-10 58.730469c-11.308594-.308594-20.246094-9.6875-20-21 0-11.046875 8.953125-20 20-20 11.042969 0 20 8.953125 20 20 .242187 11.3125-8.691407 20.691406-20 21zm0 0"/></svg>