<svg height="640pt" viewBox="-205 -20 640 640" width="640pt" xmlns="http://www.w3.org/2000/svg"><path d="m67.667969 600c44.160156-.046875 79.949219-35.839844 80-80 .019531-24.984375-10.953125-48.714844-30-64.878906v-405.121094c0-27.613281-22.390625-50-50-50-27.613281 0-50 22.386719-50 50v405.121094c-19.050781 16.164062-30.019531 39.894531-30 64.878906.046875 44.160156 35.839843 79.953125 80 80zm-34.449219-131.679688 4.449219-3v-415.320312c0-16.566406 13.429687-30 30-30 16.566406 0 30 13.433594 30 30v415.351562l4.445312 3c16.128907 12.273438 25.582031 31.382813 25.554688 51.648438 0 33.132812-26.867188 60-60 60-33.136719 0-60-26.867188-60-60-.078125-20.28125 9.382812-39.421875 25.550781-51.679688zm0 0"/><path d="m207.667969 410h-60c-5.523438 0-10 4.476562-10 10s4.476562 10 10 10h60c5.519531 0 10-4.476562 10-10s-4.480469-10-10-10zm0 0"/><path d="m147.667969 390h40c5.519531 0 10-4.476562 10-10s-4.480469-10-10-10h-40c-5.523438 0-10 4.476562-10 10s4.476562 10 10 10zm0 0"/><path d="m207.667969 330h-60c-5.523438 0-10 4.476562-10 10s4.476562 10 10 10h60c5.519531 0 10-4.476562 10-10s-4.480469-10-10-10zm0 0"/><path d="m147.667969 310h40c5.519531 0 10-4.476562 10-10s-4.480469-10-10-10h-40c-5.523438 0-10 4.476562-10 10s4.476562 10 10 10zm0 0"/><path d="m207.667969 250h-60c-5.523438 0-10 4.476562-10 10s4.476562 10 10 10h60c5.519531 0 10-4.476562 10-10s-4.480469-10-10-10zm0 0"/><path d="m147.667969 230h40c5.519531 0 10-4.476562 10-10s-4.480469-10-10-10h-40c-5.523438 0-10 4.476562-10 10s4.476562 10 10 10zm0 0"/><path d="m207.667969 170h-60c-5.523438 0-10 4.476562-10 10s4.476562 10 10 10h60c5.519531 0 10-4.476562 10-10s-4.480469-10-10-10zm0 0"/><path d="m147.667969 150h40c5.519531 0 10-4.476562 10-10s-4.480469-10-10-10h-40c-5.523438 0-10 4.476562-10 10s4.476562 10 10 10zm0 0"/><path d="m207.667969 90h-60c-5.523438 0-10 4.476562-10 10s4.476562 10 10 10h60c5.519531 0 10-4.476562 10-10s-4.480469-10-10-10zm0 0"/><path d="m67.667969 560c22.351562-.3125 40.238281-18.648438 40-41 .257812-18.105469-12.296875-33.878906-30-37.691406v-231.308594c0-5.523438-4.480469-10-10-10-5.523438 0-10 4.476562-10 10v231.269531c-17.722657 3.8125-30.28125 19.609375-30 37.730469-.242188 22.351562 17.644531 40.6875 40 41zm0-60c5.21875-.316406 10.335937 1.546875 14.128906 5.152344 3.792969 3.601562 5.917969 8.617187 5.871094 13.847656 0 11.042969-8.957031 20-20 20-11.046875 0-20-8.957031-20-20-.050781-5.230469 2.074219-10.246094 5.867187-13.847656 3.792969-3.605469 8.910156-5.46875 14.132813-5.152344zm0 0"/></svg>