<svg height="640pt" viewBox="-20 -20 640.01442 640" width="640pt" xmlns="http://www.w3.org/2000/svg"><path d="m51.9375 157.613281c-12.609375 14.847657-15.445312 35.664063-7.273438 53.347657 8.179688 17.683593 25.878907 29.003906 45.359376 29.007812h10c-11.359376 15.152344-13.1875 35.417969-4.722657 52.359375 8.472657 16.933594 25.777344 27.632813 44.71875 27.632813-11.363281 15.148437-13.1875 35.414062-4.722656 52.355468 8.46875 16.9375 25.777344 27.632813 44.714844 27.632813h31.707031c-3.246094 9.183593-1.832031 19.367187 3.792969 27.320312 5.617187 7.949219 14.753906 12.675781 24.492187 12.675781h41.703125c-5.214843 14.742188 1.777344 31.019532 16.058594 37.394532-3.28125 7.105468-3.660156 15.214844-1.058594 22.597656h-1.710937c-9.738282 0-18.875 4.722656-24.492188 12.671875-5.625 7.953125-7.039062 18.136719-3.792968 27.320313h-16.707032c-16.566406 0-29.996094 13.433593-29.996094 29.996093 0 16.566407 13.429688 29.996094 29.996094 29.996094h79.988282c9.742187 0 18.875-4.726563 24.496093-12.671875 5.621094-7.953125 7.039063-18.136719 3.792969-27.320312h56.699219c9.742187 0 18.875-4.726563 24.496093-12.675782 5.625-7.953125 7.039063-18.136718 3.792969-27.320312h41.703125c9.738282 0 18.875-4.726563 24.492188-12.675782 5.625-7.953124 7.042968-18.136718 3.796875-27.320312h16.703125c9.742187 0 18.875-4.726562 24.496094-12.671875 5.625-7.953125 7.039062-18.136719 3.792968-27.320313h1.707032c16.566406 0 29.996093-13.433593 29.996093-29.996093 0-16.566407-13.429687-29.996094-29.996093-29.996094 11.363281-15.152344 13.191406-35.417969 4.722656-52.351563-8.46875-16.941406-25.777344-27.640624-44.714844-27.640624 13.601562-18.089844 13.328125-43.074219-.667969-60.859376 17.484375-3.320312 31.886719-15.6875 37.816407-32.472656 5.925781-16.785156 2.484374-35.453125-9.042969-49.015625 33.957031-9.070312 55.921875-41.910156 51.335937-76.753906-4.582031-34.84375-34.296875-60.882813-69.445312-60.859375h-118.734375c-5.519531 0-9.996094 4.476562-9.996094 9.996094 0 5.523437 4.476563 10 9.996094 10h118.734375c27.609375 0 49.996094 22.386718 49.996094 49.992187 0 27.609375-22.386719 49.996094-49.996094 49.996094h-19.996094c-5.519531 0-10 4.476563-10 9.996094 0 5.523437 4.480469 10 10 10 16.566406 0 29.996094 13.429687 29.996094 29.996093 0 16.566407-13.429688 29.996094-29.996094 29.996094h-29.996094c-5.519531 0-10 4.476563-10 10 0 5.519532 4.480469 9.996094 10 9.996094 16.566406 0 29.996094 13.433594 29.996094 29.996094 0 16.566406-13.429688 29.996094-29.996094 29.996094-5.519531 0-10 4.476562-10 10 0 5.523437 4.480469 10 10 10h39.996094c16.5625 0 29.996094 13.429687 29.996094 29.996093 0 16.5625-13.433594 29.996094-29.996094 29.996094-5.523438 0-10 4.476563-10 9.996094 0 5.523437 4.476562 10 10 10h39.992188c5.523437 0 10 4.476562 10 10 0 5.519531-4.476563 9.996093-10 9.996093h-29.996094c-5.519532 0-9.996094 4.476563-9.996094 10 0 5.523438 4.476562 10 9.996094 10 5.523437 0 10 4.476563 10 9.996094 0 5.523438-4.476563 10-10 10h-44.992188c-5.523437 0-10 4.476563-10 10 0 5.519532 4.476563 9.996094 10 9.996094 5.523438 0 10 4.476562 10 10s-4.476562 10-10 10h-69.992187c-5.519531 0-9.996094 4.476562-9.996094 9.996094 0 5.523437 4.476563 10 9.996094 10 5.523437 0 10 4.476562 10 10 0 5.519531-4.476563 9.996094-10 9.996094h-84.988281c-5.519532 0-9.996094 4.476562-9.996094 10 0 5.523437 4.476562 10 9.996094 10 5.523437 0 10 4.476562 10 9.996093 0 5.523438-4.476563 10-10 10h-79.988282c-5.523437 0-10-4.476562-10-10 0-5.519531 4.476563-9.996093 10-9.996093h44.992188c5.523437 0 10-4.476563 10-10 0-5.523438-4.476563-10-10-10-5.519532 0-9.996094-4.476563-9.996094-9.996094 0-5.523438 4.476562-10 9.996094-10h29.996094c5.523437 0 10-4.476563 10-10 0-5.519532-4.476563-9.996094-10-9.996094-5.519532 0-9.996094-4.476562-9.996094-10s4.476562-10 9.996094-10c5.523437 0 10-4.476562 10-9.996094 0-5.523437-4.476563-10-10-10h-14.996094c-5.523438 0-10-4.476562-10-10 0-5.519531 4.476562-9.996094 10-9.996094 5.519531 0 10-4.476562 10-10 0-5.523437-4.480469-10-10-10h-69.992188c-5.519531 0-9.996094-4.476562-9.996094-9.996093 0-5.523438 4.476563-10 9.996094-10 5.523438 0 10-4.476563 10-10 0-5.519531-4.476562-9.996094-10-9.996094h-59.992187c-16.5625 0-29.996094-13.433594-29.996094-29.996094 0-16.566406 13.433594-29.996093 29.996094-29.996093 5.523437 0 10-4.476563 10-10 0-5.523438-4.476563-10-10-10h-39.992188c-16.566406 0-29.996093-13.429688-29.996093-29.996094 0-16.5625 13.429687-29.996094 29.996093-29.996094 5.519531 0 9.996094-4.476562 9.996094-9.996094 0-5.523437-4.476563-10-9.996094-10h-49.996093c-16.5625 0-29.996094-13.429687-29.996094-29.996094 0-16.566406 13.433594-29.996093 29.996094-29.996093 5.523437 0 10-4.476563 10-10 0-5.519531-4.476563-9.996094-10-9.996094h-19.996094c-27.609375 0-49.992188-22.386719-49.992188-49.996094 0-27.605469 22.382813-49.992187 49.992188-49.992187h132.480468c5.523438 0 10-4.476563 10-10 0-5.519532-4.476562-9.996094-10-9.996094h-132.480468c-35.140625-.015625-64.84375 26.03125-69.425782 60.871094-4.578124 34.839844 17.386719 67.675781 51.335938 76.742187zm0 0"/><path d="m287.996094 279.214844c1.207031.496094 2.5.753906 3.804687.75 3.367188 0 6.507813-1.695313 8.355469-4.511719l118.214844-179.976563c2.019531-3.074218 2.1875-7.007812.433594-10.246093-1.753907-3.238281-5.140626-5.25-8.824219-5.238281h-67.175781l16.886718-67.558594c.746094-2.988282.078125-6.15625-1.816406-8.585938-1.898438-2.425781-4.804688-3.84374975-7.882812-3.84374975h-79.992188c-4.300781.00390625-8.117188 2.75781275-9.476562 6.83984375l-39.992188 119.980469c-1.015625 3.046875-.507812 6.398437 1.371094 9.003906 1.875 2.609375 4.890625 4.15625 8.105468 4.15625h77.765626l-25.773438 127.980469c-.960938 4.707031 1.558594 9.425781 5.996094 11.25zm-44.109375-159.230469 33.324219-99.984375h59.992187l-16.910156 67.558594c-.746094 2.988281-.078125 6.15625 1.820312 8.582031 1.894531 2.425781 4.800781 3.847656 7.878907 3.847656h61.453124l-79.65625 121.285157 17.992188-89.304688c.597656-2.941406-.160156-5.992188-2.058594-8.3125-1.894531-2.316406-4.730468-3.664062-7.726562-3.671875zm0 0"/></svg>