<svg height="639pt" viewBox="-50 -19 639 639.99995" width="639pt" xmlns="http://www.w3.org/2000/svg"><path d="m8.488281 309.933594c5.523438 0 10-4.476563 10-9.996094 0-14.578125 25.691407-29.996094 49.988281-29.996094 22.054688 0 39.992188 13.460938 39.992188 29.996094 0 5.519531 4.476562 9.996094 9.996094 9.996094 5.523437 0 10-4.476563 10-9.996094 0-16.535156 17.933594-29.996094 39.992187-29.996094 22.054688 0 39.992188 13.460938 39.992188 29.996094 0 5.519531 4.476562 9.996094 9.996093 9.996094 5.519532 0 9.996094-4.476563 9.996094-9.996094 0-13.9375 12.789063-25.578125 29.996094-28.933594v278.878906c.390625 27.792969 23.03125 50.117188 50.824219 50.117188s50.433593-22.324219 50.824219-50.117188c0-5.519531-4.476563-9.996093-10-9.996093-5.519532 0-9.996094 4.476562-9.996094 9.996093-.519532 16.652344-14.167969 29.882813-30.828125 29.882813-16.664063 0-30.3125-13.230469-30.828125-29.882813v-278.878906c17.207031 3.355469 29.992187 14.996094 29.992187 28.933594 0 5.519531 4.476563 9.996094 10 9.996094 5.519531 0 9.996094-4.476563 9.996094-9.996094 0-16.535156 17.9375-29.996094 39.992187-29.996094 22.054688 0 39.992188 13.460938 39.992188 29.996094 0 5.519531 4.476562 9.996094 9.996094 9.996094 5.523437 0 10-4.476563 10-9.996094 0-16.535156 17.933594-29.996094 39.988281-29.996094 24.296875 0 49.992187 15.417969 49.992187 29.996094 0 5.519531 4.476563 9.996094 9.996094 9.996094 5.523438 0 10-4.476563 10-9.996094-.171875-144.292969-113.667968-262.992188-257.808594-269.636719h-.210937c-.371094 0-.734375 0-1.097656 0h-.828125v-20.304687c0-5.519532-4.476563-9.996094-10-9.996094-5.519532 0-9.996094 4.476562-9.996094 9.996094v20.246094h-.832031c-.359375 0-.726563 0-1.097657 0h-.210937c-144.160156 6.644531-257.664063 125.378906-257.804687 269.695312 0 5.519531 4.476562 9.996094 9.996093 9.996094zm159.96875-59.988282c-3.320312.027344-6.636719.285157-9.921875.773438-.859375.117188-1.6875.257812-2.527344.410156-2.792968.488282-5.550781 1.15625-8.253906 1.996094-.363281.113281-.742187.179688-1.09375.304688-2.894531.953124-5.722656 2.117187-8.457031 3.464843-.703125.351563-1.371094.722657-2.058594 1.09375-2.183593 1.160157-4.289062 2.453125-6.308593 3.875-.332032.230469-.730469.410157-1.0625.648438 4.996093-138.148438 69.285156-187.308594 105.976562-204.183594-11.992188 28.722656-24.996094 86.898437-26.191406 204.527344-11.628906-8.515625-25.691406-13.039063-40.101563-12.910157zm139.042969 12.175782c-2.125-1.511719-4.335938-2.882813-6.628906-4.113282-.671875-.363281-1.335938-.722656-2.003906-1.058593-2.757813-1.386719-5.609376-2.570313-8.539063-3.539063-.265625-.09375-.558594-.152344-.828125-.230468-2.800781-.871094-5.660156-1.554688-8.546875-2.050782-.839844-.152344-1.660156-.285156-2.511719-.402344-6.625-1.042968-13.371094-1.042968-19.996094 0-.847656.117188-1.667968.25-2.507812.402344-2.890625.496094-5.746094 1.179688-8.546875 2.050782-.269531.078124-.5625.136718-.832031.230468-2.929688.96875-5.777344 2.152344-8.539063 3.539063-.6875.335937-1.34375.695312-2 1.058593-2.292969 1.230469-4.503906 2.601563-6.625 4.113282-.261719.191406-.582031.332031-.839843.523437 1.660156-163.046875 26.65625-204.195312 33.402343-212.355469h1.109375c3.585938-.078124 7.1875-.078124 10.777344 0h1.089844c6.800781 8.210938 31.765625 49.410157 33.425781 212.355469-.285156-.191406-.601563-.332031-.859375-.523437zm20.835938.695312c-1.164063-117.628906-14.179688-175.832031-26.199219-204.527344 36.671875 16.875 100.980469 66.035157 105.980469 204.183594-.332032-.238281-.730469-.417968-1.058594-.648437-2.023438-1.421875-4.128906-2.71875-6.3125-3.878907-.6875-.367187-1.359375-.738281-2.058594-1.089843-2.734375-1.351563-5.5625-2.511719-8.457031-3.464844-.351563-.125-.734375-.191406-1.089844-.304687-2.707031-.839844-5.464844-1.507813-8.257813-2-.839843-.148438-1.671874-.289063-2.53125-.40625-3.292968-.480469-6.613281-.71875-9.9375-.734376-14.398437-.136718-28.457031 4.375-40.078124 12.871094zm187.507812 1.449219c-14.125-9.21875-30.589844-14.183594-47.453125-14.320313-14.492187-.15625-28.644531 4.410157-40.320313 12.996094-3.761718-111.160156-44.25-169.761718-81.863281-200.332031 90.183594 29.648437 155.863281 107.726563 169.636719 201.65625zm-325.179688-201.628906c-37.613281 30.574219-78.105468 89.171875-81.863281 200.339843-11.671875-8.601562-25.824219-13.175781-40.324219-13.03125-16.859374.136719-33.328124 5.101563-47.449218 14.320313 13.78125-93.921875 79.460937-171.984375 169.636718-201.628906zm0 0"/></svg>