<svg height="640pt" viewBox="-24 -20 639 640" width="640pt" xmlns="http://www.w3.org/2000/svg"><path d="m580.167969 60c-19.738281.421875-39-6.058594-54.46875-18.320312-38.929688-28.898438-92.191407-28.898438-131.125 0-15.46875 12.261718-34.726563 18.742187-54.457031 18.320312-19.722657.414062-38.972657-6.0625-54.433594-18.320312-18.765625-14.410157-41.855469-22.050782-65.515625-21.679688-1.457031.019531-2.890625.359375-4.199219 1-.085938 0-.191406 0-.269531.058594l-145.53125 72.761718v-21.617187c6.335937-5.644531 9.972656-13.71875 10-22.203125v-20c0-16.566406-13.433594-30-30-30h-20c-16.570313 0-30 13.433594-30 30v20c.023437 8.484375 3.660156 16.558594 10 22.203125v527.796875h60v-473.820312l145.53125 72.820312c.078125 0 .183593 0 .277343.058594 1.308594.621094 2.738282.941406 4.191407.941406 19.71875-.414062 38.964843 6.0625 54.417969 18.320312 38.914062 28.90625 92.171874 28.90625 131.089843 0 32.199219-24.429687 76.726563-24.429687 108.929688 0 18.785156 14.410157 41.890625 22.050782 65.5625 21.679688 5.519531 0 10-4.476562 10-10v-160c0-5.523438-4.480469-10-10-10zm-560-30c0-5.523438 4.476562-10 10-10h20c5.519531 0 10 4.476562 10 10v20c-.035157 3.707031-2.136719 7.085938-5.441407 8.757812-.449218.230469-.914062.429688-1.390624.601563-1.015626.386719-2.085938.601563-3.167969.640625h-20c-1.085938-.039062-2.15625-.253906-3.171875-.640625-.476563-.171875-.941406-.371094-1.390625-.601563-3.304688-1.671874-5.40625-5.050781-5.4375-8.757812zm30 50v20h-20v-20zm-20 500v-460h20v460zm180-533.820312v127.640624l-127.644531-63.820312zm360 173.390624c-16.222657-1.632812-31.640625-7.832031-44.46875-17.890624-38.929688-28.898438-92.191407-28.898438-131.125 0-32.1875 24.429687-76.703125 24.429687-108.890625 0-1.757813-1.171876-3.550782-2.359376-5.386719-3.550782-.539063-.359375-1.132813-.707031-1.679687-1.058594-1.339844-.851562-2.6875-1.699218-4.089844-2.539062-.742188-.4375-1.527344-.859375-2.300782-1.296875-1.269531-.734375-2.546874-1.453125-3.902343-2.15625-.878907-.457031-1.820313-.886719-2.738281-1.328125-1.308594-.640625-2.640626-1.257812-4-1.859375-1-.429687-2.070313-.839844-3.128907-1.242187-1.421875-.550782-2.859375-1.078126-4.359375-1.570313-1.144531-.367187-2.320312-.71875-3.511718-1.058594-1.570313-.449219-3.179688-.859375-4.847657-1.242187-1.261719-.285156-2.554687-.566406-3.871093-.820313-1.769532-.324219-3.621094-.59375-5.507813-.847656-1.394531-.191406-2.773437-.367187-4.234375-.507813-.660156-.058593-1.25-.179687-1.929688-.230468v-139.894532h.660157c1 .09375 1.910156.257813 2.859375.375 1.621094.207032 3.234375.429688 4.742187.707032 1 .191406 1.898438.410156 2.835938.632812 1.363281.308594 2.710937.628906 4.003906.996094.910156.265625 1.789063.542969 2.65625.832031 1.203125.398438 2.394531.820313 3.53125 1.257813.832031.332031 1.652344.664062 2.453125 1.003906 1.105469.484375 2.199219 1 3.269531 1.515625.746094.371094 1.507813.734375 2.242188 1.125 1.089843.570313 2.148437 1.164063 3.207031 1.777344.660156.378906 1.328125.75 2.003906 1.140625 1.195313.71875 2.375 1.472656 3.546875 2.21875.5.320312.996094.621094 1.492188.941406 1.648437 1.070312 3.289062 2.167969 5 3.28125 18.734375 14.398438 41.785156 22.050781 65.417969 21.71875 23.671874.371094 46.773437-7.269531 65.558593-21.679688 32.199219-24.429687 76.726563-24.429687 108.929688 0 16.097656 12.273438 35.378906 19.671876 55.5625 21.308594zm0 0"/></svg>