<svg height="640pt" viewBox="-20 -210 640 640" width="640pt" xmlns="http://www.w3.org/2000/svg"><path d="m590-12.621094c-25.449219-.484375-50.816406 3.011719-75.179688 10.359375-22.617187 6.882813-46.183593 10.132813-69.820312 9.640625-23.648438.492188-47.226562-2.757812-69.859375-9.640625-24.378906-7.351562-49.757813-10.847656-75.21875-10.359375-25.433594-.484375-50.78125 3.011719-75.132813 10.359375-22.605468 6.882813-46.160156 10.132813-69.789062 9.640625-23.640625.496094-47.21875-2.757812-69.839844-9.640625-24.359375-7.351562-49.722656-10.847656-75.160156-10.359375-5.523438 0-10 4.476563-10 10 0 5.523438 4.476562 10 10 10 23.636719-.492187 47.207031 2.757813 69.828125 9.644532 24.367187 7.347656 49.726563 10.84375 75.171875 10.355468 25.429688.488282 50.78125-3.007812 75.132812-10.355468 22.605469-6.882813 46.160157-10.136719 69.789063-9.644532 23.652344-.492187 47.230469 2.757813 69.867187 9.644532 24.375 7.351562 49.75 10.847656 75.210938 10.355468 25.449219.488282 50.816406-3.007812 75.179688-10.355468 22.617187-6.882813 46.183593-10.132813 69.820312-9.644532 5.523438 0 10-4.476562 10-10 0-5.523437-4.476562-10-10-10zm0 0"/><path d="m590 47.378906c-25.449219-.484375-50.816406 3.011719-75.179688 10.359375-22.617187 6.882813-46.183593 10.132813-69.820312 9.640625-23.648438.492188-47.226562-2.757812-69.859375-9.640625-24.378906-7.351562-49.757813-10.847656-75.21875-10.359375-25.433594-.484375-50.78125 3.011719-75.132813 10.359375-22.605468 6.882813-46.160156 10.132813-69.789062 9.640625-23.640625.496094-47.21875-2.757812-69.839844-9.640625-24.359375-7.351562-49.722656-10.847656-75.160156-10.359375-5.523438 0-10 4.476563-10 10 0 5.523438 4.476562 10 10 10 23.636719-.492187 47.207031 2.757813 69.828125 9.644532 24.367187 7.347656 49.726563 10.84375 75.171875 10.355468 25.429688.488282 50.78125-3.007812 75.132812-10.355468 22.605469-6.882813 46.160157-10.136719 69.789063-9.644532 23.652344-.492187 47.230469 2.757813 69.867187 9.644532 24.375 7.351562 49.75 10.847656 75.210938 10.355468 25.449219.488282 50.816406-3.007812 75.179688-10.355468 22.617187-6.882813 46.183593-10.132813 69.820312-9.644532 5.523438 0 10-4.476562 10-10 0-5.523437-4.476562-10-10-10zm0 0"/><path d="m590 107.378906c-25.449219-.484375-50.816406 3.011719-75.179688 10.359375-22.617187 6.882813-46.183593 10.132813-69.820312 9.640625-23.648438.492188-47.226562-2.757812-69.859375-9.640625-24.378906-7.351562-49.757813-10.847656-75.21875-10.359375-25.433594-.484375-50.78125 3.011719-75.132813 10.359375-22.605468 6.882813-46.160156 10.132813-69.789062 9.640625-23.640625.496094-47.21875-2.757812-69.839844-9.640625-24.359375-7.351562-49.722656-10.847656-75.160156-10.359375-5.523438 0-10 4.476563-10 10 0 5.523438 4.476562 10 10 10 23.636719-.492187 47.207031 2.757813 69.828125 9.644532 24.367187 7.347656 49.726563 10.84375 75.171875 10.355468 25.429688.488282 50.78125-3.007812 75.132812-10.355468 22.605469-6.882813 46.160157-10.136719 69.789063-9.644532 23.652344-.492187 47.230469 2.757813 69.867187 9.644532 24.375 7.351562 49.75 10.847656 75.210938 10.355468 25.449219.488282 50.816406-3.007812 75.179688-10.355468 22.617187-6.882813 46.183593-10.132813 69.820312-9.644532 5.523438 0 10-4.476562 10-10 0-5.523437-4.476562-10-10-10zm0 0"/><path d="m590 167.378906c-25.449219-.484375-50.816406 3.011719-75.179688 10.359375-22.617187 6.882813-46.183593 10.132813-69.820312 9.640625-23.648438.492188-47.226562-2.757812-69.859375-9.640625-24.378906-7.351562-49.757813-10.847656-75.21875-10.359375-25.433594-.484375-50.78125 3.011719-75.132813 10.359375-22.605468 6.882813-46.160156 10.132813-69.789062 9.640625-23.640625.496094-47.21875-2.757812-69.839844-9.640625-24.359375-7.351562-49.722656-10.847656-75.160156-10.359375-5.523438 0-10 4.476563-10 10 0 5.523438 4.476562 10 10 10 23.636719-.492187 47.207031 2.757813 69.828125 9.644532 24.367187 7.347656 49.726563 10.84375 75.171875 10.355468 25.429688.488282 50.78125-3.007812 75.132812-10.355468 22.605469-6.882813 46.160157-10.136719 69.789063-9.644532 23.652344-.492187 47.230469 2.757813 69.867187 9.644532 24.375 7.351562 49.75 10.847656 75.210938 10.355468 25.449219.488282 50.816406-3.007812 75.179688-10.355468 22.617187-6.882813 46.183593-10.132813 69.820312-9.644532 5.523438 0 10-4.476562 10-10 0-5.523437-4.476562-10-10-10zm0 0"/></svg>