<?xml version="1.0" encoding="UTF-8" standalone="no"?>
<svg
   xmlns:dc="http://purl.org/dc/elements/1.1/"
   xmlns:cc="http://creativecommons.org/ns#"
   xmlns:rdf="http://www.w3.org/1999/02/22-rdf-syntax-ns#"
   xmlns:svg="http://www.w3.org/2000/svg"
   xmlns="http://www.w3.org/2000/svg"
   xmlns:sodipodi="http://sodipodi.sourceforge.net/DTD/sodipodi-0.dtd"
   xmlns:inkscape="http://www.inkscape.org/namespaces/inkscape"
   inkscape:version="1.0 (4035a4fb49, 2020-05-01)"
   id="svg8"
   version="1.1"
   viewBox="0 0 210 297"
   height="297mm"
   width="210mm">
  <defs
     id="defs2" />
  <sodipodi:namedview
     inkscape:window-maximized="0"
     inkscape:window-y="0"
     inkscape:window-x="1972"
     inkscape:window-height="1040"
     inkscape:window-width="1274"
     showgrid="false"
     inkscape:document-rotation="0"
     inkscape:current-layer="layer1"
     inkscape:document-units="mm"
     inkscape:cy="418.84781"
     inkscape:cx="397.26684"
     inkscape:zoom="0.7"
     inkscape:pageshadow="2"
     inkscape:pageopacity="0.0"
     borderopacity="1.0"
     bordercolor="#666666"
     pagecolor="#ffffff"
     id="base" />
  <metadata
     id="metadata5">
    <rdf:RDF>
      <cc:Work
         rdf:about="">
        <dc:format>image/svg+xml</dc:format>
        <dc:type
           rdf:resource="http://purl.org/dc/dcmitype/StillImage" />
        <dc:title></dc:title>
      </cc:Work>
    </rdf:RDF>
  </metadata>
  <g
     id="layer1"
     inkscape:groupmode="layer"
     inkscape:label="Layer 1">
    <g
       transform="translate(-24.946428,-2.6458325)"
       id="g24">
      <path
         id="path28"
         d="m 88.321225,138.51763 c 0.190995,-0.0764 0.419201,-0.067 0.507119,0.0209 0.08792,0.0879 -0.06835,0.15045 -0.347266,0.13897 -0.308226,-0.0127 -0.370919,-0.0754 -0.159853,-0.15986 z m -3.720703,-1.68832 c -0.836745,-0.43189 -1.521354,-0.8446 -1.521354,-0.91712 0,-0.0725 0.714375,0.22876 1.5875,0.66951 0.873125,0.44075 1.5875,0.85918 1.5875,0.92985 0,0.17639 0.04906,0.19664 -1.653646,-0.68224 z m -3.439583,-1.85313 c -0.545703,-0.28808 -0.992188,-0.5829 -0.992188,-0.65514 0,-0.0722 0.47625,0.11162 1.058333,0.40857 0.582084,0.29696 1.058334,0.59704 1.058334,0.66684 0,0.17308 -0.0019,0.17239 -1.124479,-0.42027 z m 17.528645,-0.24657 c 0.218281,-0.14106 0.515938,-0.25647 0.661459,-0.25647 0.14552,0 0.08599,0.11541 -0.132292,0.25647 -0.218281,0.14107 -0.515938,0.25648 -0.661458,0.25648 -0.145521,0 -0.08599,-0.11541 0.132291,-0.25648 z m -19.991617,-1.20522 c -0.493189,-0.39512 -0.489945,-0.40001 0.08172,-0.12298 0.327422,0.15867 0.595312,0.34383 0.595312,0.41147 0,0.20247 -0.137215,0.144 -0.677034,-0.28849 z m 24.754113,-0.64686 c 0.21829,-0.14106 0.51594,-0.25648 0.66146,-0.25648 0.14552,0 0.086,0.11542 -0.13229,0.25648 -0.21828,0.14107 -0.51594,0.25648 -0.66146,0.25648 -0.14552,0 -0.086,-0.11541 0.13229,-0.25648 z m 5.02709,-1.85208 c 0.21828,-0.14107 0.51593,-0.25648 0.66146,-0.25648 0.14552,0 0.086,0.11541 -0.1323,0.25648 -0.21828,0.14106 -0.51593,0.25648 -0.66145,0.25648 -0.14553,0 -0.086,-0.11542 0.13229,-0.25648 z m 1.32291,-0.48453 c 0.21829,-0.13487 0.69454,-0.32483 1.05834,-0.42214 0.45971,-0.12297 0.54041,-0.10214 0.26458,0.0683 -0.21828,0.13487 -0.69453,0.32483 -1.05833,0.42214 -0.45971,0.12297 -0.54041,0.10214 -0.26459,-0.0683 z m 4.23334,-1.63214 c 0.21828,-0.14106 0.51593,-0.25648 0.66146,-0.25648 0.14552,0 0.086,0.11542 -0.1323,0.25648 -0.21828,0.14107 -0.51593,0.25648 -0.66145,0.25648 -0.14553,0 -0.086,-0.11541 0.13229,-0.25648 z m 1.32291,-0.52917 c 0.21829,-0.14106 0.51594,-0.25647 0.66146,-0.25647 0.14552,0 0.086,0.11541 -0.13229,0.25647 -0.21828,0.14107 -0.51594,0.25648 -0.66146,0.25648 -0.14552,0 -0.086,-0.11541 0.13229,-0.25648 z m -0.7717,-0.86861 c 0.0606,-0.0412 0.34837,-0.24954 0.63941,-0.46303 0.48948,-0.35904 0.50194,-0.35342 0.16604,0.0749 -0.19972,0.25467 -0.48745,0.46302 -0.63941,0.46302 -0.15195,0 -0.22667,-0.0337 -0.16604,-0.0749 z m -49.036108,-1.1348 c -0.989129,-0.53661 -0.92892,-0.76011 0.06615,-0.24554 0.436563,0.22575 0.79375,0.46693 0.79375,0.53596 0,0.17026 -0.02843,0.16066 -0.859896,-0.29042 z m 55.364058,-0.11325 c 0.21829,-0.14107 0.51594,-0.25648 0.66146,-0.25648 0.14552,0 0.086,0.11541 -0.13229,0.25648 -0.21828,0.14106 -0.51594,0.25648 -0.66146,0.25648 -0.14552,0 -0.086,-0.11542 0.13229,-0.25648 z m -5.19775,-2.24896 c -7.9e-4,-1.30969 0.0439,-1.87883 0.0994,-1.26475 0.0555,0.61407 0.0562,1.68563 0.002,2.38125 -0.0548,0.69561 -0.1002,0.19319 -0.10101,-1.1165 z m -53.605891,0.51012 c -0.989129,-0.53661 -0.92892,-0.76011 0.06615,-0.24554 0.436562,0.22576 0.79375,0.46694 0.79375,0.53596 0,0.17026 -0.02843,0.16066 -0.859896,-0.29042 z m 63.036981,0.15134 c 0.21828,-0.14107 0.51593,-0.25648 0.66146,-0.25648 0.14552,0 0.086,0.11541 -0.1323,0.25648 -0.21828,0.14106 -0.51593,0.25648 -0.66145,0.25648 -0.14553,0 -0.086,-0.11542 0.13229,-0.25648 z m 1.5875,-1.85209 c 0.21828,-0.14106 0.51593,-0.25647 0.66146,-0.25647 0.14552,0 0.086,0.11541 -0.1323,0.25647 -0.21828,0.14107 -0.51593,0.25648 -0.66145,0.25648 -0.14553,0 -0.086,-0.11541 0.13229,-0.25648 z M 58.208335,122.2942 c -0.238466,-0.15411 -0.2711,-0.2581 -0.08176,-0.26053 0.173313,-0.002 0.3887,0.11501 0.478637,0.26053 0.203015,0.32849 0.111421,0.32849 -0.396875,0 z m 73.818745,-0.26459 c 0.21828,-0.14106 0.51594,-0.25647 0.66146,-0.25647 0.14552,0 0.086,0.11541 -0.13229,0.25647 -0.21828,0.14107 -0.51594,0.25648 -0.66146,0.25648 -0.14552,0 -0.086,-0.11541 0.13229,-0.25648 z m -77.406196,-1.73438 c -0.493189,-0.39513 -0.489945,-0.40001 0.08172,-0.12299 0.327422,0.15867 0.595312,0.34383 0.595312,0.41147 0,0.20247 -0.137215,0.144 -0.677034,-0.28848 z m 81.639536,0.14688 c 0.21828,-0.14106 0.51593,-0.25647 0.66146,-0.25647 0.14552,0 0.086,0.11541 -0.1323,0.25647 -0.21828,0.14107 -0.51593,0.25648 -0.66145,0.25648 -0.14553,0 -0.086,-0.11541 0.13229,-0.25648 z m -85.088681,-2.18281 -0.504029,-0.59531 0.595312,0.50403 c 0.559446,0.47366 0.715762,0.68659 0.504029,0.68659 -0.05021,0 -0.318098,-0.26789 -0.595312,-0.59531 z m 64.543631,-2.05052 c 0,-1.23693 0.0456,-1.74294 0.10128,-1.12448 0.0557,0.61847 0.0557,1.6305 0,2.24896 -0.0557,0.61846 -0.10128,0.11245 -0.10128,-1.12448 z m 18.25275,0 c 0,-1.0914 0.0467,-1.53789 0.10379,-0.99219 0.0571,0.54571 0.0571,1.43868 0,1.98438 -0.0571,0.5457 -0.10379,0.0992 -0.10379,-0.99219 z M 50.620103,115.9442 c 0,-0.94589 0.04802,-1.33284 0.106715,-0.8599 0.05869,0.47294 0.05869,1.24685 0,1.71979 -0.05869,0.47295 -0.106715,0.086 -0.106715,-0.85989 z m 97.414277,0 c 0.72736,-0.31256 1.1451,-0.31256 0.66145,0 -0.21828,0.14106 -0.57547,0.24993 -0.79375,0.24193 -0.26169,-0.01 -0.21662,-0.092 0.1323,-0.24193 z m 3.57187,-1.32292 c 0.21828,-0.14106 0.51594,-0.25648 0.66146,-0.25648 0.14552,0 0.086,0.11542 -0.13229,0.25648 -0.21828,0.14107 -0.51594,0.25648 -0.66146,0.25648 -0.14552,0 -0.086,-0.11541 0.13229,-0.25648 z m 1.98438,-0.79375 c 0.72736,-0.31256 1.1451,-0.31256 0.66145,0 -0.21828,0.14107 -0.57547,0.24994 -0.79375,0.24194 -0.26169,-0.01 -0.21662,-0.092 0.1323,-0.24194 z m 5.95312,-2.22065 c 0,-0.0572 0.18478,-0.17489 0.41062,-0.26155 0.23546,-0.0904 0.34166,-0.046 0.24897,0.10398 -0.15538,0.25141 -0.65959,0.37186 -0.65959,0.15757 z m -79.242707,-0.95435 c -0.674217,-0.28972 0.02138,-0.28972 0.926041,0 0.531742,0.1703 0.557687,0.21336 0.132292,0.21961 -0.291042,0.004 -0.767292,-0.0945 -1.058333,-0.21961 z m 80.659537,-2.24896 c -7.9e-4,-1.30968 0.0439,-1.87882 0.0994,-1.26475 0.0555,0.61407 0.0562,1.68563 0.002,2.38125 -0.0548,0.69561 -0.1002,0.19319 -0.10101,-1.1165 z m -45.24521,-0.13229 c 0,-1.23693 0.0456,-1.74294 0.10128,-1.12448 0.0557,0.61847 0.0557,1.6305 0,2.24896 -0.0557,0.61846 -0.10128,0.11245 -0.10128,-1.12448 z m -65.08925,-0.13229 c 0.0011,-1.16417 0.04748,-1.60751 0.10337,-0.98519 0.05589,0.62231 0.05511,1.57481 -0.0019,2.11666 -0.05685,0.54186 -0.102582,0.0327 -0.101621,-1.13147 z m 83.34375,0 c 0.001,-1.16417 0.0475,-1.60751 0.10337,-0.98519 0.0559,0.62231 0.0551,1.57481 -0.002,2.11666 -0.0568,0.54186 -0.10258,0.0327 -0.10162,-1.13147 z m -59.819813,-1.05833 c 0.0029,-0.58209 0.05712,-0.78906 0.120407,-0.45994 0.06328,0.32912 0.06088,0.80537 -0.0053,1.05833 -0.06622,0.25297 -0.118004,-0.0163 -0.115067,-0.59839 z m -8.533389,-0.79375 c -0.509323,-0.19614 -0.747448,-0.35662 -0.529167,-0.35662 0.218282,0 0.813594,0.16048 1.322917,0.35662 0.509323,0.19613 0.747448,0.35661 0.529167,0.35661 -0.218282,0 -0.813594,-0.16048 -1.322917,-0.35661 z m 3.765383,-6.495524 c -0.04377,-4.833218 -0.151717,-6.850605 -0.378716,-7.077605 -0.241253,-0.241252 -0.242464,-0.3175 -0.005,-0.3175 0.537477,0 0.60612,1.004383 0.524406,7.672919 l -0.07943,6.48229 -0.06122,-6.760104 z m -5.402492,5.917904 c 0.190994,-0.0764 0.419198,-0.067 0.507119,0.0209 0.08792,0.0879 -0.06835,0.15045 -0.347266,0.13896 -0.308226,-0.0127 -0.370919,-0.0754 -0.159853,-0.15985 z m -1.688373,-7.0953 c 1.75e-4,-3.4925 0.03782,-4.884656 0.08366,-3.093681 0.04584,1.790976 0.0457,4.648471 -2.64e-4,6.350001 -0.04606,1.70152 -0.08357,0.23618 -0.0834,-3.25632 z m -4.744309,5.4013 c -0.429102,-0.20277 -0.386792,-0.22212 0.223744,-0.10231 0.433118,0.085 0.938829,0.002 1.190625,-0.19437 0.391195,-0.30576 0.399122,-0.29291 0.07459,0.1209 -0.401775,0.5123 -0.701834,0.54773 -1.488958,0.17578 z m -1.240235,-0.42266 c 0.190995,-0.0764 0.419198,-0.067 0.507119,0.0209 0.08792,0.0879 -0.06835,0.15045 -0.347266,0.13897 -0.308226,-0.0127 -0.370919,-0.0754 -0.159853,-0.15986 z m -2.684417,-0.78941 c -0.09701,-0.097 -0.17639,-2.69257 -0.17639,-5.767912 0,-5.977212 0.05836,-6.253281 1.309687,-6.195224 0.626319,0.02906 0.617781,0.04349 -0.119062,0.201203 l -0.79375,0.169897 v 5.884341 c 0,3.236385 -0.0099,5.884285 -0.02204,5.884215 -0.01212,-7e-5 -0.101425,-0.0795 -0.198437,-0.17652 z m 20.553558,-2.46944 c 0,-1.236926 0.04558,-1.742941 0.101282,-1.124478 0.0557,0.618464 0.0557,1.630498 0,2.248958 -0.0557,0.61846 -0.101282,0.11245 -0.101282,-1.12448 z m 41.541047,-0.13229 c -7.9e-4,-1.309688 0.0439,-1.878828 0.0994,-1.264754 0.0555,0.614072 0.0562,1.685634 0.002,2.381254 -0.0547,0.69561 -0.10008,0.19319 -0.10088,-1.1165 z m -65.09071,0 c 0.0011,-1.164167 0.04748,-1.607505 0.10337,-0.985195 0.05589,0.622311 0.05511,1.574815 -0.0019,2.116665 -0.05685,0.54186 -0.102582,0.0327 -0.101621,-1.13147 z m 83.34375,0 c 0.001,-1.164167 0.0475,-1.607505 0.10337,-0.985195 0.0559,0.622311 0.0551,1.574815 -0.002,2.116665 -0.0568,0.54186 -0.10258,0.0327 -0.10162,-1.13147 z m 26.9875,0 c 0.001,-1.164167 0.0475,-1.607505 0.10337,-0.985195 0.0559,0.622311 0.0551,1.574815 -0.002,2.116665 -0.0568,0.54186 -0.10259,0.0327 -0.10162,-1.13147 z m -17.50029,1.40229 c -0.17462,-0.17462 -0.3175,-0.43551 -0.3175,-0.57974 0,-0.14422 0.14883,-0.0709 0.33073,0.16289 0.1819,0.23382 0.56886,0.48089 0.8599,0.54905 0.51783,0.12126 0.51755,0.12457 -0.0132,0.15461 -0.29832,0.0169 -0.68527,-0.11218 -0.8599,-0.28681 z m 8.87677,-1.44523 c 0.18191,-0.0734 0.47956,-0.0734 0.66146,0 0.1819,0.0734 0.0331,0.13346 -0.33073,0.13346 -0.3638,0 -0.51263,-0.0601 -0.33073,-0.13346 z m 1.32292,-0.26458 c 0.1819,-0.0734 0.47956,-0.0734 0.66146,0 0.1819,0.0734 0.0331,0.13345 -0.33073,0.13345 -0.3638,0 -0.51263,-0.06005 -0.33073,-0.13345 z m 1.60404,-0.270095 c 0.19099,-0.07643 0.4192,-0.06703 0.50712,0.02088 0.0879,0.08792 -0.0684,0.150452 -0.34727,0.138964 -0.30823,-0.0127 -0.37092,-0.07539 -0.15985,-0.15985 z M 83.22847,94.061339 c -0.143585,-0.377084 -0.113195,-0.407475 0.148113,-0.148114 0.180822,0.179477 0.262115,0.39297 0.180652,0.474432 -0.08146,0.08146 -0.229407,-0.06538 -0.328765,-0.326318 z M 50.62612,92.26399 c 0.0011,-1.164167 0.04748,-1.607505 0.10337,-0.985195 0.05589,0.622311 0.05511,1.574811 -0.0019,2.116667 -0.05685,0.541856 -0.102582,0.03269 -0.101621,-1.131472 z m 65.01769,1.565452 c 0.0127,-0.308226 0.0754,-0.370919 0.15985,-0.159853 0.0764,0.190994 0.067,0.4192 -0.0209,0.507119 -0.0879,0.08792 -0.15045,-0.06835 -0.13896,-0.347266 z m 18.31103,-0.771702 c 0.002,-0.727604 0.0534,-0.993857 0.11419,-0.591675 0.0608,0.402183 0.0592,0.997495 -0.004,1.322917 -0.0628,0.325422 -0.11256,-0.0037 -0.11058,-0.731242 z m 27.00253,-0.79375 c 0.001,-1.164167 0.0475,-1.607505 0.10337,-0.985195 0.0559,0.622311 0.0551,1.574811 -0.002,2.116667 -0.0568,0.541856 -0.10259,0.03269 -0.10162,-1.131472 z m -79.796431,1.27998 c 0.181901,-0.0734 0.479557,-0.0734 0.661458,0 0.181901,0.0734 0.03307,0.133453 -0.330729,0.133453 -0.363802,0 -0.51263,-0.06006 -0.330729,-0.133453 z M 78.11823,93.272229 c 0.254662,-0.06655 0.671381,-0.06655 0.926042,0 0.254661,0.06655 0.0463,0.121002 -0.463021,0.121002 -0.509323,0 -0.717682,-0.05445 -0.463021,-0.121002 z m 23.94479,-0.0043 c 0.32742,-0.06307 0.8632,-0.06307 1.19063,0 0.32742,0.06306 0.0595,0.114663 -0.59532,0.114663 -0.65484,0 -0.92273,-0.0516 -0.59531,-0.114663 z M 76.006599,93.006678 c 0.257431,-0.06708 0.614619,-0.06267 0.79375,0.0098 0.179131,0.07248 -0.03149,0.127362 -0.468056,0.12197 -0.436563,-0.0054 -0.583126,-0.06469 -0.325694,-0.131773 z m 29.499091,-0.0038 c 0.32912,-0.06328 0.80537,-0.06088 1.05833,0.0053 0.25297,0.06622 -0.0163,0.118004 -0.59839,0.115067 -0.58209,-0.0029 -0.78906,-0.05712 -0.45994,-0.120406 z m 4.23499,-0.269205 c 0.47555,-0.05889 1.18992,-0.05767 1.5875,0.0027 0.39757,0.06037 0.008,0.108551 -0.86464,0.107067 -0.87312,-0.0016 -1.19841,-0.05088 -0.72286,-0.109765 z m 4.16245,-0.07282 -1.5875,-0.175625 1.50573,-0.04448 c 0.82816,-0.02447 1.57933,0.07458 1.66927,0.220105 0.0899,0.145521 0.12673,0.244567 0.0818,0.220104 -0.045,-0.02446 -0.79614,-0.12351 -1.66926,-0.220104 z M 67.539932,92.212928 c 0.257432,-0.06708 0.614619,-0.06267 0.79375,0.0098 0.179131,0.07248 -0.03149,0.127362 -0.468056,0.12197 -0.436562,-0.0054 -0.583125,-0.06469 -0.325694,-0.131773 z m -2.766623,-0.261969 c 0.190994,-0.07643 0.4192,-0.06703 0.507119,0.02088 0.08792,0.08792 -0.06835,0.150453 -0.347266,0.138965 -0.308226,-0.0127 -0.370919,-0.07539 -0.159853,-0.159851 z m 61.499091,-0.26623 c 0.25466,-0.06655 0.67138,-0.06655 0.92604,0 0.25466,0.06655 0.0463,0.121002 -0.46302,0.121002 -0.50933,0 -0.71769,-0.05445 -0.46302,-0.121002 z m 3.175,-0.264583 c 0.25466,-0.06655 0.67138,-0.06655 0.92604,0 0.25466,0.06655 0.0463,0.121002 -0.46302,0.121002 -0.50933,0 -0.71769,-0.05445 -0.46302,-0.121002 z M 56.956599,91.154594 c 0.257432,-0.06708 0.614619,-0.06267 0.79375,0.0098 0.179131,0.07248 -0.03149,0.127363 -0.468056,0.121971 -0.436562,-0.0054 -0.583126,-0.06469 -0.325694,-0.131773 z m 86.187031,-0.0058 c -0.007,-0.543441 0.95226,-0.871133 2.42596,-0.828858 l 1.40645,0.04034 -1.66339,0.158242 c -1.04979,0.09987 -1.7559,0.304585 -1.91417,0.554966 -0.15675,0.247965 -0.25231,0.276204 -0.25485,0.07531 z m 5.60792,-0.499015 c -0.18764,-0.203613 -0.22443,-0.370197 -0.0818,-0.370197 0.27475,0 0.67249,0.503293 0.51556,0.652375 -0.051,0.0484 -0.24616,-0.07858 -0.4338,-0.282186 z m 5.30713,-0.818126 c 0.25743,-0.06708 0.61462,-0.06267 0.79375,0.0098 0.17913,0.07248 -0.0315,0.127362 -0.46805,0.12197 -0.43657,-0.0054 -0.58313,-0.06469 -0.3257,-0.131773 z M 50.622239,84.591073 c 0.0011,-1.018646 0.04899,-1.402943 0.106272,-0.853996 0.05728,0.54895 0.05631,1.382387 -0.0021,1.852084 -0.05845,0.469699 -0.105313,0.02056 -0.104138,-0.998088 z M 160.95737,84.32649 c 0.001,-1.164167 0.0475,-1.607505 0.10337,-0.985195 0.0559,0.622311 0.0551,1.574811 -0.002,2.116667 -0.0568,0.541856 -0.10259,0.03269 -0.10162,-1.131472 z m -9.12029,-1.653646 c -0.31681,-0.403966 -0.31208,-0.423355 0.0371,-0.152006 0.22012,0.171056 0.87497,0.359402 1.45521,0.418542 l 1.05498,0.107529 -1.09209,0.04448 c -0.76439,0.03113 -1.20104,-0.09446 -1.45521,-0.418544 z m -4.33523,0.0019 c 0.58024,-0.05914 1.23509,-0.247486 1.45521,-0.418542 0.34919,-0.271349 0.35392,-0.25196 0.0371,0.152006 -0.25417,0.324088 -0.69082,0.449675 -1.45521,0.418544 l -1.09208,-0.04448 z m -3.61813,-0.248838 c 0.191,-0.07643 0.4192,-0.06703 0.50712,0.02088 0.0879,0.08792 -0.0684,0.150452 -0.34726,0.138964 -0.30823,-0.0127 -0.37092,-0.07539 -0.15986,-0.159851 z M 53.622225,81.901142 c -0.09701,-0.09701 -0.17639,-2.692575 -0.17639,-5.767917 0,-5.718067 0.08933,-6.248842 1.045104,-6.209755 0.247131,0.01011 0.169611,0.11331 -0.195072,0.259704 l -0.605179,0.242938 0.07601,5.825948 c 0.0418,3.204271 0.06609,5.825842 0.05396,5.825709 -0.01212,-1.29e-4 -0.101425,-0.07961 -0.198437,-0.176627 z m 2.403297,0.0011 c 0.181901,-0.0734 0.479558,-0.0734 0.661459,0 0.181901,0.0734 0.03307,0.133453 -0.330729,0.133453 -0.363803,0 -0.512631,-0.06005 -0.33073,-0.133453 z m 78.448958,-0.0071 c 0.25466,-0.06655 0.67138,-0.06655 0.92604,0 0.25466,0.06655 0.0463,0.121002 -0.46302,0.121002 -0.50932,0 -0.71768,-0.05445 -0.46302,-0.121002 z m -3.96875,-0.264583 c 0.25466,-0.06655 0.67138,-0.06655 0.92604,0 0.25466,0.06655 0.0463,0.121002 -0.46302,0.121002 -0.50932,0 -0.71768,-0.05445 -0.46302,-0.121002 z m 6.37067,-1.537317 c 0.001,-1.018645 0.049,-1.402942 0.10628,-0.853995 0.0573,0.548949 0.0563,1.382387 -0.002,1.852083 -0.0584,0.469699 -0.10531,0.02056 -0.10414,-0.998088 z m -73.707128,1.27998 c 0.181901,-0.0734 0.479558,-0.0734 0.661459,0 0.181901,0.0734 0.03307,0.133454 -0.33073,0.133454 -0.363802,0 -0.51263,-0.06006 -0.330729,-0.133454 z m 2.248959,-0.278862 c 0.400182,-0.06062 1.055026,-0.06062 1.455208,0 0.400182,0.06062 0.07276,0.110222 -0.727604,0.110222 -0.800365,0 -1.127787,-0.0496 -0.727604,-0.110222 z m 53.181249,-0.0032 c 0.5457,-0.05708 1.43867,-0.05708 1.98437,0 0.54571,0.05708 0.0992,0.103785 -0.99218,0.103785 -1.09141,0 -1.53789,-0.0467 -0.99219,-0.103785 z M 68.882203,80.68558 c 0.415258,-0.303644 0.449525,-0.955273 0.381299,-7.251034 -0.04123,-3.804576 0.01434,-6.862106 0.123478,-6.79451 0.109141,0.06759 0.198438,3.187684 0.198438,6.933533 0,6.750801 -0.08373,7.445629 -0.897236,7.445629 -0.14423,0 -0.05692,-0.15013 0.194021,-0.333624 z m 46.413067,0.146494 c 0.32912,-0.06329 0.80537,-0.06088 1.05834,0.0053 0.25296,0.06622 -0.0163,0.118004 -0.5984,0.115067 -0.58208,-0.0029 -0.78905,-0.05712 -0.45994,-0.120407 z M 62.235997,74.644065 c -0.05431,-5.755362 -0.02114,-6.277041 0.424942,-6.680729 0.26612,-0.240837 0.653074,-0.436128 0.859896,-0.433983 0.206822,0.0021 0.07839,0.154358 -0.285417,0.338249 l -0.661458,0.334349 -0.139526,6.34248 -0.139525,6.342481 z m 51.920833,5.828369 c -0.0959,-0.155202 -0.11766,-0.338931 -0.0483,-0.408287 0.0694,-0.06936 0.1966,0.05763 0.28277,0.282187 0.17891,0.466224 0.0264,0.548232 -0.23447,0.1261 z M 74.524308,80.313647 c -0.09701,-0.09701 -0.174567,-0.305372 -0.172339,-0.463021 0.0026,-0.184814 0.07432,-0.176152 0.201871,0.02439 0.1088,0.171061 0.672524,0.359407 1.252721,0.418544 l 1.054899,0.107524 -1.080382,0.04448 c -0.594211,0.02445 -1.159758,-0.0349 -1.25677,-0.131913 z m 49.414482,-5.909032 c 0,-3.41974 0.0377,-4.818724 0.0838,-3.108854 0.0461,1.709869 0.0461,4.507838 0,6.217708 -0.0461,1.70987 -0.0838,0.310885 -0.0838,-3.108854 z m 5.28152,2.645833 c 0,-1.964531 0.0416,-2.768203 0.0926,-1.785937 0.0509,0.982265 0.0509,2.589609 0,3.571875 -0.0509,0.982265 -0.0926,0.178593 -0.0926,-1.785938 z M 78.779689,80.05022 c 0.181901,-0.0734 0.479557,-0.0734 0.661458,0 0.181901,0.0734 0.03307,0.133453 -0.330729,0.133453 -0.363802,0 -0.51263,-0.06006 -0.330729,-0.133453 z m 23.021831,-0.01191 c 0.32912,-0.06329 0.80537,-0.06088 1.05834,0.0053 0.25296,0.06622 -0.0163,0.118004 -0.5984,0.115067 -0.58208,-0.0029 -0.78905,-0.05712 -0.45994,-0.120406 z M 81.29323,79.778479 c 0.254662,-0.06655 0.671381,-0.06655 0.926042,0 0.254661,0.06655 0.0463,0.121002 -0.463021,0.121002 -0.509323,0 -0.717682,-0.05445 -0.463021,-0.121002 z m 16.804127,-0.0047 c 0.329118,-0.06328 0.805368,-0.06088 1.058333,0.0053 0.252966,0.06622 -0.01633,0.118004 -0.598397,0.115067 -0.582084,-0.0029 -0.789054,-0.05712 -0.459936,-0.120406 z m -4.501002,-0.25269 c 0.181901,-0.0734 0.479557,-0.0734 0.661458,0 0.181901,0.0734 0.03307,0.133453 -0.330729,0.133453 -0.363802,0 -0.51263,-0.06005 -0.330729,-0.133453 z M 50.62612,76.38899 c 0.0011,-1.164167 0.04748,-1.607505 0.10337,-0.985195 0.05589,0.622311 0.05511,1.574811 -0.0019,2.116667 -0.05685,0.541856 -0.102582,0.03269 -0.101621,-1.131472 z m 23.549663,-0.132292 c 0,-1.236927 0.04558,-1.742943 0.101282,-1.124479 0.0557,0.618463 0.0557,1.630495 0,2.248958 -0.0557,0.618464 -0.101282,0.112448 -0.101282,-1.124479 z m 86.783327,0 c 0,-1.236927 0.0456,-1.742943 0.10129,-1.124479 0.0557,0.618463 0.0557,1.630495 0,2.248958 -0.0557,0.618464 -0.10129,0.112448 -0.10129,-1.124479 z m -24.07708,-4.233333 c 0,-1.236927 0.0456,-1.742943 0.10128,-1.124479 0.0557,0.618463 0.0557,1.630494 0,2.248958 -0.0557,0.618463 -0.10128,0.112448 -0.10128,-1.124479 z m -7.6933,0.264583 c 0,-0.654844 0.0516,-0.922734 0.11466,-0.595312 0.0631,0.327421 0.0631,0.863203 0,1.190625 -0.0631,0.327421 -0.11466,0.05953 -0.11466,-0.595313 z m 22.64328,0.726744 c 0.1333,-0.133307 0.524,-0.198077 0.8682,-0.143933 0.52962,0.08331 0.49235,0.120579 -0.24238,0.242382 -0.52578,0.08716 -0.77261,0.04834 -0.62582,-0.09845 z m 2.61851,0.156361 c 0.1819,-0.0734 0.47956,-0.0734 0.66146,0 0.1819,0.0734 0.0331,0.133453 -0.33073,0.133453 -0.3638,0 -0.51263,-0.06006 -0.33073,-0.133453 z m -6.87917,-1.322917 c 0.18191,-0.0734 0.47956,-0.0734 0.66146,0 0.1819,0.0734 0.0331,0.133454 -0.33073,0.133454 -0.3638,0 -0.51263,-0.06005 -0.33073,-0.133454 z m -1.45017,-0.272708 c 0.25743,-0.06708 0.61462,-0.06267 0.79375,0.0098 0.17913,0.07248 -0.0315,0.127362 -0.46805,0.12197 -0.43657,-0.0054 -0.58313,-0.06469 -0.3257,-0.131773 z m -1.46024,-0.256458 c 0.1819,-0.0734 0.47955,-0.0734 0.66146,0 0.1819,0.0734 0.0331,0.133453 -0.33073,0.133453 -0.36381,0 -0.51263,-0.06005 -0.33073,-0.133453 z m -15.48289,-1.147689 c 0,-0.509323 0.0544,-0.717682 0.121,-0.46302 0.0666,0.254661 0.0666,0.67138 0,0.926041 -0.0666,0.254662 -0.121,0.0463 -0.121,-0.463021 z M 74.175783,68.319198 c 0,-1.236927 0.04558,-1.742943 0.101282,-1.124479 0.0557,0.618463 0.0557,1.630495 0,2.248958 -0.0557,0.618464 -0.101282,0.112448 -0.101282,-1.124479 z m 86.781587,-0.132292 c 0.001,-1.164166 0.0475,-1.607505 0.10337,-0.985194 0.0559,0.62231 0.0551,1.57481 -0.002,2.116666 -0.0568,0.541857 -0.10259,0.0327 -0.10162,-1.131472 z M 55.43021,69.642115 c 0.291042,-0.125066 0.70776,-0.227391 0.926042,-0.227391 0.250158,0 0.201252,0.08406 -0.132292,0.227391 -0.291042,0.125066 -0.707761,0.227391 -0.926042,0.227391 -0.250158,0 -0.201252,-0.08406 0.132292,-0.227391 z m 80.51601,0.08384 c 0.191,-0.07643 0.4192,-0.06703 0.50712,0.02088 0.0879,0.08792 -0.0684,0.150453 -0.34726,0.138965 -0.30823,-0.0127 -0.37092,-0.07539 -0.15986,-0.159851 z M 50.622239,67.922323 c 0.0011,-1.018646 0.04899,-1.402943 0.106272,-0.853996 0.05728,0.54895 0.05631,1.382387 -0.0021,1.852084 -0.05845,0.469699 -0.105313,0.02056 -0.104138,-0.998088 z m 83.857271,1.536438 c 0.25744,-0.06708 0.61462,-0.06267 0.79375,0.0098 0.17914,0.07248 -0.0315,0.127363 -0.46805,0.12197 -0.43656,-0.0054 -0.58313,-0.06469 -0.3257,-0.131773 z M 57.100392,69.196792 c 0.190995,-0.07643 0.419198,-0.06703 0.507119,0.02088 0.08792,0.08792 -0.06835,0.150453 -0.347266,0.138965 -0.308226,-0.0127 -0.370919,-0.07539 -0.159853,-0.159851 z m 75.918878,0.0055 c 0.1819,-0.0734 0.47956,-0.0734 0.66146,0 0.1819,0.0734 0.0331,0.133453 -0.33073,0.133453 -0.3638,0 -0.51263,-0.06005 -0.33073,-0.133453 z M 58.158725,68.932201 c 0.190995,-0.07643 0.419198,-0.06703 0.507119,0.02087 0.08792,0.08792 -0.06835,0.150453 -0.347265,0.138965 -0.308227,-0.0127 -0.37092,-0.07539 -0.159854,-0.159851 z m 71.438945,-0.141513 c 0.1411,-0.141097 0.47755,-0.209695 0.74766,-0.15244 0.36376,0.0771 0.29723,0.143637 -0.25654,0.256543 -0.48281,0.09844 -0.65679,0.06156 -0.49112,-0.104103 z m -6.30184,-1.26524 c -0.23846,-0.154109 -0.2711,-0.258098 -0.0818,-0.260533 0.17331,-0.0021 0.3887,0.115012 0.47864,0.260533 0.20301,0.328488 0.11142,0.328488 -0.39688,0 z M 65.037892,67.080125 c 0.190995,-0.07643 0.419201,-0.06703 0.507119,0.02088 0.08792,0.08792 -0.06835,0.150452 -0.347266,0.138964 -0.308226,-0.0127 -0.370919,-0.07539 -0.159853,-0.15985 z m 56.604298,0.0055 c 0.1819,-0.0734 0.47956,-0.0734 0.66146,0 0.1819,0.0734 0.0331,0.133453 -0.33073,0.133453 -0.3638,0 -0.51263,-0.06006 -0.33073,-0.133453 z m -1.57097,-0.270095 c 0.191,-0.07643 0.41921,-0.06703 0.50712,0.02088 0.0879,0.08792 -0.0683,0.150452 -0.34726,0.138964 -0.30823,-0.0127 -0.37092,-0.07539 -0.15986,-0.159851 z m -4.23333,-0.79375 c 0.191,-0.07643 0.4192,-0.06703 0.50712,0.02088 0.0879,0.08792 -0.0683,0.150452 -0.34727,0.138964 -0.30822,-0.0127 -0.37091,-0.07539 -0.15985,-0.159851 z m 44.38289,-0.489125 c -0.28247,-0.213653 -0.38635,-0.388461 -0.23083,-0.388461 0.15552,0 0.43098,0.178594 0.61213,0.396875 0.41201,0.496443 0.2824,0.493583 -0.3813,-0.0084 z m -5.04265,-1.711378 c -0.34892,-0.149934 -0.39399,-0.232343 -0.1323,-0.241935 0.21828,-0.008 0.57547,0.10087 0.79375,0.241935 0.48365,0.312558 0.0659,0.312558 -0.66145,0 z m -52.30482,-0.180739 c 0.19099,-0.07643 0.4192,-0.06703 0.50712,0.02087 0.0879,0.08792 -0.0684,0.150453 -0.34727,0.138965 -0.30822,-0.0127 -0.37092,-0.07539 -0.15985,-0.159851 z m -1.32292,-0.264583 c 0.191,-0.07643 0.4192,-0.06703 0.50712,0.02087 0.0879,0.08792 -0.0683,0.150453 -0.34727,0.138965 -0.30822,-0.0127 -0.37091,-0.07539 -0.15985,-0.159851 z m -21.166665,-0.26458 c 0.190995,-0.07643 0.419201,-0.06703 0.507119,0.02088 0.08792,0.08792 -0.06835,0.150452 -0.347266,0.138964 -0.308226,-0.0127 -0.370919,-0.07539 -0.159853,-0.15985 z m 19.435373,-0.0026 c 0.257432,-0.06708 0.614622,-0.06267 0.793752,0.0098 0.17913,0.07248 -0.0315,0.127363 -0.46806,0.121971 -0.43656,-0.0054 -0.583123,-0.06469 -0.325692,-0.131773 z M 81.442058,62.84676 c 0.190995,-0.07643 0.419201,-0.06703 0.507119,0.02088 0.08792,0.08792 -0.06835,0.150452 -0.347265,0.138964 -0.308227,-0.0127 -0.37092,-0.07539 -0.159854,-0.15985 z m 16.652214,0.0055 c 0.181901,-0.0734 0.479557,-0.0734 0.661458,0 0.181901,0.0734 0.03307,0.133454 -0.330729,0.133454 -0.363802,0 -0.51263,-0.06006 -0.330729,-0.133454 z m -15.59388,-0.270094 c 0.190995,-0.07643 0.4192,-0.06703 0.507119,0.02087 0.08792,0.08792 -0.06835,0.150453 -0.347266,0.138965 -0.308226,-0.0127 -0.370919,-0.07539 -0.159853,-0.159851 z m 14.2875,0 c 0.190994,-0.07643 0.4192,-0.06703 0.507118,0.02087 0.08792,0.08792 -0.06835,0.150453 -0.347265,0.138965 -0.308227,-0.0127 -0.37092,-0.07539 -0.159853,-0.159851 z M 50.62612,60.249406 c 0.0011,-1.164166 0.04748,-1.607505 0.10337,-0.985194 0.05589,0.62231 0.05511,1.57481 -0.0019,2.116666 -0.05685,0.541857 -0.102582,0.03269 -0.101621,-1.131472 z m 43.251355,1.803636 c 0.190995,-0.07643 0.4192,-0.06703 0.507119,0.02088 0.08792,0.08792 -0.06835,0.150453 -0.347266,0.138965 -0.308226,-0.0127 -0.370919,-0.07539 -0.159853,-0.159851 z m 55.215235,-0.08384 c -0.33355,-0.14333 -0.38245,-0.227391 -0.13229,-0.227391 0.21828,0 0.635,0.102325 0.92604,0.227391 0.33354,0.14333 0.38245,0.227391 0.13229,0.227391 -0.21828,0 -0.635,-0.102325 -0.92604,-0.227391 z M 53.506311,55.188573 c -0.05466,-5.052494 -0.01595,-5.624915 0.402545,-5.953125 0.408659,-0.320493 0.424839,-0.314127 0.137797,0.05422 -0.22742,0.291844 -0.348474,2.082094 -0.402542,5.953125 l -0.07732,5.535777 z m 80.240569,4.928542 c -0.33355,-0.14333 -0.38245,-0.227391 -0.1323,-0.227391 0.21828,0 0.635,0.102325 0.92605,0.227391 0.33354,0.14333 0.38245,0.227391 0.13229,0.227391 -0.21828,0 -0.635,-0.102325 -0.92604,-0.227391 z M 57.414585,59.852531 c 0.218281,-0.141065 0.515937,-0.256479 0.661458,-0.256479 0.145521,0 0.08599,0.115414 -0.132291,0.256479 -0.218282,0.141066 -0.515938,0.25648 -0.661459,0.25648 -0.145521,0 -0.08599,-0.115414 0.132292,-0.25648 z m 84.798955,0 c -0.33354,-0.14333 -0.38245,-0.22739 -0.13229,-0.22739 0.21828,0 0.635,0.102324 0.92604,0.22739 0.33355,0.14333 0.38245,0.227391 0.13229,0.227391 -0.21828,0 -0.635,-0.102325 -0.92604,-0.227391 z m -10.50065,-0.445322 c 0.191,-0.07643 0.4192,-0.06703 0.50712,0.02087 0.0879,0.08792 -0.0684,0.150453 -0.34727,0.138965 -0.30822,-0.0127 -0.37092,-0.07539 -0.15985,-0.159851 z m 9.16499,-0.153935 c -0.0706,-0.184071 -0.0946,-3.547586 -0.0533,-7.474479 l 0.0751,-7.139805 0.0616,7.320139 c 0.0468,5.561407 0.1411,7.352202 0.39237,7.453591 0.25904,0.104526 0.25724,0.13798 -0.008,0.154339 -0.18647,0.01148 -0.39683,-0.129714 -0.46746,-0.313785 z m -3.99759,-2.972618 c 0.001,-1.164166 0.0475,-1.607505 0.10337,-0.985194 0.0559,0.62231 0.0551,1.57481 -0.002,2.116666 -0.0568,0.541857 -0.10258,0.03269 -0.10162,-1.131472 z M 62.238111,50.566977 c -0.06045,-6.184125 -0.05543,-6.247588 0.534286,-6.746875 0.593662,-0.502632 0.594043,-0.502518 0.137293,0.04044 -0.400553,0.476163 -0.467588,1.322668 -0.534287,6.746875 l -0.07627,6.202402 z m 66.988839,1.215763 c 2.6e-4,-2.764896 0.0395,-3.860041 0.0871,-2.433654 0.0477,1.426388 0.0475,3.688575 -5.3e-4,5.027084 -0.0479,1.338508 -0.0869,0.171466 -0.0867,-2.59343 z m -8.62656,4.184885 c 0.191,-0.07643 0.4192,-0.06703 0.50712,0.02088 0.0879,0.08792 -0.0684,0.150452 -0.34727,0.138964 -0.30822,-0.0127 -0.37091,-0.07539 -0.15985,-0.15985 z M 67.204168,55.486906 c 0.363802,-0.207967 0.780521,-0.378124 0.926042,-0.378124 0.145521,0 -0.03307,0.170157 -0.396875,0.378124 -0.363802,0.207968 -0.780521,0.378124 -0.926042,0.378124 -0.145521,0 0.03307,-0.170156 0.396875,-0.378124 z m 52.337892,0.216136 c 0.19099,-0.07643 0.4192,-0.06703 0.50712,0.02087 0.0879,0.08792 -0.0684,0.150453 -0.34727,0.138965 -0.30823,-0.0127 -0.37092,-0.07539 -0.15985,-0.159851 z m 4.39004,-3.920302 c 2.7e-4,-2.328334 0.0408,-3.245414 0.0899,-2.037959 0.0491,1.207458 0.0489,3.112458 -5.3e-4,4.233334 -0.0495,1.120878 -0.0897,0.132958 -0.0893,-2.195375 z M 69.188543,47.549406 c 0,-3.974031 0.0893,-7.170322 0.198437,-7.102869 0.109141,0.06745 0.198438,3.263744 0.198438,7.102869 0,3.839126 -0.0893,7.035417 -0.198438,7.10287 -0.10914,0.06745 -0.198437,-3.128839 -0.198437,-7.10287 z M 50.622239,52.57649 c 0.0011,-1.018646 0.04899,-1.402943 0.106272,-0.853996 0.05728,0.54895 0.05631,1.382387 -0.0021,1.852083 -0.05845,0.469699 -0.105313,0.02056 -0.104138,-0.998087 z m 25.842346,-1.190625 c 0.218281,-0.141066 0.515937,-0.256479 0.661458,-0.256479 0.145521,0 0.08599,0.115413 -0.132292,0.256479 -0.218281,0.141065 -0.515937,0.256479 -0.661458,0.256479 -0.145521,0 -0.08599,-0.115414 0.132292,-0.256479 z m -2.32967,-0.661459 c 0.0054,-0.436562 0.06469,-0.583125 0.131773,-0.325694 0.06708,0.257432 0.06267,0.614619 -0.0098,0.79375 -0.07248,0.179131 -0.127362,-0.03149 -0.12197,-0.468056 z m 62.654665,-1.227603 c 0,-0.311377 -0.20836,-0.734666 -0.46302,-0.940636 -0.41785,-0.337965 -0.40495,-0.346355 0.13229,-0.08601 0.37832,0.183332 0.59532,0.5262 0.59532,0.940636 0,0.358682 -0.0595,0.65215 -0.13229,0.65215 -0.0728,0 -0.1323,-0.254765 -0.1323,-0.566145 z M 81.227084,49.269198 c 0.218282,-0.141065 0.515938,-0.256479 0.661459,-0.256479 0.145521,0 0.08599,0.115414 -0.132292,0.256479 -0.218281,0.141065 -0.515937,0.256479 -0.661458,0.256479 -0.145521,0 -0.08599,-0.115414 0.132291,-0.256479 z m 16.66875,-0.132292 c -0.509323,-0.196138 -0.747448,-0.356616 -0.529166,-0.356616 0.218281,0 0.813593,0.160478 1.322916,0.356616 0.509323,0.196139 0.747448,0.356616 0.529167,0.356616 -0.218281,0 -0.813594,-0.160477 -1.322917,-0.356616 z M 55.297918,48.361775 c 0,-0.07276 0.238125,-0.259733 0.529167,-0.415494 0.291042,-0.15576 0.529167,-0.22367 0.529167,-0.15091 0,0.07276 -0.238125,0.259733 -0.529167,0.415494 -0.291042,0.15576 -0.529167,0.223671 -0.529167,0.15091 z m 37.440415,-0.941631 c -0.09269,-0.149982 0.01352,-0.194336 0.248967,-0.103984 0.45837,0.175893 0.542235,0.365538 0.16165,0.365538 -0.136932,0 -0.321712,-0.1177 -0.410617,-0.261554 z m -33.85153,-0.454639 c -0.143584,-0.377084 -0.113194,-0.407474 0.148114,-0.148113 0.180822,0.179477 0.262115,0.392969 0.180652,0.474432 -0.08146,0.08146 -0.229407,-0.06538 -0.328766,-0.326319 z m 65.027157,-1.400474 c 0,-1.091406 0.0467,-1.53789 0.10378,-0.992187 0.0571,0.545703 0.0571,1.438672 0,1.984375 -0.0571,0.545703 -0.10378,0.09922 -0.10378,-0.992188 z m 7.31937,0.79375 c -0.21828,-0.141065 -0.27781,-0.256479 -0.13229,-0.256479 0.14552,0 0.44318,0.115414 0.66146,0.256479 0.21828,0.141066 0.27781,0.25648 0.13229,0.25648 -0.14552,0 -0.44318,-0.115414 -0.66146,-0.25648 z M 74.175783,44.242115 c 0,-1.236927 0.04558,-1.742943 0.101282,-1.124479 0.0557,0.618463 0.0557,1.630494 0,2.248958 -0.0557,0.618463 -0.101282,0.112448 -0.101282,-1.124479 z m -23.619476,1.43316 c 0.0127,-0.308226 0.07539,-0.370919 0.159851,-0.159853 0.07643,0.190995 0.06703,0.419198 -0.02088,0.507119 -0.08792,0.08792 -0.150452,-0.06835 -0.138964,-0.347266 z m 0.243695,-0.739306 c 0,-0.05494 0.208359,-0.2633 0.46302,-0.463021 0.419645,-0.329107 0.429004,-0.319749 0.0999,0.0999 -0.345644,0.44073 -0.562917,0.580887 -0.562917,0.363125 z m 1.371311,-1.107991 c 0.244899,-0.281548 0.840211,-0.737182 1.322917,-1.012523 1.035743,-0.590796 0.762873,-0.297675 -0.709853,0.762537 -0.615569,0.443145 -0.872051,0.54773 -0.613064,0.249986 z m 11.443139,-0.615331 c 0.18877,-0.305432 1.208466,-0.921456 1.208466,-0.730062 0,0.06114 -0.312317,0.315807 -0.694034,0.56592 -0.381719,0.250111 -0.613214,0.323977 -0.514432,0.164142 z m 74.632218,-0.290419 c -0.0927,-0.149982 0.0135,-0.194337 0.24896,-0.103984 0.45837,0.175892 0.54224,0.365537 0.16165,0.365537 -0.13693,0 -0.32171,-0.1177 -0.41061,-0.261553 z m -73.159169,-0.64587 c 0,-0.07276 0.238125,-0.259733 0.529167,-0.415493 0.291042,-0.155761 0.529167,-0.223671 0.529167,-0.150911 0,0.07276 -0.238125,0.259734 -0.529167,0.415494 -0.291042,0.15576 -0.529167,0.223671 -0.529167,0.15091 z m 56.356249,-0.15091 c -0.21828,-0.141065 -0.27781,-0.256479 -0.13229,-0.256479 0.14552,0 0.44318,0.115414 0.66146,0.256479 0.21828,0.141065 0.27781,0.256479 0.13229,0.256479 -0.14552,0 -0.44318,-0.115414 -0.66146,-0.256479 z m 12.36927,-1.340932 c -0.5457,-0.288086 -0.99219,-0.582898 -0.99219,-0.65514 0,-0.117883 2.08985,0.85879 2.35921,1.102553 0.30447,0.275545 -0.4903,0.01543 -1.36702,-0.447413 z m -77.192185,-0.08188 c 0,-0.05494 0.208359,-0.2633 0.463021,-0.463021 0.419645,-0.329107 0.429003,-0.319749 0.0999,0.0999 -0.345644,0.440729 -0.562917,0.580887 -0.562917,0.363124 z m 60.589585,-0.42927 c -0.21828,-0.141066 -0.27782,-0.256479 -0.13229,-0.256479 0.14552,0 0.44317,0.115413 0.66145,0.256479 0.21829,0.141065 0.27782,0.256479 0.1323,0.256479 -0.14553,0 -0.44318,-0.115414 -0.66146,-0.256479 z M 58.587369,39.243897 c 0.18877,-0.305432 1.208466,-0.921456 1.208466,-0.730062 0,0.06114 -0.312317,0.315807 -0.694034,0.56592 -0.38172,0.250111 -0.613214,0.323977 -0.514432,0.164142 z m 56.192191,0.05498 c 0.19099,-0.07643 0.4192,-0.06703 0.50712,0.02088 0.0879,0.08792 -0.0684,0.150452 -0.34727,0.138964 -0.30823,-0.0127 -0.37092,-0.07539 -0.15985,-0.15985 z m 15.13086,-0.480719 c -0.36381,-0.207967 -0.5424,-0.378124 -0.39688,-0.378124 0.14552,0 0.56224,0.170157 0.92604,0.378124 0.36381,0.207968 0.5424,0.378124 0.39688,0.378124 -0.14552,0 -0.56224,-0.170156 -0.92604,-0.378124 z M 74.144718,37.627531 c 0,-0.509323 0.05445,-0.717682 0.121002,-0.46302 0.06655,0.254661 0.06655,0.67138 0,0.926041 -0.06655,0.254662 -0.121002,0.0463 -0.121002,-0.463021 z m -13.819717,0.429271 c 0,-0.05494 0.20836,-0.2633 0.463021,-0.463021 0.419645,-0.329107 0.429004,-0.319749 0.0999,0.0999 -0.345643,0.44073 -0.562917,0.580888 -0.562917,0.363125 z m 64.558329,-1.752187 c -0.80036,-0.422831 -1.33614,-0.768784 -1.19062,-0.768784 0.14552,0 0.91943,0.345953 1.71979,0.768784 0.80037,0.42283 1.33615,0.768784 1.19063,0.768784 -0.14553,0 -0.91943,-0.345954 -1.7198,-0.768784 z m -62.706245,0.432908 c 0,-0.07276 0.357187,-0.386633 0.79375,-0.697492 0.436562,-0.310859 0.79375,-0.505669 0.79375,-0.432908 0,0.07276 -0.357188,0.386633 -0.79375,0.697492 -0.436563,0.310859 -0.79375,0.505669 -0.79375,0.432908 z m 2.645833,-1.855721 c 0,-0.05494 0.208359,-0.2633 0.463021,-0.463021 0.419645,-0.329106 0.429003,-0.319748 0.0999,0.0999 -0.345644,0.44073 -0.562917,0.580888 -0.562917,0.363125 z M 120.65,34.187948 c -0.23847,-0.154109 -0.2711,-0.258097 -0.0818,-0.260532 0.17331,-0.0022 0.3887,0.115011 0.47864,0.260532 0.20301,0.328488 0.11142,0.328488 -0.39688,0 z m -54.768749,-0.09626 c 0,-0.07276 0.357188,-0.386631 0.79375,-0.697491 0.436563,-0.31086 0.79375,-0.505668 0.79375,-0.432908 0,0.07276 -0.357187,0.386631 -0.79375,0.697491 -0.436562,0.31086 -0.79375,0.505669 -0.79375,0.432908 z M 101.86458,33.65878 c -0.21828,-0.141064 -0.27781,-0.25648 -0.13229,-0.25648 0.14552,0 0.44318,0.115416 0.66146,0.25648 0.21828,0.141065 0.27781,0.256481 0.13229,0.256481 -0.14552,0 -0.44317,-0.115416 -0.66146,-0.256481 z m -3.439579,-1.455208 c -0.363802,-0.207968 -0.542396,-0.378124 -0.396875,-0.378124 0.145521,0 0.562239,0.170156 0.926042,0.378124 0.363802,0.207968 0.542395,0.378124 0.396875,0.378124 -0.145521,0 -0.56224,-0.170156 -0.926042,-0.378124 z m -17.197917,0.01359 c 0,-0.07276 0.371989,-0.324655 0.826643,-0.559765 0.771727,-0.399075 0.855216,-0.396095 1.256771,0.04486 0.398669,0.437788 0.397653,0.447989 -0.01389,0.139473 -0.361731,-0.271176 -0.594633,-0.254973 -1.256771,0.08743 -0.447011,0.231161 -0.812753,0.360761 -0.812753,0.288002 z M 69.320835,31.706803 c 0,-0.05494 0.208359,-0.263301 0.46302,-0.463021 0.419646,-0.329107 0.429004,-0.319749 0.0999,0.0999 -0.345644,0.440729 -0.562917,0.580887 -0.562917,0.363126 z m 27.516666,-0.164688 c -0.218281,-0.141064 -0.277813,-0.256481 -0.132292,-0.256481 0.145521,0 0.443177,0.115417 0.661459,0.256481 0.218281,0.141064 0.277812,0.25648 0.132291,0.25648 -0.145521,0 -0.443177,-0.115416 -0.661458,-0.25648 z M 70.379168,30.913053 c 0,-0.05494 0.208359,-0.263301 0.463021,-0.463021 0.419645,-0.329107 0.429003,-0.319749 0.0999,0.0999 -0.345644,0.440729 -0.562917,0.580887 -0.562917,0.363126 z M 92.820586,30.16153 c 0.141097,-0.141097 0.477547,-0.209695 0.747665,-0.152439 0.363755,0.0771 0.297222,0.143635 -0.25654,0.25654 -0.482817,0.09844 -0.656791,0.06156 -0.491125,-0.104101 z m 19.479464,-0.08922 c -0.48427,-0.387979 -0.47583,-0.393486 0.14787,-0.09645 0.80989,0.385712 0.96,0.507923 0.62383,0.507923 -0.14196,0 -0.48923,-0.185162 -0.7717,-0.411471 z M 107.95,27.97024 c -0.3638,-0.207968 -0.5424,-0.378124 -0.39687,-0.378124 0.14552,0 0.56224,0.170156 0.92604,0.378124 0.3638,0.207968 0.54239,0.378123 0.39687,0.378123 -0.14552,0 -0.56224,-0.170155 -0.92604,-0.378123 z M 74.877085,27.738053 c 0,-0.05494 0.208359,-0.263301 0.46302,-0.463021 0.419645,-0.329107 0.429004,-0.319749 0.0999,0.0999 -0.345643,0.440729 -0.562916,0.580887 -0.562916,0.363126 z m 31.602135,-0.576159 c -0.49319,-0.395127 -0.48995,-0.400012 0.0817,-0.122983 0.32742,0.158669 0.59531,0.343831 0.59531,0.411471 0,0.202465 -0.13721,0.143996 -0.67703,-0.288488 z M 76.049869,26.808482 c 0.188769,-0.305434 1.208466,-0.921458 1.208466,-0.730064 0,0.06114 -0.312317,0.315808 -0.694034,0.56592 -0.38172,0.250112 -0.613214,0.323976 -0.514432,0.164144 z m 28.195961,-0.690326 c -0.3638,-0.207968 -0.54239,-0.378123 -0.39687,-0.378123 0.14552,0 0.56224,0.170155 0.92604,0.378123 0.3638,0.207968 0.5424,0.378124 0.39688,0.378124 -0.14553,0 -0.56224,-0.170156 -0.92605,-0.378124 z M 77.522918,25.88597 c 0,-0.05494 0.208359,-0.263302 0.463021,-0.463021 0.419645,-0.329107 0.429003,-0.319749 0.0999,0.0999 -0.345644,0.440729 -0.562917,0.580887 -0.562917,0.363126 z m 2.116667,-1.5875 c 0,-0.05494 0.208359,-0.263302 0.46302,-0.463021 0.419645,-0.329107 0.429004,-0.319749 0.0999,0.0999 -0.345643,0.440729 -0.562916,0.580887 -0.562916,0.363126 z m 18.983853,-0.976453 c -0.545703,-0.288087 -0.992187,-0.582901 -0.992187,-0.655142 0,-0.07224 0.47625,0.111616 1.058333,0.408573 0.582084,0.296957 1.058334,0.597033 1.058334,0.666836 0,0.17308 -0.0019,0.172387 -1.12448,-0.420267 z m -17.13177,-0.353439 c 0,-0.07276 0.535781,-0.500919 1.190625,-0.951463 0.654844,-0.450545 1.190625,-0.75964 1.190625,-0.68688 0,0.07276 -0.535781,0.500919 -1.190625,0.951463 -0.654844,0.450544 -1.190625,0.75964 -1.190625,0.68688 z m 14.022916,-1.216047 c -0.238466,-0.154109 -0.2711,-0.258097 -0.08176,-0.260531 0.173312,-0.0022 0.388699,0.115011 0.478636,0.260531 0.203015,0.328487 0.111422,0.328487 -0.396876,0 z M 84.137501,21.12347 c 0,-0.05494 0.208359,-0.263302 0.463021,-0.463021 0.419645,-0.329107 0.429003,-0.319749 0.0999,0.0999 -0.345644,0.440729 -0.562917,0.580887 -0.562917,0.363126 z m 8.73125,-0.693855 c -0.238466,-0.15411 -0.2711,-0.258098 -0.08176,-0.260532 0.173313,-0.0022 0.3887,0.115011 0.478637,0.260532 0.203015,0.328487 0.111421,0.328487 -0.396875,0 z m -7.672917,-0.09626 c 0,-0.07276 0.357188,-0.386631 0.79375,-0.697491 0.436563,-0.31086 0.79375,-0.505669 0.79375,-0.432908 0,0.07276 -0.357187,0.386631 -0.79375,0.697491 -0.436562,0.31086 -0.79375,0.505669 -0.79375,0.432908 z m 3.125391,-1.936565 c 0.190995,-0.07643 0.419201,-0.06703 0.507119,0.02089 0.08792,0.08792 -0.06835,0.150453 -0.347266,0.138964 -0.308226,-0.01269 -0.370919,-0.07539 -0.159853,-0.159852 z"
         style="fill:#b9b9b9;fill-opacity:1;stroke-width:1" />
      <path
         id="path26"
         d="m 87.082245,138.00471 c -0.336921,-0.23599 -3.250679,-1.86345 -6.475018,-3.61659 -6.48379,-3.52536 -11.134281,-6.0681 -17.504101,-9.57067 -2.328333,-1.28028 -4.828645,-2.65043 -5.556249,-3.04478 -0.727605,-0.39435 -2.346124,-1.27161 -3.596715,-1.94948 -1.250587,-0.67787 -2.498071,-1.48032 -2.772187,-1.78321 -0.482947,-0.53365 -0.498578,-1.66925 -0.50433,-36.637768 -0.0059,-35.744354 -7.94e-4,-36.0919 0.523232,-36.597794 0.539273,-0.520502 5.048683,-3.764595 18.256249,-13.133647 4.074584,-2.890387 8.360834,-5.942963 9.525,-6.783501 7.104158,-5.129264 8.87798,-6.309739 9.481235,-6.309739 0.359603,0 8.493747,3.881958 18.075879,8.626573 9.58213,4.744615 21.14276,10.461638 25.69028,12.704498 4.54753,2.24286 8.2934,4.105667 8.32417,4.139573 0.0308,0.03391 0.12006,3.504658 0.19844,7.712782 l 0.1425,7.651133 1.05833,0.324554 c 0.58208,0.178504 2.9038,0.885534 5.15937,1.571178 2.25558,0.685644 5.3512,1.642033 6.87917,2.125313 1.52797,0.483277 3.44856,1.065178 4.26799,1.293111 0.81943,0.227936 1.7694,0.640776 2.11105,0.917427 l 0.62117,0.503 -0.003,22.248116 c -0.002,14.697101 -0.094,22.339281 -0.27139,22.516711 -0.38439,0.38439 -8.18125,3.43801 -23.1302,9.05889 -5.29982,1.99276 -6.76506,2.54901 -10.31875,3.91737 -1.96453,0.75645 -4.64343,1.7718 -5.95312,2.25633 -1.30969,0.48453 -3.51235,1.31597 -4.89479,1.84763 -3.91466,1.50553 -7.82483,2.99528 -10.71563,4.0826 -1.45521,0.54735 -4.25318,1.61724 -6.217706,2.37753 -1.964532,0.76029 -4.345782,1.65897 -5.291667,1.99706 -0.945885,0.33809 -2.461567,0.92299 -3.36818,1.29979 -1.90541,0.7919 -2.880855,0.85865 -3.741243,0.25601 z m 18.883385,-7.10589 c 6.67757,-2.55442 8.5067,-3.25061 8.93365,-3.40028 0.25685,-0.09 0.56833,-0.43464 0.69219,-0.76579 0.35147,-0.9397 0.19536,-33.749223 -0.16228,-34.106863 -0.3665,-0.366498 -15.886946,0.715044 -16.402622,1.143016 -0.267316,0.221853 -0.336984,4.290639 -0.336984,19.680997 0,17.55441 0.04053,19.42402 0.425702,19.63957 0.425897,0.23835 0.881626,0.0926 6.850344,-2.19065 z m 19.87252,-7.58244 c 1.5849,-0.60196 3.83414,-1.44214 4.99831,-1.86707 1.16417,-0.42492 2.38456,-0.94718 2.71198,-1.16057 l 0.59531,-0.38799 v -13.99792 c 0,-12.375997 -0.0482,-14.046121 -0.41601,-14.413929 -0.22881,-0.228807 -0.67529,-0.363744 -0.99219,-0.299858 -0.3169,0.06388 -2.65977,0.258577 -5.20638,0.432649 -2.54662,0.174073 -4.77904,0.434145 -4.96094,0.57794 -0.47079,0.372163 -0.48367,31.423288 -0.0132,31.893728 0.17463,0.17463 0.3364,0.3175 0.3595,0.3175 0.0231,0 1.33874,-0.49251 2.92365,-1.09448 z M 83.546028,102.46752 c 0.03849,-4.574523 -0.02652,-8.413815 -0.144471,-8.531766 -0.390115,-0.390115 -8.51223,-1.128382 -8.837334,-0.803277 -0.401675,0.401674 -0.497962,14.756433 -0.102452,15.273773 0.523486,0.68474 6.237203,2.49179 7.691355,2.43251 l 1.322917,-0.0539 z m -14.27811,4.16334 c 0.382281,-0.38228 0.450448,-13.350307 0.07331,-13.946061 -0.340183,-0.537371 -6.207826,-1.017394 -6.766697,-0.553575 -0.332267,0.27576 -0.397444,1.318938 -0.397444,6.361232 0,3.317254 0.07083,6.215954 0.157392,6.441544 0.09028,0.23525 1.077487,0.68632 2.315105,1.0578 3.504668,1.05193 4.12029,1.13711 4.618336,0.63906 z m -10.31875,-2.64583 c 0.399341,-0.39934 0.456547,-12.265333 0.06031,-12.510221 -0.141454,-0.08742 -1.286639,-0.275926 -2.544857,-0.418896 -1.671188,-0.189892 -2.386182,-0.178187 -2.653229,0.04344 -0.2901,0.240763 -0.365556,1.46766 -0.365556,5.943915 0,3.579022 0.09945,5.702002 0.272113,5.808712 0.299935,0.18537 4.192828,1.38089 4.635908,1.42371 0.152797,0.0148 0.420687,-0.11603 0.595311,-0.29066 z m 87.270972,-2.49055 c 3.29197,-0.67587 3.02729,-0.13635 2.94438,-6.001687 l -0.0718,-5.080887 -2.44627,-0.07606 c -3.72475,-0.115811 -3.50686,-0.471284 -3.50686,5.720992 0,5.019462 0.11792,5.864442 0.81837,5.864442 0.10085,0 1.11884,-0.19206 2.26219,-0.4268 z m 8.18841,-1.52531 c 0.88642,-0.190315 1.74962,-0.431284 1.91823,-0.535488 0.21343,-0.131908 0.30655,-1.593847 0.30655,-4.812361 0,-3.98908 -0.0579,-4.645117 -0.42234,-4.784968 -0.23229,-0.08914 -1.33362,-0.05563 -2.4474,0.07445 l -2.02505,0.236519 -0.0723,4.875377 c -0.0867,5.849781 -0.23335,5.585341 2.7423,4.94647 z m 2.16469,-21.787988 -0.0722,-4.665001 -0.7437,-0.198665 c -0.40904,-0.109268 -1.4806,-0.236792 -2.38125,-0.283387 l -1.63755,-0.08472 -0.0724,4.72788 c -0.0486,3.175799 0.024,4.844018 0.22124,5.081659 0.33564,0.404426 3.55515,0.628287 4.28897,0.298225 0.42744,-0.19226 0.46266,-0.625063 0.39687,-4.875988 z m -7.66574,4.372599 c 0.22439,-0.224385 0.3175,-1.773578 0.3175,-5.282358 0,-4.481936 -0.0456,-4.989275 -0.46905,-5.215882 -0.67977,-0.363805 -4.68125,-0.936789 -5.18695,-0.742733 -0.37627,0.144388 -0.42942,0.816715 -0.42942,5.432356 0,3.957799 0.0842,5.337479 0.33875,5.548712 0.30459,0.252777 1.2991,0.37874 4.1724,0.528463 0.5166,0.02692 1.08215,-0.09393 1.25677,-0.268558 z M 58.834016,81.657773 c 0.383342,-0.147101 0.432652,-0.868239 0.432652,-6.327117 0,-5.440158 -0.05025,-6.180375 -0.42945,-6.325888 -0.465299,-0.178554 -4.520139,0.812022 -5.060654,1.236289 -0.246028,0.193117 -0.330729,1.696853 -0.330729,5.871649 0,3.086627 0.0893,5.7052 0.198437,5.819053 0.214511,0.223777 4.479351,-0.0013 5.189744,-0.273986 z m 77.801634,0.259159 c 0.36431,-0.139798 0.41852,-0.924338 0.41852,-6.057109 0,-5.031086 -0.059,-5.919155 -0.40207,-6.050796 -0.22113,-0.08486 -1.85743,-0.39855 -3.63621,-0.697092 -3.01977,-0.506828 -3.2557,-0.513337 -3.55925,-0.09821 -0.37254,0.509474 -0.36596,12.068474 0.007,12.441008 0.11812,0.117959 1.24921,0.28748 2.51354,0.376713 3.50065,0.247071 4.20368,0.259972 4.65839,0.08548 z M 67.201549,81.139417 c 0.944446,-0.08848 1.86718,-0.285364 2.05052,-0.437526 0.252339,-0.209423 0.333349,-1.938271 0.333349,-7.114114 0,-6.321031 -0.03608,-6.85677 -0.477684,-7.093109 -0.590402,-0.315976 -5.770888,0.884219 -6.467628,1.498391 -0.416018,0.366721 -0.463021,1.033257 -0.463021,6.565956 0,7.112243 -0.0065,7.090587 2.075251,6.871142 0.677622,-0.07143 2.004769,-0.202261 2.949213,-0.29074 z M 123.83235,80.74088 c 0.3308,-0.618111 0.33884,-11.907999 0.009,-12.775298 -0.19257,-0.506494 -0.50363,-0.691663 -1.38906,-0.826867 -0.62751,-0.09582 -2.21249,-0.366732 -3.52218,-0.602023 -1.30968,-0.235291 -2.91703,-0.436496 -3.57187,-0.447127 l -1.19063,-0.01931 -0.0704,7.213627 -0.0704,7.213629 0.59958,0.264604 c 0.61543,0.271603 8.00333,0.757151 8.61056,0.565902 0.18595,-0.05856 0.45384,-0.322765 0.59532,-0.587121 z M 79.399414,80.125973 c 1.977959,-0.190781 3.734131,-0.432068 3.902604,-0.536192 0.221311,-0.136776 0.306316,-2.452129 0.306316,-8.343384 0,-6.764544 -0.06476,-8.207817 -0.380018,-8.46946 -0.299903,-0.248897 -1.124196,-0.119616 -3.909864,0.613222 -5.024266,1.321752 -4.877681,1.246518 -5.05577,2.594877 -0.217024,1.643139 -0.06502,13.783238 0.177488,14.175626 0.248171,0.40155 0.451231,0.40013 4.959244,-0.03469 z M 105.70104,72.172947 V 64.252735 L 104.37813,63.9146 c -2.25571,-0.576551 -11.01374,-1.989151 -11.404043,-1.839378 -0.515591,0.19785 -0.55358,16.942371 -0.03919,17.273677 0.42146,0.271455 7.863643,0.812004 10.649483,0.773507 l 2.11666,-0.02925 z M 56.626092,60.379528 c 1.061569,-0.437753 2.089976,-0.928581 2.285349,-1.090728 0.278331,-0.230995 0.355227,-1.606921 0.355227,-6.356136 0,-5.395061 -0.04811,-6.079786 -0.437705,-6.229287 -0.44671,-0.171418 -2.172952,0.676794 -4.258649,2.092542 l -1.124479,0.763284 v 5.389607 c 0,2.964286 0.07227,5.577941 0.160599,5.808123 0.229987,0.599337 0.834155,0.523827 3.019658,-0.377405 z m 80.295788,-5.798031 v -5.932496 l -2.64584,-1.168677 c -3.69145,-1.630537 -4.30614,-1.816037 -4.70287,-1.41922 -0.23267,0.23272 -0.337,1.922423 -0.36952,5.984499 -0.0249,3.113122 0.0185,5.904206 0.0965,6.202408 0.11026,0.421645 0.70856,0.714451 2.69113,1.317027 3.24872,0.987404 3.47248,1.039291 4.26915,0.989933 l 0.66146,-0.04098 z m -72.30326,2.245278 c 0.767207,-0.354478 2.20055,-1.003983 3.185205,-1.443339 l 1.790282,-0.798836 -0.07049,-7.08947 c -0.06881,-6.920122 -0.08345,-7.091328 -0.613159,-7.167124 -0.556088,-0.07957 -3.966157,1.815227 -5.741186,3.190076 l -0.992187,0.768499 v 6.176576 c 0,5.262292 0.06154,6.238121 0.415774,6.59235 0.518499,0.518499 0.372933,0.534935 2.025761,-0.228732 z m 59.19823,-0.663189 c 0.28167,-0.526298 0.37663,-11.541813 0.10873,-12.613047 -0.0869,-0.347546 -0.60822,-0.766503 -1.37699,-1.106628 -0.68042,-0.30104 -2.30869,-1.024879 -3.61838,-1.608532 -3.3324,-1.485058 -3.83917,-1.655146 -4.40057,-1.476965 -0.46638,0.148024 -0.49422,0.55643 -0.49422,7.250383 0,5.35891 0.0809,7.157495 0.33073,7.355123 0.59787,0.472905 7.59209,2.629701 8.72194,2.689571 0.24954,0.01323 0.57748,-0.207235 0.72876,-0.489905 z M 79.888333,50.079633 c 1.664779,-0.747073 3.182826,-1.487744 3.373437,-1.645939 0.532932,-0.442293 0.503272,-16.432146 -0.03131,-16.875806 -0.424476,-0.352286 -0.685448,-0.23488 -3.590879,1.615478 -0.945886,0.602398 -2.493698,1.570554 -3.439584,2.151454 -0.945885,0.580904 -1.782072,1.151142 -1.858192,1.267196 -0.07612,0.116054 -0.133065,3.557619 -0.126543,7.647924 0.0096,6.026359 0.08108,7.479697 0.376799,7.66246 0.438531,0.271029 1.261941,-0.01236 5.296268,-1.822767 z m 25.526487,1.145632 c 0.36872,-0.141491 0.41851,-1.10201 0.41851,-8.073128 v -7.912528 l -1.52135,-0.68122 c -5.570291,-2.494225 -10.775074,-4.618388 -11.142795,-4.547571 -0.390101,0.07513 -0.432726,0.939019 -0.432726,8.770069 v 8.686731 l 3.836459,1.194189 c 3.048994,0.949074 8.143152,2.592533 8.378882,2.703169 0.0245,0.01148 0.23284,-0.05138 0.46302,-0.139711 z"
         style="fill:#a3a3a3;fill-opacity:1;stroke-width:1" />
    </g>
  </g>
</svg>
