<?xml version="1.0" encoding="UTF-8" standalone="no"?>
<svg
   xmlns:dc="http://purl.org/dc/elements/1.1/"
   xmlns:cc="http://creativecommons.org/ns#"
   xmlns:rdf="http://www.w3.org/1999/02/22-rdf-syntax-ns#"
   xmlns:svg="http://www.w3.org/2000/svg"
   xmlns="http://www.w3.org/2000/svg"
   xmlns:sodipodi="http://sodipodi.sourceforge.net/DTD/sodipodi-0.dtd"
   xmlns:inkscape="http://www.inkscape.org/namespaces/inkscape"
   sodipodi:docname="UserIcon.svg"
   inkscape:version="1.0 (4035a4fb49, 2020-05-01)"
   id="svg8"
   version="1.1"
   viewBox="0 0 210 297"
   height="297mm"
   width="210mm">
  <defs
     id="defs2" />
  <sodipodi:namedview
     inkscape:window-maximized="1"
     inkscape:window-y="-8"
     inkscape:window-x="-8"
     inkscape:window-height="1017"
     inkscape:window-width="1920"
     showgrid="false"
     inkscape:document-rotation="0"
     inkscape:current-layer="layer1"
     inkscape:document-units="mm"
     inkscape:cy="560"
     inkscape:cx="348.57143"
     inkscape:zoom="0.35"
     inkscape:pageshadow="2"
     inkscape:pageopacity="0.0"
     borderopacity="1.0"
     bordercolor="#666666"
     pagecolor="#ffffff"
     id="base" />
  <metadata
     id="metadata5">
    <rdf:RDF>
      <cc:Work
         rdf:about="">
        <dc:format>image/svg+xml</dc:format>
        <dc:type
           rdf:resource="http://purl.org/dc/dcmitype/StillImage" />
        <dc:title></dc:title>
      </cc:Work>
    </rdf:RDF>
  </metadata>
  <g
     id="layer1"
     inkscape:groupmode="layer"
     inkscape:label="Layer 1">
    <g
       style="fill:#727272;fill-opacity:1"
       transform="translate(-23.434524,-3.7797552)"
       id="g24">
      <path
         id="path28"
         d="m 121.54794,167.27015 c -0.0874,-0.14139 -2.01175,-0.23344 -4.45555,-0.21313 -2.36596,0.0197 -4.45467,-0.0588 -4.64159,-0.17429 -0.18693,-0.11553 -1.25481,-0.17757 -2.37309,-0.13788 -1.11827,0.0397 -2.24926,-0.0237 -2.5133,-0.14084 -0.26405,-0.11716 -1.24631,-0.15151 -2.18282,-0.0763 -0.9365,0.0752 -1.70272,0.0423 -1.70272,-0.0729 0,-0.1153 -0.64375,-0.25041 -1.43056,-0.30026 -0.78681,-0.0498 -1.37509,-0.001 -1.3073,0.1078 0.0678,0.10914 -0.003,0.19844 -0.15695,0.19844 -0.1541,0 -0.28019,-0.13006 -0.28019,-0.28903 0,-0.18086 -0.519887,-0.26377 -1.389067,-0.22153 -0.763984,0.0371 -1.602623,-0.0261 -1.863643,-0.14059 -0.261016,-0.11445 -0.883914,-0.14166 -1.384212,-0.0605 -0.500301,0.0812 -0.970603,0.049 -1.045118,-0.0716 -0.07451,-0.12057 -0.602461,-0.26375 -1.173215,-0.31818 -0.570757,-0.0544 -0.981194,-0.007 -0.912088,0.10434 0.06911,0.11182 -5.29e-4,0.20331 -0.154546,0.20331 -0.154109,0 -0.280199,-0.13157 -0.280199,-0.29238 0,-0.18153 -0.401211,-0.25411 -1.058333,-0.19144 -0.582083,0.0555 -1.058333,-0.004 -1.058333,-0.13229 0,-0.12827 -0.47625,-0.1878 -1.058334,-0.13229 -0.582083,0.0555 -1.058333,0.0215 -1.058333,-0.0756 0,-0.0971 -0.408366,-0.22416 -0.907481,-0.28242 -0.499115,-0.0583 -0.849278,-0.0118 -0.778137,0.10334 0.07114,0.11511 0.0033,0.20929 -0.15085,0.20929 -0.154109,0 -0.280199,-0.13209 -0.280199,-0.29353 0,-0.17852 -0.355557,-0.25202 -0.907481,-0.18759 -0.526777,0.0615 -0.84278,0.001 -0.753247,-0.14361 0.09241,-0.14953 -0.286248,-0.19048 -0.944661,-0.10217 -0.720344,0.0966 -1.040865,0.0535 -0.930434,-0.12518 0.108125,-0.17496 -0.176135,-0.23235 -0.793691,-0.16025 -0.529183,0.0618 -0.962152,0.004 -0.962152,-0.12916 0,-0.13282 -0.357188,-0.18906 -0.79375,-0.12499 -0.436563,0.0641 -0.79375,0.005 -0.79375,-0.13229 0,-0.13683 -0.357188,-0.19637 -0.79375,-0.13229 -0.436563,0.0641 -0.79375,0.005 -0.79375,-0.13229 0,-0.13684 -0.357188,-0.19637 -0.79375,-0.1323 -0.436563,0.0641 -0.79375,0.004 -0.79375,-0.1331 0,-0.13728 -0.297657,-0.19271 -0.661459,-0.12316 -0.363802,0.0695 -0.661458,0.0104 -0.661458,-0.13148 0,-0.14186 -0.350898,-0.20642 -0.779777,-0.14347 -0.453965,0.0666 -0.714637,0.009 -0.623875,-0.13781 0.09168,-0.14834 -0.186552,-0.20199 -0.675431,-0.13024 -0.457234,0.0671 -0.831334,0.01 -0.831334,-0.12759 0,-0.13728 -0.297656,-0.19271 -0.661458,-0.12316 -0.363802,0.0696 -0.661459,0.01 -0.661459,-0.13229 0,-0.14231 -0.294052,-0.20253 -0.653452,-0.13382 -0.391223,0.0748 -0.588494,0.0198 -0.491582,-0.137 0.09886,-0.15995 -0.156308,-0.21521 -0.655492,-0.14194 -0.485336,0.0712 -0.753324,0.0164 -0.659718,-0.13511 0.09302,-0.1505 -0.129651,-0.20015 -0.543142,-0.12111 -0.385429,0.0737 -0.70078,0.0175 -0.70078,-0.12478 0,-0.14232 -0.238125,-0.19649 -0.529167,-0.12038 -0.291042,0.0761 -0.529167,0.0166 -0.529167,-0.13228 0,-0.14886 -0.294052,-0.21444 -0.653452,-0.14574 -0.395515,0.0756 -0.58887,0.0204 -0.489841,-0.13981 0.100319,-0.16232 -0.107477,-0.2129 -0.537176,-0.13076 -0.385429,0.0737 -0.700781,0.0175 -0.700781,-0.12478 0,-0.14232 -0.238125,-0.19649 -0.529166,-0.12038 -0.291042,0.0761 -0.529167,0.0166 -0.529167,-0.13229 0,-0.14887 -0.214101,-0.21468 -0.475779,-0.14625 -0.324435,0.0848 -0.487532,-0.0316 -0.512723,-0.36602 -0.02032,-0.26974 0.08987,-0.49043 0.244859,-0.49043 0.178723,0 0.235304,-0.48391 0.154686,-1.32292 -0.07296,-0.75934 -0.01863,-1.32292 0.127577,-1.32292 0.140081,0 0.206041,-0.41672 0.146581,-0.92604 -0.05946,-0.50932 6.9e-5,-0.92604 0.132292,-0.92604 0.13222,0 0.191752,-0.41672 0.132292,-0.92604 -0.05946,-0.50932 7.94e-4,-0.92604 0.134188,-0.92604 0.133263,0 0.185399,-0.29766 0.115854,-0.66146 -0.06955,-0.3638 -0.009,-0.66146 0.134519,-0.66146 0.148852,0 0.192765,-0.34101 0.102217,-0.79375 -0.09883,-0.49415 -0.04973,-0.79375 0.130077,-0.79375 0.158855,0 0.226557,-0.23812 0.150447,-0.52917 -0.07611,-0.29104 -0.01659,-0.52916 0.132278,-0.52916 0.14886,0 0.213757,-0.29766 0.144212,-0.66146 -0.06955,-0.3638 -0.03803,-0.66146 0.07004,-0.66146 0.257411,0 0.844826,-2.34059 0.661755,-2.63681 -0.07764,-0.12562 -0.0055,-0.27363 0.160285,-0.32889 0.165801,-0.0553 0.31537,-0.48189 0.33238,-0.94804 0.01701,-0.46615 0.132958,-0.84783 0.25767,-0.84816 0.124708,-2.6e-4 0.158213,-0.17919 0.07445,-0.39747 -0.08376,-0.21829 -0.02424,-0.39688 0.132292,-0.39688 0.156525,0 0.216056,-0.17859 0.132291,-0.39687 -0.08376,-0.21829 -0.02423,-0.39688 0.132292,-0.39688 0.156525,0 0.216056,-0.17859 0.132292,-0.39687 -0.08376,-0.21829 -0.02424,-0.39688 0.132291,-0.39688 0.156525,0 0.213683,-0.18478 0.127019,-0.41062 -0.09035,-0.23545 -0.046,-0.34166 0.103984,-0.24896 0.238961,0.14768 0.364199,-0.2764 0.332634,-1.12636 -0.0067,-0.1819 0.103471,-0.33073 0.244949,-0.33073 0.14148,0 0.207981,-0.14776 0.14778,-0.32836 -0.0602,-0.1806 0.05579,-0.49361 0.257749,-0.69558 0.201965,-0.20196 0.302194,-0.53663 0.222729,-0.7437 -0.09158,-0.23865 -0.03225,-0.30714 0.162039,-0.18707 0.204703,0.12652 0.250396,0.0432 0.137565,-0.25084 -0.09292,-0.24215 -0.07274,-0.44028 0.04486,-0.44028 0.305191,0 0.864179,-1.31477 0.683371,-1.60733 -0.0832,-0.13461 -0.02096,-0.24475 0.138332,-0.24475 0.285533,0 1.383416,-2.21218 1.405808,-2.83263 0.0063,-0.1755 0.130969,-0.24527 0.276966,-0.15504 0.159795,0.0988 0.196104,-0.0166 0.09122,-0.28996 -0.117412,-0.30597 -0.07427,-0.39225 0.132292,-0.26458 0.206565,0.12766 0.249703,0.0414 0.132291,-0.26459 -0.09582,-0.24971 -0.07034,-0.38982 0.05662,-0.31135 0.239199,0.14783 1.000471,-1.40328 0.877779,-1.7885 -0.03821,-0.11995 0.07278,-0.13019 0.246636,-0.0227 0.217483,0.13441 0.261747,0.0537 0.141878,-0.25866 -0.103487,-0.26969 -0.06803,-0.38839 0.08733,-0.29237 0.239906,0.14827 0.379003,-0.21567 0.28633,-0.74915 -0.02082,-0.11995 0.07555,-0.14799 0.214204,-0.0623 0.247324,0.15285 0.716547,-0.83195 0.600636,-1.26061 -0.03244,-0.11996 0.06304,-0.1427 0.212161,-0.0505 0.247984,0.15326 0.389782,-0.20288 0.295915,-0.74322 -0.02082,-0.11996 0.08413,-0.1427 0.233252,-0.0505 0.247983,0.15326 0.389781,-0.20288 0.295915,-0.74322 -0.02082,-0.11996 0.08413,-0.1427 0.233251,-0.0505 0.247984,0.15326 0.389782,-0.20288 0.295916,-0.74322 -0.02085,-0.11996 0.07165,-0.15041 0.205528,-0.0677 0.244848,0.15132 0.689422,-0.58407 0.598895,-0.99067 -0.02671,-0.11995 0.06098,-0.1504 0.194855,-0.0677 0.244848,0.15132 0.689422,-0.58408 0.598895,-0.99067 -0.02671,-0.11996 0.06098,-0.15041 0.194855,-0.0677 0.244848,0.15132 0.689422,-0.58408 0.598895,-0.99067 -0.02671,-0.11996 0.04369,-0.1652 0.156432,-0.10054 0.112747,0.0647 0.50265,-0.24942 0.866453,-0.69795 0.363802,-0.44854 0.482864,-0.71579 0.264583,-0.5939 -0.218281,0.1219 0.05071,-0.16007 0.59777,-0.62658 0.547056,-0.46652 0.936816,-0.94178 0.866135,-1.05615 -0.07068,-0.11436 0.136573,-0.43221 0.460563,-0.70631 0.583017,-0.49326 0.584994,-0.49287 0.192199,0.038 -0.218282,0.29498 0.173098,-0.0858 0.869735,-0.84613 0.696635,-0.76035 1.768198,-1.82189 2.38125,-2.35897 0.613051,-0.53708 0.876515,-0.81691 0.585473,-0.62184 -0.459023,0.30765 -0.483574,0.30375 -0.185208,-0.0294 0.189177,-0.21126 0.434271,-0.38411 0.544655,-0.38411 0.391327,0 1.857277,-1.39957 1.676403,-1.6005 -0.101071,-0.11227 -0.04446,-0.12437 0.125801,-0.0269 0.175805,0.10067 0.616138,-0.1954 1.019072,-0.68518 0.390229,-0.47434 0.628269,-0.68384 0.528984,-0.46556 -0.09929,0.21828 0.126738,0.0628 0.502282,-0.34548 0.375542,-0.4083 0.686764,-0.64642 0.691605,-0.52917 0.0048,0.11726 0.228185,-0.0496 0.496322,-0.37087 0.268134,-0.32123 0.559027,-0.51255 0.646427,-0.42515 0.0874,0.0874 0.23372,-0.036 0.325154,-0.27431 0.09143,-0.23828 0.27367,-0.36684 0.404972,-0.28568 0.131299,0.0811 0.309893,-0.0379 0.396875,-0.26459 0.08698,-0.22667 0.257416,-0.35077 0.378743,-0.27579 0.12133,0.075 0.327917,-0.0554 0.459081,-0.28981 0.131167,-0.23438 0.317079,-0.41548 0.413136,-0.40244 0.535599,0.0727 0.716563,-0.006 0.567479,-0.24743 -0.09217,-0.14912 -0.06943,-0.2446 0.05053,-0.21216 0.48378,0.13081 1.408483,-0.36239 1.237861,-0.66023 -0.09821,-0.17142 -0.08484,-0.22713 0.0297,-0.12379 0.255699,0.23068 1.728666,-0.49882 1.728666,-0.85614 0,-0.14179 0.09338,-0.22802 0.207513,-0.19164 0.341608,0.10888 4.554993,-1.94828 4.554993,-2.22396 0,-0.14007 0.11014,-0.1866 0.24475,-0.1034 0.261,0.1613 1.60733,-0.36314 1.60733,-0.62611 0,-0.0861 0.34884,-0.16118 0.77521,-0.166848 0.4307,-0.0057 0.70537,0.102698 0.61806,0.243978 -0.0864,0.13985 0.0197,0.1864 0.23596,0.10343 0.22734,-0.0872 0.53136,0.0705 0.72093,0.37405 0.19027,0.30467 0.49336,0.46138 0.72236,0.37351 0.217,-0.0833 0.33555,-0.0559 0.26344,0.0607 -0.17097,0.27665 3.23467,1.95688 3.55948,1.75613 0.13657,-0.0844 0.24831,-0.008 0.24831,0.17083 0,0.17837 0.0737,0.25059 0.16379,0.16051 0.0901,-0.0901 0.34356,0.016 0.56328,0.2357 0.21972,0.21972 0.56892,0.33448 0.776,0.25501 0.20707,-0.0795 0.31525,-0.0454 0.2404,0.0757 -0.15917,0.25755 1.67828,0.87431 2.00435,0.67279 0.12151,-0.0751 0.22093,0.002 0.22093,0.17196 0,0.17012 0.1842,0.23782 0.41062,0.15094 0.22583,-0.0867 0.34683,-0.0544 0.26887,0.0718 -0.16377,0.26499 1.37356,0.6289 1.72893,0.40926 0.13058,-0.0807 0.23741,-0.007 0.23741,0.16433 0,0.1808 0.2216,0.25311 0.52917,0.17268 0.29104,-0.0761 0.52917,-0.0166 0.52917,0.13229 0,0.14887 0.23812,0.2084 0.52916,0.13229 0.29104,-0.0761 0.52917,-0.0166 0.52917,0.13228 0,0.14886 0.29766,0.21376 0.66146,0.14421 0.3638,-0.0695 0.66146,-0.0104 0.66146,0.13148 0,0.14186 0.35718,0.2055 0.79375,0.14142 0.43656,-0.0641 0.79375,-0.003 0.79375,0.13668 0,0.14354 0.51554,0.19506 1.19062,0.11896 0.65484,-0.0738 1.19063,-0.0335 1.19063,0.0897 0,0.12312 1.905,0.22446 4.23333,0.22519 2.32833,8e-4 4.23333,-0.1 4.23333,-0.22385 0,-0.12386 0.53578,-0.16481 1.19063,-0.091 0.67507,0.0761 1.19062,0.0246 1.19062,-0.11896 0,-0.13925 0.35719,-0.20075 0.79375,-0.13668 0.43657,0.0641 0.79375,5.3e-4 0.79375,-0.14142 0,-0.14186 0.29766,-0.20102 0.66146,-0.13148 0.3638,0.0696 0.66146,0.005 0.66146,-0.14421 0,-0.14886 0.23812,-0.20839 0.52917,-0.13228 0.29104,0.0761 0.52916,0.0166 0.52916,-0.13229 0,-0.14887 0.23813,-0.2084 0.52917,-0.13229 0.29104,0.0761 0.52917,0.009 0.52917,-0.14876 0,-0.15792 0.17859,-0.2186 0.39687,-0.13484 0.21828,0.0838 0.39688,0.0316 0.39688,-0.11583 0,-0.14746 0.23812,-0.20585 0.52916,-0.12974 0.29104,0.0761 0.52917,0.009 0.52917,-0.14875 0,-0.15793 0.17859,-0.21861 0.39687,-0.13485 0.21829,0.0838 0.39688,0.0135 0.39688,-0.15621 0,-0.16968 0.10539,-0.24337 0.23419,-0.16376 0.30712,0.1898 1.88248,-0.36273 1.88248,-0.66026 0,-0.12672 0.16324,-0.16775 0.36276,-0.0912 0.19951,0.0766 0.54253,-0.0406 0.76225,-0.26029 0.21972,-0.21972 0.4732,-0.32579 0.56328,-0.2357 0.0901,0.0901 0.16379,0.0179 0.16379,-0.16051 0,-0.17836 0.1146,-0.25347 0.25466,-0.1669 0.32627,0.20164 2.92034,-1.10337 2.92034,-1.46915 0,-0.15166 0.11906,-0.20216 0.26458,-0.11222 0.14552,0.0899 0.26459,0.0176 0.26459,-0.16078 0,-0.17836 0.0746,-0.24966 0.16583,-0.15845 0.20383,0.20382 1.68625,-0.53519 1.68625,-0.84063 0,-0.400543 1.4456,-0.17174 1.98305,0.31387 0.29031,0.26231 0.73696,0.42224 0.99255,0.35541 0.28579,-0.0747 0.39693,-0.0119 0.28865,0.16334 -0.11547,0.18685 -0.005,0.21907 0.3223,0.0936 0.2741,-0.10518 0.41647,-0.10934 0.31637,-0.009 -0.18777,0.18778 2.85045,1.75619 3.43927,1.77545 0.1819,0.006 0.33073,0.11706 0.33073,0.24691 0,0.12986 0.11906,0.16252 0.26458,0.0726 0.14552,-0.0899 0.26458,-0.0176 0.26458,0.16078 0,0.17836 0.0695,0.25484 0.15434,0.16995 0.0849,-0.0849 0.38689,0.0782 0.67111,0.36243 0.28423,0.28422 0.64989,0.4345 0.81258,0.33395 0.17282,-0.10681 0.22221,-0.0637 0.1188,0.10359 -0.16431,0.26587 0.4451,0.60935 0.99752,0.56222 0.13243,-0.0113 0.34811,0.17123 0.47928,0.40561 0.13116,0.23438 0.33775,0.36479 0.45908,0.28981 0.12133,-0.075 0.29176,0.0491 0.37874,0.27579 0.087,0.22667 0.26558,0.34573 0.39688,0.26458 0.1313,-0.0812 0.30989,0.0379 0.39687,0.26458 0.0884,0.23049 0.2936,0.32841 0.46548,0.22219 0.18688,-0.1155 0.23607,-0.0746 0.12551,0.10425 -0.17477,0.28278 1.32865,1.2814 1.75371,1.16488 0.10914,-0.0299 0.19844,0.0676 0.19844,0.21673 0,0.14913 0.29765,0.38431 0.66146,0.52262 0.3638,0.13832 0.66145,0.42029 0.66145,0.6266 0,0.35965 0.71027,0.826 1.12448,0.73832 0.10914,-0.0231 0.19844,0.10303 0.19844,0.2803 0,0.41547 1.32511,1.55966 1.60555,1.38633 0.11749,-0.0726 0.42938,0.17533 0.6931,0.55098 0.26371,0.37564 1.19069,1.41989 2.05996,2.32054 0.86926,0.90066 1.40865,1.39943 1.19863,1.10839 -0.28603,-0.39638 -0.20127,-0.36821 0.33775,0.11226 0.75991,0.67738 0.94257,0.98014 0.38886,0.64458 -0.1819,-0.11024 0.0265,0.22398 0.46303,0.74271 0.43656,0.51873 0.85328,0.92932 0.92604,0.91242 0.0728,-0.0169 0.14194,0.0288 0.15373,0.10157 0.0825,0.50929 0.72596,1.32292 1.0462,1.32292 0.21316,0 0.37347,0.0893 0.35624,0.19844 -0.0862,0.54575 0.0703,0.85989 0.4282,0.85989 0.21828,0 0.37798,0.0893 0.35487,0.19844 -0.0835,0.3943 0.36774,1.11792 0.60545,0.971 0.13388,-0.0827 0.22157,-0.0523 0.19486,0.0677 -0.0887,0.39852 0.35174,1.14341 0.58931,0.99659 0.1286,-0.0795 0.16292,0.0403 0.0763,0.2661 -0.10355,0.26984 -0.006,0.41062 0.28323,0.41062 0.24243,0 0.36783,0.11806 0.27864,0.26236 -0.0892,0.1443 0.13651,0.56102 0.50153,0.92605 0.36502,0.36502 0.6065,0.66367 0.53662,0.66367 -0.27366,0 0.73062,1.62343 1.08946,1.76113 0.20984,0.0805 0.31565,0.25299 0.23514,0.38326 -0.0805,0.13027 -0.0203,0.23686 0.13381,0.23686 0.15411,0 0.25661,0.0893 0.22778,0.19844 -0.10753,0.40704 0.36414,1.39116 0.5976,1.24687 0.13338,-0.0824 0.17199,0.0339 0.0858,0.25851 -0.0909,0.23684 0.0145,0.47409 0.25091,0.56481 0.22419,0.086 0.34325,0.32415 0.26458,0.52916 -0.0787,0.20501 0.0472,0.44576 0.27977,0.535 0.23255,0.0892 0.3646,0.25644 0.29344,0.37156 -0.18425,0.29812 0.54305,1.61765 0.76776,1.39294 0.1025,-0.1025 0.10031,0.0379 -0.005,0.31199 -0.13218,0.34448 -0.0966,0.43987 0.11528,0.30892 0.20656,-0.12766 0.2497,-0.0414 0.13229,0.26459 -0.12756,0.33241 -0.0804,0.39601 0.1762,0.23744 0.22448,-0.13873 0.28698,-0.11391 0.1739,0.0691 -0.19944,0.32271 0.32981,1.64821 0.6581,1.64821 0.1176,0 0.15117,0.16324 0.0746,0.36276 -0.0766,0.19952 0.026,0.528 0.228,0.72997 0.20196,0.20196 0.31149,0.53435 0.24339,0.73864 -0.0681,0.2043 0.0414,0.50089 0.24333,0.6591 0.20192,0.15821 0.37904,0.43648 0.39359,0.61838 0.081,1.01227 0.12876,1.14154 0.36739,0.99406 0.14998,-0.0927 0.19433,0.0135 0.10398,0.24897 -0.0867,0.22584 -0.0295,0.41062 0.12702,0.41062 0.15652,0 0.21605,0.17859 0.13229,0.39687 -0.0838,0.21829 -0.0242,0.39688 0.13229,0.39688 0.15652,0 0.21606,0.17859 0.13229,0.39687 -0.0838,0.21829 -0.0242,0.39688 0.1323,0.39688 0.15652,0 0.21605,0.17859 0.13229,0.39687 -0.0838,0.21829 -0.0503,0.39715 0.0744,0.39748 0.12471,2.7e-4 0.24066,0.38201 0.25767,0.84816 0.017,0.46615 0.15319,0.88831 0.30264,0.93812 0.14944,0.0498 0.21094,0.32299 0.13665,0.60706 -0.0743,0.28406 -0.0186,0.51648 0.12369,0.51648 0.14231,0 0.19847,0.31535 0.12479,0.70078 -0.0737,0.38543 -0.0274,0.63516 0.10284,0.55495 0.13024,-0.0802 0.26862,0.28905 0.30752,0.82057 0.0389,0.53152 0.17043,1.00032 0.29228,1.04178 0.12185,0.0415 0.16544,0.36888 0.0969,0.72761 -0.0686,0.35872 -0.008,0.65222 0.13406,0.65222 0.1423,0 0.20184,0.29766 0.13229,0.66146 -0.0695,0.3638 -0.01,0.66146 0.13229,0.66146 0.14231,0 0.20184,0.29766 0.13229,0.66146 -0.0702,0.36706 -0.002,0.66146 0.15235,0.66146 0.17086,0 0.22061,0.35852 0.12852,0.92604 -0.0827,0.50932 -0.0396,0.92604 0.0958,0.92604 0.13534,0 0.19742,0.41672 0.13796,0.92604 -0.0595,0.50932 0.007,0.92604 0.14658,0.92604 0.14619,0 0.20054,0.56358 0.12758,1.32292 -0.0806,0.83901 -0.024,1.32292 0.15468,1.32292 0.155,0 0.26518,0.22069 0.24486,0.49043 -0.0252,0.33443 -0.18829,0.45086 -0.51272,0.36602 -0.26168,-0.0684 -0.47578,-0.008 -0.47578,0.13435 0,0.14231 -0.31535,0.19847 -0.70078,0.12479 -0.4297,-0.0821 -0.6375,-0.0316 -0.53718,0.13076 0.10011,0.16199 -0.10525,0.21333 -0.52917,0.13229 -0.42391,-0.081 -0.62928,-0.0297 -0.52916,0.13229 0.099,0.16023 -0.0943,0.21542 -0.48984,0.13981 -0.3594,-0.0687 -0.65346,-0.003 -0.65346,0.14574 0,0.14887 -0.23812,0.20839 -0.52916,0.13228 -0.29104,-0.0761 -0.52917,-0.0219 -0.52917,0.12038 0,0.14231 -0.29766,0.20185 -0.66146,0.1323 -0.3638,-0.0695 -0.66146,-0.005 -0.66146,0.14421 0,0.14886 -0.23812,0.20839 -0.52916,0.13228 -0.29104,-0.0761 -0.52917,-0.0261 -0.52917,0.11124 0,0.13729 -0.3741,0.19471 -0.83133,0.1276 -0.50899,-0.0747 -0.76857,-0.0205 -0.66947,0.1399 0.0969,0.1568 -0.10036,0.21178 -0.49158,0.13699 -0.3594,-0.0687 -0.65345,-0.0126 -0.65345,0.12469 0,0.13728 -0.3741,0.19469 -0.83134,0.12759 -0.48888,-0.0718 -0.76711,-0.0181 -0.67543,0.13024 0.0908,0.14685 -0.16991,0.20444 -0.62387,0.13781 -0.42888,-0.063 -0.77978,-0.002 -0.77978,0.13434 0,0.13683 -0.3741,0.19388 -0.83133,0.12677 -0.48888,-0.0717 -0.76712,-0.0181 -0.67543,0.13025 0.0908,0.14685 -0.16991,0.20443 -0.62388,0.1378 -0.42888,-0.0629 -0.77978,-0.002 -0.77978,0.13435 0,0.13683 -0.35718,0.19636 -0.79375,0.13229 -0.4647,-0.0682 -0.79375,0.002 -0.79375,0.16981 0,0.15747 -0.17859,0.21778 -0.39687,0.13401 -0.21828,-0.0838 -0.60524,-0.0635 -0.8599,0.0449 -0.25466,0.10849 -0.86335,0.17048 -1.35264,0.13777 -0.55381,-0.037 -0.82623,0.0431 -0.72167,0.21228 0.10892,0.17625 -0.15955,0.21859 -0.76403,0.1205 -0.51258,-0.0832 -0.93197,-0.0432 -0.93197,0.0888 0,0.13203 -0.49193,0.19313 -1.09318,0.1358 -0.70079,-0.0668 -1.03316,-0.007 -0.92598,0.16627 0.1084,0.17539 -0.20501,0.22061 -0.8912,0.12857 -0.58211,-0.0781 -1.05839,-0.0361 -1.05839,0.0932 0,0.12935 -0.55096,0.19136 -1.22436,0.13781 -0.78369,-0.0623 -1.16459,-5.3e-4 -1.05828,0.17136 0.107,0.17313 -0.21045,0.21823 -0.8923,0.12678 -0.69493,-0.0932 -1.05839,-0.0391 -1.05839,0.15746 0,0.16468 -0.12609,0.29942 -0.2802,0.29942 -0.15411,0 -0.22366,-0.0915 -0.15455,-0.20331 0.0691,-0.11182 -0.34133,-0.15877 -0.91209,-0.10434 -0.57075,0.0544 -1.0987,0.19761 -1.17321,0.31818 -0.0745,0.12057 -0.54482,0.15278 -1.04512,0.0716 -0.5003,-0.0812 -1.12319,-0.054 -1.38421,0.0605 -0.26102,0.11446 -1.09966,0.17772 -1.86364,0.14059 -0.86918,-0.0422 -1.38907,0.0407 -1.38907,0.22153 0,0.15897 -0.12609,0.28903 -0.2802,0.28903 -0.1541,0 -0.19524,-0.13746 -0.0914,-0.30546 0.10384,-0.16801 0.0739,-0.23445 -0.0665,-0.14766 -0.14044,0.0868 -0.87321,0.186 -1.62838,0.22045 -0.75518,0.0345 -1.37305,0.13299 -1.37305,0.21895 0,0.086 -0.89297,0.1112 -1.98438,0.0561 -1.0914,-0.0551 -1.98435,0.002 -1.98432,0.12715 3e-5,0.12505 -1.13106,0.20104 -2.51354,0.16889 -1.38248,-0.0322 -2.51356,0.0274 -2.51351,0.13229 4e-5,0.10492 -1.93473,0.17126 -4.29948,0.14742 -2.93465,-0.0296 -4.42068,0.0544 -4.68108,0.26458 -0.23343,0.1884 -0.31497,0.19667 -0.21008,0.0213 0.0943,-0.15765 0.003,-0.28663 -0.20215,-0.28663 -0.20548,0 -0.31228,0.0992 -0.23733,0.22049 0.075,0.12125 -2.18256,0.22047 -5.01668,0.22047 -3.87478,0 -5.18604,-0.082 -5.28639,-0.33073 -0.0986,-0.24422 -0.13891,-0.23575 -0.15434,0.0324 -0.0177,0.30778 -0.0891,0.30778 -0.46855,0 -0.30418,-0.24674 -0.38398,-0.25712 -0.24897,-0.0324 0.10928,0.1819 0.13916,0.33073 0.0664,0.33073 -0.0728,0 -0.20151,-0.112 -0.28611,-0.24889 z m 1.97468,-69.437284 c 0,-0.128183 -0.41939,-0.165 -0.93197,-0.08182 -0.63493,0.103034 -0.87539,0.05968 -0.75443,-0.136033 0.11738,-0.189928 -0.0599,-0.241879 -0.52324,-0.15331 -0.38543,0.07368 -0.70078,0.01754 -0.70078,-0.124775 0,-0.142306 -0.29405,-0.202525 -0.65345,-0.133821 -0.3594,0.0687 -0.59946,0.03755 -0.53346,-0.06923 0.15953,-0.258125 -1.43574,-0.568717 -1.79156,-0.348808 -0.17465,0.107936 -0.19839,0.04271 -0.0637,-0.175152 0.15638,-0.253016 0.0757,-0.310822 -0.29766,-0.213196 -0.28171,0.07367 -0.66816,-0.03301 -0.85878,-0.237066 -0.19062,-0.204058 -0.4837,-0.325306 -0.65129,-0.269444 -0.16758,0.05586 -0.46994,-0.06368 -0.67191,-0.265637 -0.20196,-0.201964 -0.53663,-0.302193 -0.74371,-0.222728 -0.23865,0.09158 -0.30714,0.03225 -0.18706,-0.162039 0.12651,-0.204703 0.0432,-0.250397 -0.25084,-0.137565 -0.24216,0.09292 -0.44028,0.0466 -0.44028,-0.102944 0,-0.149543 -0.11906,-0.198311 -0.26458,-0.108373 -0.14552,0.08994 -0.26459,0.03041 -0.26459,-0.132292 0,-0.162698 -0.11906,-0.222229 -0.26458,-0.132292 -0.14552,0.08994 -0.26458,0.03041 -0.26458,-0.132291 0,-0.162698 -0.11907,-0.222229 -0.26459,-0.132292 -0.14552,0.08994 -0.26458,0.04049 -0.26458,-0.109882 0,-0.368633 -1.46657,-1.108212 -1.72867,-0.871754 -0.11454,0.103338 -0.12261,0.03906 -0.0179,-0.142843 0.17387,-0.302131 -0.139,-0.456515 -0.72046,-0.355505 -0.11996,0.02082 -0.1427,-0.08413 -0.0505,-0.233251 0.15326,-0.247984 -0.20288,-0.389782 -0.74322,-0.295916 -0.11996,0.02082 -0.15041,-0.07165 -0.0677,-0.205528 0.15133,-0.244848 -0.58407,-0.689422 -0.99066,-0.598895 -0.11996,0.02671 -0.16749,-0.04369 -0.10563,-0.156432 0.0619,-0.112747 -0.31624,-0.562017 -0.84023,-0.998379 -0.52399,-0.436358 -0.83364,-0.609343 -0.68812,-0.384405 0.27709,0.428321 0.15333,0.300763 -1.88209,-1.939835 -0.68965,-0.759161 -1.15429,-1.201698 -1.03255,-0.983416 0.13165,0.23605 0.12375,0.307527 -0.0195,0.176389 -0.13247,-0.121269 -0.24173,-0.299862 -0.24279,-0.396875 -0.004,-0.393827 -0.85311,-1.349824 -1.03604,-1.166894 -0.10821,0.108215 -0.16793,0.07769 -0.1327,-0.06783 0.1127,-0.465529 -0.33006,-1.193718 -0.61772,-1.015933 -0.15276,0.09441 -0.20205,0.04917 -0.10953,-0.100524 0.0925,-0.149698 -0.0974,-0.568748 -0.42214,-0.931224 -0.32469,-0.362474 -0.626664,-0.823939 -0.671042,-1.025475 -0.04438,-0.201533 -0.22297,-0.485921 -0.396875,-0.631968 -0.173903,-0.146047 -0.336799,-0.384172 -0.361993,-0.529167 -0.120711,-0.694734 -1.354068,-3.008891 -1.516861,-2.846096 -0.101801,0.101801 -0.09904,-0.03917 0.0061,-0.313269 0.132186,-0.344474 0.09659,-0.439865 -0.115279,-0.308922 -0.20026,0.123769 -0.251894,0.04709 -0.148947,-0.221179 0.08689,-0.22642 0.01918,-0.410617 -0.150937,-0.410617 -0.169677,0 -0.246764,-0.0999 -0.171304,-0.221996 0.171397,-0.27731 -0.66715,-2.953004 -0.925442,-2.953004 -0.104121,0 -0.127042,-0.238125 -0.05093,-0.529167 0.07611,-0.291041 0.02193,-0.529166 -0.120372,-0.529166 -0.142311,0 -0.201851,-0.297657 -0.132305,-0.661459 0.06955,-0.363802 0.01,-0.661458 -0.132292,-0.661458 -0.142306,0 -0.201837,-0.297656 -0.132291,-0.661458 0.06955,-0.363802 0.01098,-0.661459 -0.130144,-0.661459 -0.149439,0 -0.201953,-0.568608 -0.125753,-1.361635 0.07352,-0.765151 0.02753,-1.297789 -0.104984,-1.21589 -0.132268,0.08174 -0.235821,-1.063091 -0.235821,-2.607114 0,-1.514073 0.10478,-2.75286 0.232847,-2.75286 0.128066,0 0.172458,-0.535781 0.09865,-1.190625 -0.07917,-0.702392 -0.02638,-1.190625 0.128725,-1.190625 0.144611,0 0.206028,-0.297656 0.136483,-0.661458 -0.06955,-0.363802 -0.01,-0.661459 0.132291,-0.661459 0.142307,0 0.201838,-0.297656 0.132292,-0.661458 -0.06955,-0.363802 -0.01,-0.661458 0.132305,-0.661458 0.142314,0 0.196482,-0.238125 0.120372,-0.529167 -0.07611,-0.291042 -0.05319,-0.529167 0.05093,-0.529167 0.258292,0 1.096839,-2.675695 0.925452,-2.953004 -0.07546,-0.122097 0.0016,-0.221995 0.171305,-0.221995 0.170113,0 0.237823,-0.184198 0.150936,-0.410617 -0.102946,-0.268276 -0.05131,-0.344948 0.148948,-0.22118 0.204702,0.126513 0.250396,0.04319 0.137564,-0.250841 -0.09292,-0.242154 -0.07398,-0.440279 0.0421,-0.440279 0.256926,0 1.521457,-2.656957 1.419428,-2.98242 -0.03998,-0.127552 0.06955,-0.144 0.243401,-0.03655 0.217482,0.13441 0.261747,0.05371 0.141878,-0.258659 -0.103487,-0.269684 -0.06803,-0.388389 0.08733,-0.292372 0.143854,0.08891 0.261554,0.03556 0.261554,-0.11855 0,-0.154108 0.0031,-0.336895 0.0068,-0.406191 0.0037,-0.0693 0.299161,-0.441462 0.656501,-0.827036 0.35733,-0.385574 0.574,-0.823523 0.48149,-0.973221 -0.0925,-0.149697 -0.0432,-0.194934 0.10952,-0.100525 0.25341,0.156614 0.49985,-0.157921 0.55045,-0.702542 0.011,-0.118677 0.32497,-0.455633 0.69766,-0.748791 0.37269,-0.293158 0.61501,-0.634316 0.53849,-0.758129 -0.0765,-0.123813 2.7e-4,-0.311269 0.17065,-0.416569 0.21164,-0.130801 0.23914,-0.07373 0.0868,0.180155 -0.20185,0.336386 2.15848,-2.158119 3.00513,-3.175955 0.26688,-0.320835 0.30078,-0.326627 0.14228,-0.02431 -0.11444,0.218281 0.15891,0.09922 0.60744,-0.264583 0.44854,-0.363802 0.76262,-0.753705 0.69796,-0.866452 -0.0647,-0.112746 -0.0194,-0.18314 0.10054,-0.156432 0.43436,0.09671 1.13695,-0.3622 0.96945,-0.633221 -0.0944,-0.152757 -0.0492,-0.202043 0.10052,-0.109524 0.1497,0.09252 0.57747,-0.114716 0.9506,-0.460519 0.37313,-0.345804 0.74249,-0.564657 0.82081,-0.48634 0.0783,0.07832 0.2172,-0.05256 0.30863,-0.290832 0.0914,-0.238273 0.27283,-0.36735 0.40311,-0.286837 0.13027,0.08051 0.23685,0.0203 0.23685,-0.133812 0,-0.154109 0.0955,-0.250432 0.21225,-0.214052 0.32979,0.102777 2.96275,-1.185737 2.96275,-1.449904 0,-0.129235 0.11907,-0.161387 0.26459,-0.07145 0.14552,0.08994 0.26458,0.04117 0.26458,-0.108373 0,-0.149542 0.17859,-0.203361 0.39687,-0.119599 0.21829,0.08376 0.39688,0.01347 0.39688,-0.156211 0,-0.169678 0.0999,-0.246765 0.222,-0.171305 0.27731,0.171387 2.953,-0.667159 2.953,-0.925452 0,-0.104121 0.23812,-0.12704 0.52917,-0.05093 0.29104,0.07611 0.52916,0.02194 0.52916,-0.120372 0,-0.142313 0.29766,-0.201851 0.66146,-0.132306 0.3638,0.06954 0.66146,0.01412 0.66146,-0.123158 0,-0.137282 0.35719,-0.197179 0.79375,-0.133106 0.43656,0.06407 0.79371,0.01369 0.79366,-0.111969 -5e-5,-0.125658 0.60059,-0.218688 1.33475,-0.206735 0.73416,0.01195 1.39976,-0.08331 1.47911,-0.211703 0.17542,-0.283823 4.03023,-0.213278 4.20965,0.07704 0.0701,0.113436 0.65573,0.176427 1.30138,0.139979 0.68955,-0.03893 1.10985,0.03738 1.01865,0.184942 -0.0915,0.148077 0.23975,0.205095 0.8069,0.138885 0.52918,-0.06178 0.96215,-0.0033 0.96215,0.129973 0,0.133264 0.29766,0.185398 0.66146,0.115853 0.3638,-0.06955 0.66146,-0.01001 0.66146,0.132306 0,0.142314 0.23812,0.196481 0.52916,0.120372 0.29104,-0.07611 0.52917,-0.05319 0.52917,0.05093 0,0.258293 2.67569,1.096839 2.953,0.925452 0.1221,-0.07546 0.222,0.0016 0.222,0.171305 0,0.169679 0.17859,0.239973 0.39687,0.156211 0.21829,-0.08376 0.39688,-0.04819 0.39688,0.07905 0,0.274385 3.42414,1.986868 3.9026,1.951774 0.18191,-0.01334 0.33073,0.08559 0.33073,0.219849 0,0.292727 1.89153,1.446757 2.20248,1.343741 0.11996,-0.03974 0.14639,0.04378 0.0587,0.185607 -0.17096,0.27662 0.73267,0.877063 1.01129,0.67198 0.0919,-0.06764 0.1083,-0.04436 0.0365,0.05172 -0.12878,0.172258 0.89022,1.010232 1.23304,1.013987 0.097,0.0011 0.2756,0.110318 0.39687,0.242789 0.13124,0.143367 0.0598,0.15062 -0.17639,0.01792 -0.21828,-0.122615 0.26233,0.431122 1.06803,1.230528 0.8057,0.799406 1.67001,1.532169 1.92069,1.628364 0.25067,0.09619 0.42937,0.267508 0.39711,0.380698 -0.12166,0.426782 0.61735,1.406726 0.92693,1.229124 0.1746,-0.100167 0.23234,-0.08785 0.12832,0.02738 -0.26261,0.290897 0.28867,1.249726 0.60584,1.053708 0.14182,-0.08765 0.24081,-0.06122 0.21997,0.05874 -0.0979,0.563686 0.0529,0.893414 0.33024,0.722005 0.18846,-0.116474 0.23368,-0.07263 0.11805,0.114459 -0.10309,0.166802 0.10399,0.594648 0.46022,0.950886 0.35621,0.356203 0.5809,0.714388 0.49932,0.795968 -0.0816,0.08158 -0.002,0.148327 0.17597,0.148327 0.17836,0 0.25071,0.119063 0.16077,0.264583 -0.0899,0.145521 -0.0374,0.264584 0.11668,0.264584 0.15411,0 0.25189,0.0893 0.21729,0.198437 -0.10609,0.334639 0.64051,1.918229 0.90437,1.918229 0.13646,0 0.17452,0.119063 0.0846,0.264584 -0.0899,0.145521 -0.0412,0.264583 0.10837,0.264583 0.14954,0 0.20925,0.163242 0.13269,0.36276 -0.0766,0.199518 0.0165,0.52694 0.20674,0.727604 0.19027,0.200665 0.35215,0.483907 0.35973,0.629428 0.0421,0.808662 0.46955,2.226756 0.6395,2.121723 0.1091,-0.06743 0.16587,0.173518 0.12614,0.535446 -0.0397,0.361928 0.0904,0.820686 0.28917,1.019463 0.19878,0.198777 0.29285,0.429984 0.20904,0.513792 -0.0838,0.08381 -0.0604,0.365873 0.0519,0.62681 0.11237,0.260937 0.17809,0.742323 0.14604,1.069744 -0.032,0.327422 0.0663,0.595313 0.21863,0.595313 0.16592,0 0.21393,0.314865 0.11979,0.785585 -0.0864,0.432072 -0.0693,0.997619 0.0381,1.256771 0.27165,0.655743 0.31412,5.610201 0.0467,5.445167 -0.11983,-0.07395 -0.1638,0.534582 -0.0977,1.352285 0.0661,0.817703 0.005,1.557946 -0.13591,1.644989 -0.14083,0.08704 -0.19731,0.382944 -0.12549,0.657563 0.0718,0.274619 0.0141,0.499306 -0.12818,0.499306 -0.14231,0 -0.23705,0.267891 -0.21052,0.595313 0.0265,0.327421 0.0169,0.714374 -0.0214,0.859895 -0.0383,0.145521 -0.0932,0.383646 -0.1221,0.529167 -0.0289,0.145521 -0.26313,0.740833 -0.52055,1.322917 -0.25742,0.582083 -0.48354,1.314799 -0.5025,1.628256 -0.0189,0.313457 -0.12376,0.514792 -0.2329,0.447405 -0.18419,-0.113721 -0.29864,0.381214 -0.26951,1.165484 0.007,0.181901 -0.0902,0.330729 -0.21555,0.330729 -0.24959,0 -1.46731,2.65629 -1.36455,2.976563 0.035,0.10914 -0.0752,0.198437 -0.245,0.198437 -0.16978,0 -0.24194,0.06675 -0.16036,0.148328 0.0816,0.08158 -0.14311,0.439764 -0.49931,0.795967 -0.35624,0.356238 -0.56332,0.784085 -0.46023,0.950886 0.11563,0.187093 0.0704,0.230934 -0.11804,0.114459 -0.27735,-0.171407 -0.42816,0.158319 -0.33024,0.722006 0.0208,0.119957 -0.0717,0.150407 -0.20553,0.06766 -0.26125,-0.161456 -0.68933,0.599583 -0.5834,1.037148 0.0352,0.145521 -0.0245,0.176044 -0.1327,0.06783 -0.2,-0.199993 -1.08005,0.846807 -0.97823,1.163566 0.0306,0.09518 -0.14201,0.333309 -0.38357,0.529167 -0.37625,0.305062 -0.40526,0.299217 -0.20236,-0.04077 0.13026,-0.218281 -0.32313,0.169362 -1.00755,0.861433 -0.68441,0.692068 -1.24439,1.36965 -1.24439,1.505738 0,0.136089 -0.13746,0.332386 -0.30546,0.436219 -0.20555,0.127034 -0.23486,0.06723 -0.0896,-0.182822 0.11871,-0.204385 -0.13078,-0.07574 -0.55443,0.285885 -1.22253,1.043538 -1.33516,1.15915 -0.90256,0.926401 0.21828,-0.11744 0.30413,-0.111617 0.19078,0.01294 -0.11335,0.124555 -0.36592,0.249922 -0.56127,0.278593 -0.61158,0.08976 -1.7488,0.948975 -1.59195,1.202774 0.0823,0.13321 0.0515,0.215659 -0.0684,0.183222 -0.48378,-0.130816 -1.40849,0.362386 -1.23787,0.660227 0.0982,0.171424 0.0848,0.227132 -0.0297,0.123794 -0.26209,-0.236458 -1.72866,0.503121 -1.72866,0.871754 0,0.150371 -0.10832,0.20646 -0.24071,0.124637 -0.33987,-0.210052 -1.109,0.124712 -0.93466,0.406813 0.0795,0.128606 -0.0598,0.155427 -0.3095,0.0596 -0.28571,-0.109638 -0.38995,-0.07055 -0.28118,0.10545 0.0951,0.153821 0.0253,0.27436 -0.15503,0.267864 -0.90526,-0.0326 -1.27166,0.0934 -1.09637,0.377018 0.10574,0.171077 0.0736,0.234278 -0.073,0.143658 -0.33762,-0.208661 -2.22057,0.363813 -2.05861,0.62588 0.0675,0.10921 -0.11557,0.13625 -0.40681,0.06009 -0.29124,-0.07616 -0.52953,-0.01667 -0.52953,0.132196 0,0.148871 -0.25674,0.203531 -0.57054,0.121473 -0.3138,-0.08206 -0.50483,-0.04115 -0.42452,0.09092 0.0803,0.132062 -0.40589,0.266282 -1.08044,0.298265 -0.67455,0.03198 -1.25931,0.156684 -1.29945,0.277111 -0.0401,0.120431 -0.50407,0.168638 -1.03096,0.107127 -0.52689,-0.06151 -0.89357,-0.0076 -0.81484,0.119761 0.0795,0.128707 -1.72647,0.231603 -4.06495,0.231603 -2.31443,0 -4.20806,-0.104875 -4.20806,-0.233055 z"
         style="fill:#727272;fill-opacity:1;stroke-width:1" />
      <path
         id="path26"
         d="m 115.52934,167.05829 c 0.91521,-0.0518 2.34396,-0.0514 3.175,0.001 0.83104,0.0523 0.0822,0.0947 -1.66402,0.0942 -1.74625,-5.3e-4 -2.42619,-0.0433 -1.51098,-0.0952 z m 21.02401,-3e-5 c 0.98226,-0.0509 2.5896,-0.0509 3.57187,0 0.98227,0.0509 0.17859,0.0926 -1.78594,0.0926 -1.96453,0 -2.7682,-0.0417 -1.78593,-0.0926 z m -26.9875,-0.26112 c 0.5457,-0.0571 1.43867,-0.0571 1.98437,0 0.5457,0.0571 0.0992,0.10378 -0.99219,0.10378 -1.0914,0 -1.53789,-0.0467 -0.99218,-0.10378 z m 34.39583,0 c 0.5457,-0.0571 1.43867,-0.0571 1.98437,0 0.54571,0.0571 0.0992,0.10378 -0.99218,0.10378 -1.09141,0 -1.53789,-0.0467 -0.99219,-0.10378 z m -38.76146,-0.26325 c 0.47294,-0.0587 1.24685,-0.0587 1.71979,0 0.47294,0.0587 0.086,0.10672 -0.85989,0.10672 -0.94589,0 -1.33284,-0.048 -0.8599,-0.10672 z m 43.12118,5.3e-4 c 0.4697,-0.0585 1.30314,-0.0594 1.85209,-0.002 0.54894,0.0573 0.16465,0.10509 -0.854,0.10627 -1.01864,0.001 -1.46779,-0.0457 -0.99809,-0.10414 z m -47.38279,-0.27702 c -0.0691,-0.11182 0.37035,-0.16505 0.97658,-0.11829 1.78047,0.13732 1.99715,0.25795 0.52252,0.29091 -0.7554,0.0169 -1.42999,-0.0608 -1.4991,-0.17262 z m 51.42359,0.0556 c 0.98313,-0.2139 2.33211,-0.25139 2.21478,-0.0616 -0.0711,0.11511 -0.68786,0.19548 -1.3705,0.1786 -0.68264,-0.0169 -1.06256,-0.0696 -0.84428,-0.11704 z m -53.640634,-0.30671 c 0.402183,-0.0608 0.997495,-0.0592 1.322914,0.004 0.32542,0.0628 -0.004,0.11255 -0.731239,0.11057 -0.727604,-0.002 -0.993857,-0.0534 -0.591675,-0.11419 z m 56.885414,0 c 0.40219,-0.0608 0.9975,-0.0592 1.32292,0.004 0.32542,0.0628 -0.004,0.11255 -0.73124,0.11057 -0.72761,-0.002 -0.99386,-0.0534 -0.59168,-0.11419 z m -59.664092,-0.26186 c 0.329118,-0.0633 0.805368,-0.0609 1.058334,0.005 0.252965,0.0662 -0.01632,0.118 -0.598398,0.11507 -0.582083,-0.003 -0.789053,-0.0571 -0.459936,-0.12041 z m 62.706252,0 c 0.32912,-0.0633 0.80537,-0.0609 1.05833,0.005 0.25297,0.0662 -0.0163,0.118 -0.59839,0.11507 -0.58209,-0.003 -0.78906,-0.0571 -0.45994,-0.12041 z m -65.912613,-0.28076 c -0.06911,-0.11182 0.340585,-0.15884 0.910429,-0.1045 0.569841,0.0543 1.036076,0.14583 1.036076,0.20331 0,0.19707 -1.820762,0.10465 -1.946505,-0.0988 z m 68.092343,0.0988 c 0,-0.0575 0.46623,-0.14897 1.03607,-0.20331 0.56985,-0.0543 0.97954,-0.007 0.91043,0.1045 -0.12574,0.20346 -1.9465,0.29588 -1.9465,0.0988 z m -69.913065,-0.34721 c 0.329118,-0.0633 0.805368,-0.0609 1.058333,0.005 0.252966,0.0662 -0.01632,0.11801 -0.598397,0.11507 -0.582084,-0.003 -0.789054,-0.0571 -0.459936,-0.12041 z m 72.625045,0.005 c 0.25466,-0.0665 0.67138,-0.0665 0.92604,0 0.25466,0.0666 0.0463,0.12101 -0.46302,0.12101 -0.50933,0 -0.71769,-0.0545 -0.46302,-0.12101 z m -74.741712,-0.26932 c 0.329118,-0.0633 0.805368,-0.0609 1.058334,0.005 0.252965,0.0662 -0.01632,0.118 -0.598398,0.11507 -0.582083,-0.003 -0.789054,-0.0571 -0.459936,-0.12041 z m 76.726082,5.3e-4 c 0.32742,-0.0631 0.8632,-0.0631 1.19063,0 0.32742,0.0631 0.0595,0.11466 -0.59532,0.11466 -0.65484,0 -0.92273,-0.0516 -0.59531,-0.11466 z m -79.142389,-0.28715 c -0.07114,-0.11511 0.279022,-0.16161 0.778137,-0.10335 0.499115,0.0583 0.907481,0.15245 0.907481,0.20929 0,0.19912 -1.557581,0.10122 -1.685618,-0.10594 z m 81.391349,0.0268 c 0.25466,-0.0665 0.67138,-0.0665 0.92604,0 0.25466,0.0666 0.0463,0.12101 -0.46302,0.12101 -0.50932,0 -0.71768,-0.0544 -0.46302,-0.12101 z m -84.203648,-0.34678 c -0.702611,-0.14789 -0.76645,-0.19964 -0.264583,-0.2145 0.363802,-0.0108 1.137708,0.0789 1.719792,0.19932 0.882216,0.18248 0.926245,0.21818 0.264583,0.21451 -0.436562,-0.002 -1.210469,-0.0921 -1.719792,-0.19933 z m 86.191108,0.0775 c 0.32912,-0.0633 0.80537,-0.0609 1.05833,0.005 0.25297,0.0662 -0.0163,0.11801 -0.59839,0.11507 -0.58209,-0.003 -0.78906,-0.0571 -0.45994,-0.12041 z m 1.98632,-0.26081 c 0.25744,-0.0671 0.61462,-0.0627 0.79375,0.01 0.17914,0.0725 -0.0315,0.12736 -0.46805,0.12197 -0.43656,-0.005 -0.58313,-0.0647 -0.3257,-0.13178 z m -90.492532,-0.26362 c 0.254662,-0.0665 0.67138,-0.0665 0.926042,0 0.254661,0.0666 0.0463,0.12101 -0.463021,0.12101 -0.509323,0 -0.717682,-0.0545 -0.463021,-0.12101 z m 91.744272,0.079 c 0,-0.0568 0.40837,-0.15103 0.90748,-0.20929 0.49912,-0.0583 0.84928,-0.0118 0.77814,0.10334 -0.12804,0.20717 -1.68562,0.30507 -1.68562,0.10595 z m -93.326737,-0.3446 c 0.257432,-0.0671 0.614619,-0.0627 0.79375,0.01 0.179131,0.0725 -0.03149,0.12736 -0.468056,0.12197 -0.436562,-0.005 -0.583126,-0.0647 -0.325694,-0.13177 z m 95.641837,0.008 c 0.18191,-0.0734 0.47956,-0.0734 0.66146,0 0.1819,0.0734 0.0331,0.13345 -0.33073,0.13345 -0.3638,0 -0.51263,-0.0601 -0.33073,-0.13345 z M 78.085463,163.3671 c 0.257432,-0.0671 0.614619,-0.0627 0.79375,0.01 0.179131,0.0725 -0.03149,0.12737 -0.468056,0.12197 -0.436562,-0.005 -0.583126,-0.0647 -0.325694,-0.13177 z m 98.689587,0 c 0.25743,-0.0671 0.61462,-0.0627 0.79375,0.01 0.17913,0.0725 -0.0315,0.12737 -0.46806,0.12197 -0.43656,-0.005 -0.58312,-0.0647 -0.32569,-0.13177 z M 76.497963,163.10235 c 0.257432,-0.0671 0.614619,-0.0627 0.79375,0.01 0.179131,0.0725 -0.03149,0.12736 -0.468056,0.12197 -0.436562,-0.005 -0.583126,-0.0647 -0.325694,-0.13177 z m 102.190277,-0.0812 c 0.43656,-0.11109 1.09141,-0.20198 1.45521,-0.20198 0.59002,0 0.57574,0.0218 -0.13229,0.20198 -0.43656,0.11108 -1.09141,0.20197 -1.45521,0.20197 -0.59002,0 -0.57574,-0.0218 0.13229,-0.20197 z M 75.03772,162.8459 c 0.181901,-0.0734 0.479557,-0.0734 0.661458,0 0.181901,0.0734 0.03307,0.13345 -0.330729,0.13345 -0.363802,0 -0.51263,-0.0601 -0.330729,-0.13345 z m -2.447396,-0.35394 c -0.708028,-0.18016 -0.722315,-0.20198 -0.132292,-0.20198 0.363802,0 1.018646,0.0909 1.455209,0.20198 0.708027,0.18016 0.722315,0.20197 0.132291,0.20197 -0.363802,0 -1.018646,-0.0909 -1.455208,-0.20197 z m 109.008336,0 c 0.43656,-0.11109 1.0914,-0.20198 1.45521,-0.20198 0.59002,0 0.57573,0.0218 -0.13229,0.20198 -0.43657,0.11109 -1.09141,0.20197 -1.45521,0.20197 -0.59003,0 -0.57574,-0.0218 0.13229,-0.20197 z M 70.804386,162.05215 c 0.181901,-0.0734 0.479558,-0.0734 0.661459,0 0.181901,0.0734 0.03307,0.13345 -0.33073,0.13345 -0.363802,0 -0.51263,-0.06 -0.330729,-0.13345 z m 113.572394,-0.0894 c 0.36381,-0.11651 0.95912,-0.20961 1.32292,-0.2069 0.59415,0.004 0.58069,0.0255 -0.13229,0.2069 -0.43656,0.11109 -1.03188,0.2042 -1.32292,0.20691 -0.41465,0.004 -0.38602,-0.0409 0.13229,-0.20691 z m -116.284373,-0.3908 c -0.727604,-0.18703 -1.084792,-0.34276 -0.79375,-0.34608 0.291042,-0.003 1.124479,0.14699 1.852083,0.33402 0.727605,0.18702 1.084792,0.34276 0.79375,0.34607 -0.291041,0.003 -1.124479,-0.14699 -1.852083,-0.33401 z m 118.616013,-0.0545 c 0.191,-0.0764 0.4192,-0.067 0.50712,0.0209 0.0879,0.0879 -0.0684,0.15045 -0.34726,0.13896 -0.30823,-0.0127 -0.37092,-0.0754 -0.15986,-0.15985 z m 1.0418,-0.25907 c 0.1819,-0.0734 0.47956,-0.0734 0.66146,0 0.1819,0.0734 0.0331,0.13345 -0.33073,0.13345 -0.3638,0 -0.51263,-0.0601 -0.33073,-0.13345 z M 66.058423,160.9883 c 0.190994,-0.0764 0.419198,-0.067 0.507119,0.0209 0.08792,0.0879 -0.06835,0.15045 -0.347266,0.13896 -0.308226,-0.0127 -0.370919,-0.0754 -0.159853,-0.15985 z m 123.031247,0 c 0.191,-0.0764 0.4192,-0.067 0.50712,0.0209 0.0879,0.0879 -0.0684,0.15045 -0.34726,0.13896 -0.30823,-0.0127 -0.37092,-0.0754 -0.15986,-0.15985 z M 63.991365,160.63988 c -0.523763,-0.16774 -0.551304,-0.21184 -0.132291,-0.21184 0.291041,0 0.826823,0.0953 1.190625,0.21184 0.523764,0.16773 0.551304,0.21183 0.132291,0.21183 -0.291041,0 -0.826823,-0.0953 -1.190625,-0.21183 z m 127.132295,-0.15085 c 0.7276,-0.20246 1.50151,-0.35976 1.71979,-0.34956 0.21828,0.0102 -0.19844,0.18421 -0.92604,0.38667 -0.72761,0.20246 -1.50151,0.35976 -1.71979,0.34956 -0.21828,-0.0102 0.19843,-0.18421 0.92604,-0.38667 z M 62.618839,160.19455 c 0.190995,-0.0764 0.419198,-0.067 0.507119,0.0209 0.08792,0.0879 -0.06835,0.15045 -0.347265,0.13896 -0.308227,-0.0127 -0.37092,-0.0754 -0.159854,-0.15985 z m -1.390348,-0.32375 c -0.08155,-0.13195 0.09002,-0.17759 0.381259,-0.10143 0.6178,0.16156 0.695894,0.34134 0.148273,0.34134 -0.209693,0 -0.447982,-0.10796 -0.529532,-0.23991 z m 132.144129,0.13848 c 0,-0.0558 0.23829,-0.16375 0.52953,-0.23991 0.29124,-0.0762 0.46281,-0.0305 0.38126,0.10143 -0.14241,0.23043 -0.91079,0.34725 -0.91079,0.13848 z M 61.417594,157.99404 c 0,-0.65484 0.0516,-0.92273 0.114662,-0.59531 0.06307,0.32742 0.06307,0.8632 0,1.19063 -0.06306,0.32742 -0.114662,0.0595 -0.114662,-0.59532 z m 132.556256,0 c 0,-0.65484 0.0516,-0.92273 0.11466,-0.59531 0.0631,0.32742 0.0631,0.8632 0,1.19063 -0.0631,0.32742 -0.11466,0.0595 -0.11466,-0.59532 z M 61.671499,155.61279 c 0,-0.50932 0.05445,-0.71768 0.121002,-0.46302 0.06655,0.25466 0.06655,0.67138 0,0.92604 -0.06655,0.25467 -0.121002,0.0463 -0.121002,-0.46302 z m 132.027081,0 c 0,-0.50932 0.0545,-0.71768 0.12101,-0.46302 0.0665,0.25466 0.0665,0.67138 0,0.92604 -0.0666,0.25467 -0.12101,0.0463 -0.12101,-0.46302 z M 61.936082,153.76071 c 0,-0.50932 0.05445,-0.71768 0.121002,-0.46302 0.06655,0.25466 0.06655,0.67138 0,0.92604 -0.06655,0.25466 -0.121002,0.0463 -0.121002,-0.46302 z M 193.4242,153.893 c 0.005,-0.43656 0.0647,-0.58312 0.13177,-0.32569 0.0671,0.25743 0.0627,0.61462 -0.01,0.79375 -0.0725,0.17913 -0.12736,-0.0315 -0.12197,-0.46806 z M 62.181057,152.17321 c 0,-0.3638 0.06005,-0.51263 0.133453,-0.33073 0.0734,0.1819 0.0734,0.47956 0,0.66146 -0.0734,0.1819 -0.133453,0.0331 -0.133453,-0.33073 z m 130.968753,0 c 0,-0.3638 0.06,-0.51263 0.13345,-0.33073 0.0734,0.1819 0.0734,0.47956 0,0.66146 -0.0734,0.1819 -0.13345,0.0331 -0.13345,-0.33073 z M 62.44564,150.85029 c 0,-0.3638 0.06006,-0.51263 0.133454,-0.33073 0.0734,0.18191 0.0734,0.47956 0,0.66146 -0.0734,0.1819 -0.133454,0.0331 -0.133454,-0.33073 z m 130.43959,0 c 0,-0.3638 0.06,-0.51263 0.13345,-0.33073 0.0734,0.18191 0.0734,0.47956 0,0.66146 -0.0734,0.1819 -0.13345,0.0331 -0.13345,-0.33073 z m -0.26459,-1.32291 c 0,-0.3638 0.0601,-0.51263 0.13346,-0.33073 0.0734,0.1819 0.0734,0.47956 0,0.66146 -0.0734,0.1819 -0.13346,0.0331 -0.13346,-0.33073 z M 62.689338,149.37304 c 0.0127,-0.30823 0.07539,-0.37092 0.15985,-0.15986 0.07643,0.191 0.06703,0.41921 -0.02087,0.50712 -0.08792,0.0879 -0.150453,-0.0684 -0.138965,-0.34726 z m 0.285469,-1.16858 c 0,-0.3638 0.06005,-0.51263 0.133453,-0.33073 0.0734,0.1819 0.0734,0.47956 0,0.66146 -0.0734,0.1819 -0.133453,0.0331 -0.133453,-0.33073 z m 129.381253,0 c 0,-0.3638 0.06,-0.51263 0.13345,-0.33073 0.0734,0.1819 0.0734,0.47956 0,0.66146 -0.0734,0.1819 -0.13345,0.0331 -0.13345,-0.33073 z m -128.993133,-1.5875 c 0.09236,-0.50932 0.272124,-1.16417 0.399484,-1.45521 0.158964,-0.36327 0.178919,-0.23884 0.06364,0.39688 -0.09236,0.50932 -0.272124,1.16416 -0.399484,1.45521 -0.158964,0.36326 -0.178919,0.23884 -0.06364,-0.39688 z m 128.587173,0.38665 c -0.0907,-0.23646 -0.15475,-0.62855 -0.14224,-0.87131 0.0125,-0.24276 0.12763,-0.0902 0.25583,0.33907 0.24942,0.83509 0.16121,1.24836 -0.11359,0.53224 z m -0.40868,-1.86391 c 0.0127,-0.30822 0.0754,-0.37091 0.15985,-0.15985 0.0764,0.191 0.067,0.4192 -0.0209,0.50712 -0.0879,0.0879 -0.15045,-0.0684 -0.13897,-0.34727 z M 64.028558,144.23571 c 0,-0.21828 0.102325,-0.635 0.227391,-0.92604 0.14333,-0.33355 0.227391,-0.38245 0.227391,-0.13229 0,0.21828 -0.102325,0.635 -0.227391,0.92604 -0.14333,0.33354 -0.227391,0.38245 -0.227391,0.13229 z m 127.114002,-0.41577 c -0.0973,-0.38775 -0.12592,-0.75603 -0.0635,-0.8184 0.0624,-0.0624 0.19301,0.20386 0.29033,0.59161 0.0973,0.38775 0.12592,0.75603 0.0635,0.81839 -0.0624,0.0624 -0.19301,-0.20385 -0.29033,-0.5916 z M 65.465944,139.73779 c 0.09731,-0.3638 0.287277,-0.84005 0.422143,-1.05833 0.17042,-0.27582 0.191248,-0.19512 0.06828,0.26458 -0.09731,0.36381 -0.287276,0.84006 -0.422142,1.05834 -0.170421,0.27582 -0.191249,0.19512 -0.06828,-0.26459 z m 124.231906,-0.29398 c -0.163,-0.46758 -0.25007,-0.89646 -0.19348,-0.95305 0.0566,-0.0566 0.23626,0.27968 0.39927,0.74727 0.163,0.46758 0.25006,0.89646 0.19347,0.95305 -0.0566,0.0566 -0.23626,-0.27968 -0.39926,-0.74727 z m -0.64676,-1.46991 c -0.097,-0.097 -0.17277,-0.3649 -0.16834,-0.59531 0.007,-0.34404 0.0582,-0.33261 0.28883,0.0639 0.2849,0.48993 0.2023,0.85417 -0.12049,0.53137 z M 66.391366,137.22425 c 0,-0.14552 0.170157,-0.56224 0.378124,-0.92604 0.207968,-0.3638 0.378124,-0.54239 0.378124,-0.39687 0,0.14552 -0.170156,0.56224 -0.378124,0.92604 -0.207967,0.3638 -0.378124,0.54239 -0.378124,0.39687 z m 122.119144,-0.80398 c -0.25532,-0.66534 -0.18,-0.83702 0.1319,-0.30065 0.15444,0.26557 0.22506,0.5386 0.15694,0.60672 -0.0681,0.0681 -0.1981,-0.0696 -0.28884,-0.30607 z m -121.325394,-1.0481 c 0,-0.14552 0.170157,-0.56224 0.378124,-0.92604 0.207968,-0.3638 0.378124,-0.5424 0.378124,-0.39688 0,0.14552 -0.170156,0.56224 -0.378124,0.92604 -0.207967,0.36381 -0.378124,0.5424 -0.378124,0.39688 z m 120.021554,-1.90385 c -0.53421,-1.11502 -0.92196,-2.07665 -0.86167,-2.13694 0.0603,-0.0603 0.53605,0.81333 1.05724,1.94138 0.52119,1.12804 0.90894,2.08967 0.86167,2.13694 -0.0473,0.0473 -0.52302,-0.82635 -1.05724,-1.94138 z M 68.383774,132.70305 c 0.60805,-1.45527 2.914118,-5.54343 4.532307,-8.0348 1.554547,-2.39338 4.405763,-6.22957 4.820667,-6.48599 0.13839,-0.0855 -0.669568,1.0683 -1.79546,2.56407 -2.448023,3.25225 -4.601594,6.68799 -6.43754,10.27025 -1.38951,2.71117 -1.817238,3.35525 -1.119974,1.68647 z m 117.437336,-1.97869 c -0.0959,-0.1552 -0.11765,-0.33893 -0.0483,-0.40829 0.0694,-0.0693 0.1966,0.0576 0.28278,0.28219 0.1789,0.46622 0.0264,0.54823 -0.23448,0.1261 z m -0.91516,-1.83448 c -0.29696,-0.58209 -0.48039,-1.05834 -0.40763,-1.05834 0.0728,0 0.37526,0.47625 0.67221,1.05834 0.29696,0.58208 0.48039,1.05833 0.40763,1.05833 -0.0728,0 -0.37525,-0.47625 -0.67221,-1.05833 z m -1.25541,-2.18281 c -0.37432,-0.47274 -0.9012,-1.52136 -0.76441,-1.52136 0.0635,0 0.36134,0.41672 0.66185,0.92604 0.54604,0.92548 0.59667,1.21934 0.10256,0.59532 z m -1.31683,-2.11667 c -0.39666,-0.51288 -0.64618,-0.99219 -0.51651,-0.99219 0.0646,0 0.31251,0.29766 0.55088,0.66146 0.44604,0.68075 0.4212,0.91978 -0.0344,0.33073 z m -1.8813,-2.62307 c -0.48492,-0.73572 -0.78003,-1.27486 -0.6558,-1.19808 0.38027,0.23502 1.9816,2.56534 1.75234,2.55006 -0.11818,-0.008 -0.61163,-0.61626 -1.09654,-1.35198 z m -1.47733,-1.97842 c -0.13935,-0.36313 -0.10063,-0.3795 0.23627,-0.0999 0.45912,0.38103 0.5069,0.53419 0.16666,0.53419 -0.12995,0 -0.31127,-0.19543 -0.40293,-0.4343 z m -0.97749,-1.21934 c -0.31071,-0.59213 -0.30935,-0.59261 0.25528,-0.0913 0.63064,0.55995 0.68827,0.6866 0.31239,0.6866 -0.1404,0 -0.39585,-0.26789 -0.56767,-0.59531 z m -1.40681,-1.76096 -0.77455,-0.95102 0.89327,0.85141 c 0.4913,0.46828 0.83985,0.89624 0.77455,0.95103 -0.0653,0.0548 -0.46727,-0.32835 -0.89327,-0.85142 z m -96.776543,-1.22478 c 1.621571,-1.83682 4.801259,-4.84495 6.543091,-6.19007 0.295809,-0.22843 -0.239972,0.28729 -1.190625,1.14606 -0.950653,0.85878 -2.966125,2.82331 -4.478825,4.36563 -2.378064,2.42463 -2.496322,2.51646 -0.873641,0.67838 z m 94.376093,-1.25346 c -1.69057,-1.76688 -2.13459,-2.50287 -0.67485,-1.11862 0.99092,0.93969 2.30622,2.52378 2.08192,2.5074 -0.0463,-0.003 -0.67947,-0.62833 -1.40707,-1.38878 z m -3.71778,-3.4892 c -0.41656,-0.35794 -0.69429,-0.71388 -0.61718,-0.79099 0.0771,-0.0771 0.48122,0.21575 0.89802,0.65079 0.9173,0.95746 0.76105,1.03547 -0.28084,0.1402 z m -1.55458,-1.33926 c -0.28042,-0.21215 -0.44836,-0.44722 -0.3732,-0.52238 0.0752,-0.0751 0.35281,0.10221 0.617,0.39414 0.56261,0.62167 0.47166,0.66951 -0.2438,0.12824 z m -81.246396,-1.18495 c 0.26339,-0.29104 0.538422,-0.52916 0.611182,-0.52916 0.07276,0 -0.08321,0.23812 -0.346599,0.52916 -0.26339,0.29104 -0.538421,0.52917 -0.611182,0.52917 -0.07276,0 0.08321,-0.23813 0.346599,-0.52917 z m 0.926042,-0.62906 c 0,-0.0549 0.208359,-0.2633 0.463021,-0.46302 0.419645,-0.32911 0.429003,-0.31975 0.0999,0.0999 -0.345644,0.44072 -0.562917,0.58088 -0.562917,0.36312 z m 77.213924,-0.56722 c -0.53375,-0.3498 -1.05814,-0.77787 -1.16531,-0.95128 -0.10718,-0.17342 0.35929,0.066 1.0366,0.53197 0.6773,0.46599 1.23145,0.90107 1.23145,0.96684 0,0.17059 -0.0287,0.15633 -1.10274,-0.54753 z m -41.28974,-0.58529 c 0.62231,-0.0559 1.57481,-0.0551 2.11666,0.002 0.54186,0.0568 0.0327,0.10258 -1.13147,0.10162 -1.16417,-0.001 -1.6075,-0.0475 -0.98519,-0.10337 z m 4.22634,2.7e-4 c 0.61846,-0.0557 1.63049,-0.0557 2.24896,0 0.61846,0.0557 0.11244,0.10128 -1.12448,0.10128 -1.23693,0 -1.74295,-0.0456 -1.12448,-0.10128 z m -7.14067,-0.25799 c 0.32912,-0.0633 0.80537,-0.0609 1.05834,0.005 0.25296,0.0662 -0.0163,0.118 -0.5984,0.11507 -0.58209,-0.003 -0.78906,-0.0571 -0.45994,-0.12041 z m 11.37709,0 c 0.32911,-0.0633 0.80536,-0.0609 1.05833,0.005 0.25296,0.0662 -0.0163,0.118 -0.5984,0.11507 -0.58208,-0.003 -0.78905,-0.0571 -0.45993,-0.12041 z m -13.09493,-0.2608 c 0.25743,-0.0671 0.61462,-0.0627 0.79375,0.01 0.17913,0.0725 -0.0315,0.12736 -0.46806,0.12197 -0.43656,-0.005 -0.58312,-0.0647 -0.32569,-0.13177 z m 15.08125,0 c 0.25743,-0.0671 0.61462,-0.0627 0.79375,0.01 0.17913,0.0725 -0.0315,0.12736 -0.46806,0.12197 -0.43656,-0.005 -0.58312,-0.0647 -0.32569,-0.13177 z m -16.54149,-0.25639 c 0.1819,-0.0734 0.47955,-0.0734 0.66146,0 0.1819,0.0734 0.0331,0.13346 -0.33073,0.13346 -0.36381,0 -0.51263,-0.0601 -0.33073,-0.13346 z m 17.99166,0 c 0.1819,-0.0734 0.47956,-0.0734 0.66146,0 0.1819,0.0734 0.0331,0.13346 -0.33073,0.13346 -0.3638,0 -0.51263,-0.0601 -0.33073,-0.13346 z m -19.03346,-0.27009 c 0.19099,-0.0764 0.4192,-0.067 0.50712,0.0209 0.0879,0.0879 -0.0684,0.15045 -0.34727,0.13896 -0.30822,-0.0127 -0.37092,-0.0754 -0.15985,-0.15985 z m 20.37292,0 c 0.19099,-0.0764 0.4192,-0.067 0.50712,0.0209 0.0879,0.0879 -0.0684,0.15045 -0.34727,0.13896 -0.30823,-0.0127 -0.37092,-0.0754 -0.15985,-0.15985 z m -45.260645,-0.51547 c 0.695328,-0.57782 3.241501,-2.03706 3.241501,-1.85774 0,0.0673 -0.565547,0.45109 -1.256771,0.85279 -0.691224,0.40171 -1.554427,0.9034 -1.918229,1.11487 l -0.661459,0.3845 z m 23.829395,0.25089 c 0.19099,-0.0764 0.4192,-0.067 0.50712,0.0209 0.0879,0.0879 -0.0684,0.15045 -0.34727,0.13897 -0.30823,-0.0127 -0.37092,-0.0754 -0.15985,-0.15985 z m 22.48958,0 c 0.191,-0.0764 0.4192,-0.067 0.50712,0.0209 0.0879,0.0879 -0.0684,0.15045 -0.34727,0.13897 -0.30822,-0.0127 -0.37092,-0.0754 -0.15985,-0.15985 z m -24.51951,-0.38738 c -0.4889,-0.14069 -0.83757,-0.30714 -0.77483,-0.36988 0.0627,-0.0627 0.64135,0.0513 1.28579,0.2535 1.31578,0.4128 0.87106,0.51409 -0.51096,0.11638 z m 26.37159,-0.14179 c 0.191,-0.0764 0.4192,-0.067 0.50712,0.0209 0.0879,0.0879 -0.0684,0.15045 -0.34726,0.13896 -0.30823,-0.0127 -0.37092,-0.0754 -0.15986,-0.15985 z m 20.75326,-0.49822 c -0.61846,-0.37067 -1.12448,-0.73644 -1.12448,-0.81282 0,-0.14258 1.78503,0.87104 2.23573,1.26954 0.45474,0.40207 0.0311,0.22798 -1.11125,-0.45672 z m -50.0249,-0.41861 c -0.77424,-0.29745 -1.36246,-0.58608 -1.30715,-0.64139 0.0994,-0.0994 2.87648,0.89009 3.08969,1.10083 0.23387,0.23116 -0.4311,0.0598 -1.78254,-0.45944 z m 31.17334,0.34846 c 0.21828,-0.13487 0.69453,-0.32483 1.05833,-0.42215 0.45971,-0.12296 0.54041,-0.10213 0.26458,0.0683 -0.21828,0.13486 -0.69453,0.32483 -1.05833,0.42214 -0.45971,0.12297 -0.54041,0.10214 -0.26458,-0.0683 z m 2.11666,-0.83839 c 0.21828,-0.14107 0.51594,-0.25648 0.66146,-0.25648 0.14552,0 0.086,0.11541 -0.13229,0.25648 -0.21828,0.14106 -0.51594,0.25648 -0.66146,0.25648 -0.14552,0 -0.086,-0.11542 0.13229,-0.25648 z m -48.683331,-0.40259 c 0,-0.0654 0.724271,-0.48457 1.60949,-0.93143 1.71102,-0.86372 3.112121,-1.44732 2.853271,-1.18846 -0.25012,0.25011 -4.462761,2.2512 -4.462761,2.11989 z m 10.801561,-1.19138 c -1.1169,-0.57109 -2.09412,-1.14091 -2.17159,-1.26626 -0.11569,-0.1872 4.21681,1.93043 4.57715,2.23721 0.41424,0.35266 -0.68338,-0.0904 -2.40556,-0.97095 z m 39.49132,0.96434 c 0.2699,-0.24595 2.88837,-1.48219 2.88837,-1.36366 0,0.14918 -2.52676,1.46412 -2.81343,1.46412 -0.10185,0 -0.13557,-0.0452 -0.0749,-0.10046 z m 10.81719,-0.77919 c -0.95065,-0.46208 -2.23837,-1.06055 -2.86158,-1.32994 -0.62322,-0.26939 -1.08088,-0.54204 -1.01704,-0.60589 0.14258,-0.14258 5.73938,2.45713 5.73938,2.66594 0,0.18898 0.15644,0.25036 -1.86076,-0.73011 z m -7.13507,-1.09113 c 0,-0.0728 0.35719,-0.317 0.79375,-0.54276 0.43656,-0.22575 0.79375,-0.35093 0.79375,-0.27817 0,0.0728 -0.35719,0.317 -0.79375,0.54275 -0.43656,0.22576 -0.79375,0.35094 -0.79375,0.27818 z m -48.68333,-0.54276 c 0.3638,-0.20797 0.78052,-0.37812 0.92604,-0.37812 0.14552,0 -0.0331,0.17015 -0.39688,0.37812 -0.3638,0.20797 -0.78052,0.37813 -0.92604,0.37813 -0.14552,0 0.0331,-0.17016 0.39688,-0.37813 z m 2.2561,-0.38532 c -0.086,-0.139165 -0.33117,-0.185956 -0.54479,-0.103983 -0.21362,0.08197 -0.3884,0.08951 -0.3884,0.01675 0,-0.340006 0.73528,-0.356857 1.18613,-0.02718 0.27638,0.202093 0.36772,0.367433 0.20297,0.367433 -0.16474,0 -0.3699,-0.11386 -0.45591,-0.25302 z m 48.43841,-0.319505 c 0.0673,-0.108958 0.29721,-0.131035 0.51084,-0.04906 0.53865,0.206701 0.48519,0.331415 -0.12244,0.285647 -0.28096,-0.02117 -0.45574,-0.127627 -0.3884,-0.236585 z m -26.15441,-1.740588 c 1.05503,-0.05022 2.78143,-0.05022 3.83646,0 1.05502,0.05022 0.19182,0.09131 -1.91823,0.09131 -2.11005,0 -2.97326,-0.04109 -1.91823,-0.09131 z m -3.30226,-0.251481 c 0.25744,-0.06708 0.61462,-0.06267 0.79375,0.0098 0.17913,0.07248 -0.0315,0.127363 -0.46805,0.12197 -0.43656,-0.0054 -0.58313,-0.06469 -0.3257,-0.131773 z m 9.51997,0.0011 c 0.25466,-0.06655 0.67138,-0.06655 0.92604,0 0.25466,0.06655 0.0463,0.121002 -0.46302,0.121002 -0.50932,0 -0.71768,-0.05445 -0.46302,-0.121002 z M 121.07522,97.49395 c 0.1819,-0.0734 0.47956,-0.0734 0.66146,0 0.1819,0.0734 0.0331,0.133453 -0.33073,0.133453 -0.3638,0 -0.51263,-0.06005 -0.33073,-0.133453 z m 13.82448,-0.232939 c 0.80036,-0.199739 1.57427,-0.355722 1.71979,-0.346631 0.53158,0.03322 -1.87211,0.714066 -2.51354,0.711962 -0.3638,-0.0013 -0.007,-0.165589 0.79375,-0.365331 z m -16.66875,-0.374602 c -1.92219,-0.641774 -1.38628,-0.655638 0.79375,-0.02053 0.94588,0.275561 1.48167,0.502229 1.19062,0.503706 -0.29104,0.0016 -1.18401,-0.21595 -1.98437,-0.483172 z m 20.6375,-0.775618 c 1.09141,-0.406403 2.36541,-0.936395 2.83113,-1.177761 1.03498,-0.536401 1.52737,-0.568283 0.60845,-0.0394 -0.9259,0.532905 -4.67455,1.984484 -5.08469,1.968931 -0.1866,-0.0071 0.5537,-0.345373 1.64511,-0.751773 z m -23.01875,-0.0292 c -0.21828,-0.141066 -0.27781,-0.25648 -0.13229,-0.25648 0.14552,0 0.44317,0.115414 0.66146,0.25648 0.21828,0.141065 0.27781,0.256479 0.13229,0.256479 -0.14552,0 -0.44318,-0.115414 -0.66146,-0.256479 z m -1.5875,-0.661459 c -0.3638,-0.207968 -0.5424,-0.378124 -0.39688,-0.378124 0.14553,0 0.56224,0.170156 0.92605,0.378124 0.3638,0.207968 0.54239,0.378124 0.39687,0.378124 -0.14552,0 -0.56224,-0.170156 -0.92604,-0.378124 z m 28.83958,-1.008052 c 0,-0.07276 0.56555,-0.45961 1.25677,-0.859671 0.69123,-0.400057 2.20927,-1.425873 3.37344,-2.279591 1.22021,-0.894818 1.66844,-1.146458 1.05833,-0.594159 -1.53777,1.392068 -5.68854,4.116239 -5.68854,3.733421 z M 109.3186,92.666877 c -1.28284,-0.859423 -2.6301,-1.890049 -2.9939,-2.290279 -0.36589,-0.402531 5.3e-4,-0.195397 0.82022,0.463556 0.81493,0.655185 2.21392,1.643202 3.10886,2.195594 1.48219,0.914863 1.83545,1.193715 1.51222,1.193715 -0.0632,0 -1.16455,-0.703164 -2.4474,-1.562586 z m -5.35457,-4.418388 c -1.35216,-1.479484 -3.4363,-4.11471 -3.84915,-4.866942 -0.351326,-0.640149 0.18658,-0.02238 1.53083,1.758088 0.67511,0.894188 1.83742,2.293172 2.58291,3.108854 0.74548,0.815683 1.2959,1.483058 1.22314,1.483058 -0.0728,0 -0.74224,-0.667375 -1.48773,-1.483058 z m 46.01692,1.404204 c 0,-0.10046 0.55314,-0.743744 1.22921,-1.429517 0.67606,-0.685774 1.10255,-1.013886 0.94776,-0.729142 -0.32371,0.595453 -2.17697,2.433125 -2.17697,2.158659 z m 4.24283,-5.030287 c 0.902,-1.264555 1.6927,-2.299192 1.75712,-2.299192 0.18338,0 -2.56338,3.906451 -3.00372,4.271907 -0.21636,0.179562 0.34461,-0.708158 1.2466,-1.972715 z M 99.445533,82.323214 c -0.155761,-0.291042 -0.223671,-0.529167 -0.150911,-0.529167 0.07276,0 0.259734,0.238125 0.415494,0.529167 0.15576,0.291042 0.223671,0.529166 0.15091,0.529166 -0.07276,0 -0.259733,-0.238124 -0.415493,-0.529166 z m -1.49184,-2.802805 c -0.510532,-1.104982 -0.884061,-2.053238 -0.830062,-2.107237 0.054,-0.054 0.528929,0.850077 1.055399,2.009055 0.526471,1.158981 0.899999,2.107237 0.830062,2.107237 -0.06994,0 -0.544867,-0.904076 -1.055399,-2.009055 z m 59.021187,0.67174 c 0.34078,-0.735523 0.6999,-1.417627 0.79806,-1.51579 0.22868,-0.228674 -0.24937,1.032205 -0.78146,2.061151 -0.67237,1.300221 -0.68466,0.896573 -0.0166,-0.545361 z m 0.99768,-2.102268 c 0.80421,-2.305738 1.36294,-3.698227 1.44927,-3.611901 0.12229,0.122295 -1.17354,3.644534 -1.42085,3.862038 -0.0918,0.08071 -0.10455,-0.03186 -0.0284,-0.250137 z M 96.432582,75.80813 c -0.234649,-0.688655 -0.417933,-1.379717 -0.4073,-1.535694 0.01064,-0.155978 0.248381,0.361703 0.528328,1.1504 0.279948,0.788699 0.463233,1.479761 0.4073,1.535694 -0.05593,0.05593 -0.29368,-0.461748 -0.528328,-1.1504 z m 62.958088,-2.02914 c 0.0994,-0.260937 0.2473,-0.407781 0.32876,-0.326318 0.0815,0.08146 1.7e-4,0.294955 -0.18065,0.474432 -0.26131,0.25936 -0.2917,0.22897 -0.14811,-0.148114 z M 95.762255,73.437625 c 0.0127,-0.308226 0.07539,-0.370919 0.15985,-0.159853 0.07643,0.190994 0.06703,0.419197 -0.02088,0.507119 -0.08792,0.08792 -0.150453,-0.06835 -0.138965,-0.347266 z M 159.7241,72.355254 c 0.1129,-0.553762 0.17944,-0.620294 0.25654,-0.25654 0.0573,0.270119 -0.0113,0.606568 -0.15244,0.747665 -0.16566,0.165666 -0.20254,-0.0083 -0.1041,-0.491125 z m -64.205542,-0.08621 c 0,-0.363802 0.06006,-0.51263 0.133453,-0.330729 0.0734,0.181901 0.0734,0.479557 0,0.661458 -0.0734,0.181901 -0.133453,0.03307 -0.133453,-0.330729 z m -0.264584,-1.322917 c 0,-0.363802 0.06006,-0.51263 0.133453,-0.330729 0.0734,0.181901 0.0734,0.479557 0,0.661458 -0.0734,0.181901 -0.133453,0.03307 -0.133453,-0.330729 z m 64.802036,0.110244 c 0.0127,-0.308226 0.0754,-0.370919 0.15985,-0.159853 0.0764,0.190994 0.067,0.419198 -0.0209,0.507119 -0.0879,0.08792 -0.15045,-0.06835 -0.13896,-0.347266 z m -65.036332,-2.22691 c 0,-0.654844 0.0516,-0.922735 0.114662,-0.595313 0.06307,0.327422 0.06307,0.863203 0,1.190625 -0.06306,0.327422 -0.114662,0.05953 -0.114662,-0.595312 z m 65.300912,0.63941 c 0.0127,-0.308226 0.0754,-0.370919 0.15985,-0.159853 0.0764,0.190995 0.067,0.419198 -0.0209,0.507119 -0.0879,0.08792 -0.15045,-0.06835 -0.13896,-0.347266 z m 0.0307,-1.300869 c 0.005,-0.436562 0.0647,-0.583126 0.13177,-0.325694 0.0671,0.257432 0.0627,0.614619 -0.01,0.79375 -0.0725,0.179131 -0.12736,-0.03149 -0.12197,-0.468056 z M 94.773734,65.25759 c 0.0011,-1.164167 0.04748,-1.607505 0.10337,-0.985195 0.05589,0.622311 0.0551,1.574811 -0.0019,2.116667 -0.05685,0.541856 -0.102581,0.03269 -0.101621,-1.131472 z m 65.881256,0 c 0.001,-1.164167 0.0475,-1.607505 0.10337,-0.985195 0.0559,0.622311 0.0551,1.574811 -0.002,2.116667 -0.0568,0.541856 -0.10258,0.03269 -0.10162,-1.131472 z M 95.014338,61.553423 c 0.0029,-0.582083 0.05712,-0.789053 0.120407,-0.459936 0.06329,0.329118 0.06088,0.805368 -0.0053,1.058334 -0.06622,0.252965 -0.118004,-0.01632 -0.115067,-0.598398 z m 65.346742,-0.132291 c 0,-0.509323 0.0545,-0.717683 0.12101,-0.463021 0.0665,0.254661 0.0665,0.67138 0,0.926041 -0.0666,0.254662 -0.12101,0.0463 -0.12101,-0.46302 z M 95.253974,59.569048 c 0,-0.363802 0.06006,-0.51263 0.133453,-0.330729 0.0734,0.181901 0.0734,0.479557 0,0.661458 -0.0734,0.181901 -0.133453,0.03307 -0.133453,-0.330729 z m 64.734706,-0.08621 c -0.0984,-0.482817 -0.0616,-0.656791 0.10411,-0.491125 0.14109,0.141097 0.20969,0.477546 0.15243,0.747665 -0.0771,0.363754 -0.14363,0.297222 -0.25654,-0.25654 z m -64.470122,-1.23671 c 0,-0.363802 0.06006,-0.51263 0.133453,-0.330729 0.0734,0.181901 0.0734,0.479557 0,0.661458 -0.0734,0.181901 -0.133453,0.03307 -0.133453,-0.330729 z m 64.272862,-0.15434 c 0.0127,-0.308225 0.0754,-0.37092 0.15985,-0.159853 0.0764,0.190996 0.067,0.419199 -0.0209,0.507118 -0.0879,0.08792 -0.15046,-0.06835 -0.13897,-0.347265 z m -64.029165,-1.05833 c 0.0127,-0.308224 0.07539,-0.370919 0.15985,-0.159852 0.07643,0.190996 0.06703,0.419199 -0.02088,0.507118 -0.08792,0.08792 -0.150453,-0.06835 -0.138965,-0.347266 z m 63.648015,0.02205 c -0.0838,-0.218281 -0.037,-0.396875 0.10398,-0.396875 0.14096,0 0.25628,0.178594 0.25628,0.396875 0,0.218281 -0.0468,0.396875 -0.10398,0.396875 -0.0572,0 -0.17252,-0.178594 -0.25628,-0.396875 z M 96.025282,56.242744 c -0.02724,-0.39957 0.812202,-2.809521 0.935628,-2.686096 0.05593,0.05593 -0.127352,0.746995 -0.4073,1.535694 -0.279947,0.788699 -0.517697,1.30638 -0.528328,1.150402 z m 62.857008,-1.20941 c -0.22542,-0.768974 -0.36401,-1.443981 -0.30797,-1.500015 0.056,-0.05604 0.28817,0.525423 0.51586,1.292128 0.22768,0.766706 0.36627,1.441713 0.30797,1.500016 -0.0583,0.0583 -0.29044,-0.523155 -0.51586,-1.292129 z M 97.072387,53.086757 c 0,-0.145521 0.115414,-0.443177 0.256479,-0.661458 0.141065,-0.218282 0.256479,-0.277813 0.256479,-0.132292 0,0.145521 -0.115414,0.443177 -0.256479,0.661458 -0.141065,0.218282 -0.256479,0.277813 -0.256479,0.132292 z m 61.011043,-0.274812 c -0.25532,-0.665346 -0.18,-0.837024 0.1319,-0.300656 0.15444,0.265576 0.22506,0.538601 0.15693,0.606723 -0.0681,0.06812 -0.1981,-0.06961 -0.28883,-0.306067 z m -60.3841,-1.312688 c 0.26797,-0.745567 2.010513,-3.836458 2.162866,-3.836458 0.121658,0 -1.960706,3.964115 -2.223784,4.233333 -0.0711,0.07276 -0.04369,-0.105833 0.06092,-0.396875 z m 59.34478,-1.061656 c -0.24201,-0.507495 -0.38547,-0.922719 -0.3188,-0.922719 0.18105,0 0.98423,1.620021 0.86319,1.741057 -0.0574,0.05741 -0.30238,-0.310842 -0.54439,-0.818338 z m -2.18569,-3.634698 c -0.54615,-0.763984 -1.30126,-1.805781 -1.67802,-2.315104 -0.37676,-0.509323 -0.48811,-0.771966 -0.24743,-0.58365 0.46677,0.365218 3.24944,4.287817 3.04176,4.287817 -0.0678,0 -0.57016,-0.625079 -1.11631,-1.389063 z m -54.64153,0.132292 c 0.14345,-0.254662 0.57386,-0.820209 0.95648,-1.256771 0.52654,-0.600776 0.48665,-0.488207 -0.16406,0.463021 -0.8497,1.242113 -1.297805,1.69097 -0.79242,0.79375 z m 2.87993,-3.704167 c 0.72731,-0.836744 1.6554,-1.81901 2.06241,-2.182812 0.40702,-0.363802 -0.13948,0.320807 -1.21443,1.521354 -1.07496,1.200547 -2.00304,2.182812 -2.06242,2.182812 -0.0594,0 0.48712,-0.684609 1.21444,-1.521354 z m 47.3056,-1.675219 c -0.8596,-0.861574 -2.26891,-2.072385 -3.13181,-2.690691 -2.28635,-1.638275 -2.95492,-2.208252 -1.82334,-1.554465 2.02935,1.172498 7.51127,5.89551 6.77019,5.832942 -0.13867,-0.01171 -0.95544,-0.726211 -1.81504,-1.587786 z m -44.23419,-1.262228 c 0.18888,-0.305613 2.91597,-2.436097 3.59605,-2.809347 0.61789,-0.339113 0.0643,0.141482 -1.95395,1.696431 -1.00192,0.771904 -1.74086,1.272716 -1.6421,1.112916 z m 36.15886,-4.446245 c -0.9354,-0.489783 -1.76633,-0.956119 -1.84652,-1.036302 -0.40056,-0.400565 2.68265,1.044855 3.67955,1.72498 0.79904,0.545141 -0.17694,0.178459 -1.83303,-0.688678 z m -30.71072,0.572254 c 0,-0.178093 2.67817,-1.512642 2.79704,-1.393779 0.0542,0.05422 -0.55293,0.418123 -1.34923,0.808664 -0.7963,0.390541 -1.44781,0.653843 -1.44781,0.585115 z m 5.18859,-2.37125 c 0.45263,-0.208912 1.16701,-0.447604 1.5875,-0.530426 0.65424,-0.128864 0.63094,-0.09821 -0.16151,0.212478 -0.50932,0.199686 -1.2237,0.438378 -1.5875,0.530426 -0.49755,0.125889 -0.45753,0.07324 0.16151,-0.212478 z m 20.87286,-0.166365 c -0.7276,-0.280855 -0.97887,-0.443782 -0.55838,-0.36206 0.83205,0.161709 2.57552,0.86988 2.14588,0.871629 -0.14552,5.92e-4 -0.85989,-0.228714 -1.5875,-0.509569 z m -18.17356,-0.687416 c 0.19099,-0.07643 0.4192,-0.06703 0.50712,0.02089 0.0879,0.08792 -0.0684,0.150453 -0.34727,0.138964 -0.30823,-0.0127 -0.37092,-0.07539 -0.15985,-0.159852 z m 16.13958,0 c 0.191,-0.07643 0.4192,-0.06703 0.50712,0.02089 0.0879,0.08792 -0.0684,0.150453 -0.34727,0.138964 -0.30822,-0.0127 -0.37092,-0.07539 -0.15985,-0.159852 z m -15.09779,-0.259071 c 0.1819,-0.0734 0.47956,-0.0734 0.66146,0 0.1819,0.0734 0.0331,0.133452 -0.33073,0.133452 -0.3638,0 -0.51263,-0.06005 -0.33073,-0.133452 z m 13.75834,0 c 0.1819,-0.0734 0.47955,-0.0734 0.66146,0 0.1819,0.0734 0.0331,0.133452 -0.33073,0.133452 -0.36381,0 -0.51263,-0.06005 -0.33073,-0.133452 z M 122.0063,32.662779 c 0.25743,-0.06708 0.61462,-0.06267 0.79375,0.0098 0.17913,0.07248 -0.0315,0.127362 -0.46806,0.12197 -0.43656,-0.0054 -0.58312,-0.06469 -0.32569,-0.131774 z m 10.5783,9.71e-4 c 0.25466,-0.06655 0.67138,-0.06655 0.92604,0 0.25466,0.06655 0.0463,0.121 -0.46302,0.121 -0.50933,0 -0.71769,-0.05445 -0.46302,-0.121 z m -8.9908,-0.265554 c 0.25743,-0.06708 0.61462,-0.06267 0.79375,0.0098 0.17913,0.07247 -0.0315,0.127362 -0.46806,0.121969 -0.43656,-0.0054 -0.58312,-0.06469 -0.32569,-0.131773 z m 7.40833,0 c 0.25743,-0.06708 0.61462,-0.06267 0.79375,0.0098 0.17913,0.07247 -0.0315,0.127362 -0.46806,0.121969 -0.43656,-0.0054 -0.58312,-0.06469 -0.32569,-0.131773 z"
         style="fill:#727272;fill-opacity:1;stroke-width:1" />
    </g>
  </g>
</svg>
